<svg width="40" height="40" viewBox="0 0 40 40" fill="none" xmlns="http://www.w3.org/2000/svg">
<g clip-path="url(#clip0_6842_28707)">
<path d="M39.5107 14.722C38.8326 13.977 37.6368 13.7928 36.8945 14.5257C35.9816 15.4309 35.0125 14.9803 33.9733 15.0644C33.9733 12.7274 33.9813 10.5285 33.9713 8.3316C33.9592 5.76222 32.2759 4.08202 29.6978 4.07801C23.2495 4.072 16.7992 4.07401 10.3489 4.07801C7.6985 4.08001 6.0473 5.70815 6.01119 8.37566C5.9851 10.2441 6.00918 12.1126 6.00316 13.979C6.00316 14.3295 5.96705 14.6819 5.94698 15.0624C4.83548 15.0524 3.86242 15.2867 2.95155 14.4456C2.20921 13.7587 1.08366 14.0251 0.441642 14.7721C-0.14621 15.457 -0.148217 16.6786 0.441642 17.3655C1.10573 18.1405 2.27542 18.3728 3.03782 17.6438C3.9527 16.7727 4.91975 17.1292 6.00517 17.0811V18.2566C6.00517 20.7259 5.99112 23.1931 6.00918 25.6624C6.02924 28.452 7.66239 30.0581 10.4452 30.0642C11.5787 30.0662 12.7123 30.0642 14.0304 30.0642C14.0304 31.6743 13.9883 33.1702 14.0565 34.6622C14.0766 35.0908 14.3073 35.7116 14.6263 35.8678C14.9453 36.024 15.5833 35.8277 15.9284 35.5754C18.1675 33.9453 20.3504 32.237 22.5914 30.6069C23.0107 30.3025 23.6026 30.1042 24.1222 30.0882C25.9921 30.0261 27.864 30.0722 29.7359 30.0622C32.2579 30.0501 33.9572 28.3739 33.9693 25.8686C33.9833 23.2993 33.9733 20.7319 33.9733 18.1625V17.0691C35.1249 17.1111 36.11 16.7987 37.0149 17.6839C37.7251 18.3768 38.8988 18.1185 39.5348 17.3875C40.1648 16.6645 40.1527 15.4229 39.5087 14.718L39.5107 14.722ZM30.0589 20.089C30.0349 21.4028 29.2584 22.0897 27.9423 22.0957C25.2699 22.1077 22.5974 22.0997 19.925 22.0997C17.3529 22.0997 14.7808 22.1037 12.2087 22.0997C10.6739 22.0957 9.91548 21.3727 9.90545 19.8547C9.8874 17.3214 9.88539 14.7861 9.90545 12.2528C9.91749 10.7888 10.6859 10.0459 12.1445 10.0459C17.389 10.0398 22.6335 10.0398 27.8781 10.0459C29.2664 10.0459 30.0389 10.7247 30.0609 12.0905C30.1051 14.756 30.1051 17.4255 30.0569 20.0911L30.0589 20.089Z" fill="#377DFF"/>
<path d="M14.0044 14.09C12.8949 14.076 12.0503 14.9151 12.0382 16.0446C12.0262 17.1781 12.8448 18.0352 13.9543 18.0492C15.0778 18.0632 15.9044 17.2382 15.9144 16.0947C15.9245 14.9431 15.1259 14.104 14.0024 14.09H14.0044Z" fill="#377DFF"/>
<path d="M26.0043 14.0898C24.8948 14.0979 24.0682 14.949 24.0762 16.0825C24.0822 17.216 24.9189 18.0571 26.0304 18.051C27.1519 18.043 27.9605 17.2079 27.9544 16.0584C27.9484 14.9129 27.1278 14.0838 26.0063 14.0918L26.0043 14.0898Z" fill="#377DFF"/>
</g>
<defs>
<clipPath id="clip0_6842_28707">
<rect width="40" height="31.8519" fill="white" transform="translate(0 4.07422)"/>
</clipPath>
</defs>
</svg>
