<svg width="40" height="40" viewBox="0 0 40 40" fill="none" xmlns="http://www.w3.org/2000/svg">
<g clip-path="url(#clip0_6842_28701)">
<path d="M7.9194 9.94606H19.994C20.0403 10.6053 19.994 11.9298 19.994 11.9298L25.9809 7.91834L19.994 4.05469C19.994 4.05469 20.0383 5.26133 19.994 5.94656H4V21.8687H32.0605V29.8517H30.0615C30.0312 29.1984 30.003 28.6131 29.9728 27.9778H22.1441V35.801H30.0594V33.8432H35.9859V17.8951H7.9194V9.94606Z" fill="#377DFF"/>
<path d="M14.0937 29.8505H11.9214C11.8912 29.1972 11.863 28.6118 11.8327 27.9766H4.03223V35.7998H11.9194V33.9219H14.0937V35.9995L19.9355 31.9021L14.0937 28.0205V29.8505Z" fill="#377DFF"/>
<path d="M28.1816 4V11.8192H35.9983V4H28.1816Z" fill="#377DFF"/>
</g>
<defs>
<clipPath id="clip0_6842_28701">
<rect width="32" height="32" fill="white" transform="translate(4 4)"/>
</clipPath>
</defs>
</svg>
