<svg width="40" height="40" viewBox="0 0 40 40" fill="none" xmlns="http://www.w3.org/2000/svg">
<path d="M35 28C35.2917 28 35.5208 28.1042 35.6875 28.3125C35.8958 28.4792 36 28.7083 36 29V31C36 31.2917 35.8958 31.5417 35.6875 31.75C35.5208 31.9167 35.2917 32 35 32H6C5.45833 32 4.97917 31.8125 4.5625 31.4375C4.1875 31.0208 4 30.5417 4 30V9C4 8.70833 4.08333 8.47917 4.25 8.3125C4.45833 8.10417 4.70833 8 5 8H7C7.29167 8 7.52083 8.10417 7.6875 8.3125C7.89583 8.47917 8 8.70833 8 9V28H35ZM33 10C33.2917 10 33.5208 10.1042 33.6875 10.3125C33.8958 10.4792 34 10.7083 34 11V18.375C34 19.0417 33.6875 19.5 33.0625 19.75C32.4375 20 31.8958 19.8958 31.4375 19.4375L29.4375 17.4375L23.4375 23.4375C23.0208 23.8125 22.5417 24 22 24C21.4583 24 20.9792 23.8125 20.5625 23.4375L16 18.8125L13.125 21.6875C12.6667 22.1875 12.1875 22.1875 11.6875 21.6875L10.3125 20.3125C9.8125 19.8125 9.8125 19.3333 10.3125 18.875L14.5625 14.5625C14.9792 14.1875 15.4583 14 16 14C16.5417 14 17.0208 14.1875 17.4375 14.5625L22 19.1875L26.5625 14.5625L24.5625 12.5625C24.1042 12.1042 24 11.5625 24.25 10.9375C24.5 10.3125 24.9583 10 25.625 10H33Z" fill="#377DFF"/>
</svg>
