<svg width="40" height="40" viewBox="0 0 40 40" fill="none" xmlns="http://www.w3.org/2000/svg">
<path d="M39.6875 25.25C39.8958 25.4583 40 25.7083 40 26C40 26.2917 39.8958 26.5417 39.6875 26.75L33.6875 32.6875C33.3542 33.0208 32.9792 33.0833 32.5625 32.875C32.1875 32.7083 32 32.3958 32 31.9375V29H28C27.0417 29 26.2292 29.2292 25.5625 29.6875C24.9375 30.1458 24.5208 30.7083 24.3125 31.375C24.1458 32 24.0417 32.6458 24 33.3125C23.9583 33.9792 24.0417 34.5208 24.25 34.9375C24.375 35.2708 24.2917 35.5417 24 35.75C23.7083 36 23.4167 36.0208 23.125 35.8125C22 35.0625 21.1458 34.0417 20.5625 32.75C20.0208 31.5 19.875 30.1667 20.125 28.75C20.3333 27.2917 20.9792 26.0417 22.0625 25C23.1875 23.9167 24.4792 23.2708 25.9375 23.0625C26.1458 23.0208 26.5 23 27 23H32V20.0625C32 19.6042 32.1875 19.2917 32.5625 19.125C32.9792 18.9167 33.3542 18.9792 33.6875 19.3125L39.6875 25.25ZM18.125 28.4375C17.6667 31.2708 18.375 33.7708 20.25 35.9375C18.9583 35.7292 17.875 35.1458 17 34.1875C15.875 35.3958 14.5 36 12.875 36C12.25 36 11.625 35.875 11 35.625C10.375 35.4167 9.8125 35.1042 9.3125 34.6875C8.85417 34.3125 8.45833 33.8333 8.125 33.25C6.625 33.2083 5.35417 32.6667 4.3125 31.625C3.27083 30.5417 2.75 29.25 2.75 27.75C0.916667 26.5833 0 24.9167 0 22.75C0 20.9583 0.666667 19.4583 2 18.25C1.875 17.7917 1.8125 17.3125 1.8125 16.8125C1.8125 14.6458 2.72917 12.9792 4.5625 11.8125C4.5625 10.5625 4.95833 9.47917 5.75 8.5625C6.58333 7.60417 7.58333 7.02083 8.75 6.8125C9.20833 5.9375 9.83333 5.25 10.625 4.75C11.4583 4.25 12.375 4 13.375 4C14.7917 4 16 4.5 17 5.5C18 4.5 19.2083 4 20.625 4C21.625 4 22.5208 4.25 23.3125 4.75C24.1458 5.25 24.7917 5.9375 25.25 6.8125C26.4167 7.02083 27.3958 7.60417 28.1875 8.5625C29.0208 9.47917 29.4375 10.5625 29.4375 11.8125C31.2708 12.9792 32.1875 14.6458 32.1875 16.8125C32.1875 16.8542 32.1667 16.9167 32.125 17C32.125 17.0833 32.125 17.125 32.125 17.125C31.5 17.3333 30.9792 17.7083 30.5625 18.25C30.1875 18.7917 30 19.3958 30 20.0625V20.5625C29.7917 20.3542 29.6042 20.2083 29.4375 20.125L28.25 19.375L28.8125 18.125C29.3125 17.1667 29.3333 16.3125 28.875 15.5625C28.4167 14.8125 27.875 14.2917 27.25 14L26.0625 13.5625C26.3125 12.5625 26.4375 12 26.4375 11.875C26.4375 11.2917 26.2292 10.7917 25.8125 10.375C25.4375 9.91667 24.9792 9.6875 24.4375 9.6875L23 9.8125L22.6875 8.625C22.5625 8.125 22.3125 7.72917 21.9375 7.4375C21.5625 7.14583 21.125 7 20.625 7C20.0417 7 19.5417 7.20833 19.125 7.625C18.7083 8.04167 18.5 8.54167 18.5 9.125V12.625C18.5 13.4167 18.75 14.125 19.25 14.75C19.75 15.375 20.3958 15.7917 21.1875 16C21.3958 16.0833 21.5 16.25 21.5 16.5V17.5C21.5 17.6667 21.4375 17.8125 21.3125 17.9375C21.1875 18.0208 21.0625 18.0417 20.9375 18C20.0208 17.7917 19.2083 17.3958 18.5 16.8125V27C18.3333 27.5 18.2083 27.9792 18.125 28.4375ZM15.5 12.625V9.125C15.5 8.54167 15.2917 8.04167 14.875 7.625C14.4583 7.20833 13.9583 7 13.375 7C12.875 7 12.4375 7.14583 12.0625 7.4375C11.6875 7.72917 11.4375 8.125 11.3125 8.625L11 9.8125L9.5625 9.6875C9.02083 9.6875 8.54167 9.91667 8.125 10.375C7.75 10.7917 7.5625 11.2917 7.5625 11.875C7.5625 12 7.6875 12.5625 7.9375 13.5625L6.75 14C6.125 14.2917 5.58333 14.8125 5.125 15.5625C4.66667 16.3125 4.6875 17.1667 5.1875 18.125L5.75 19.375L4.5625 20.125C3.4375 20.75 2.91667 21.6875 3 22.9375C3.125 24.1875 3.75 25.0417 4.875 25.5L6.0625 26C5.85417 27 5.75 27.5625 5.75 27.6875C5.75 28.4792 6.0625 29.1458 6.6875 29.6875C7.3125 30.1875 8 30.375 8.75 30.25L10.0625 30C10.0625 30.0417 10.1042 30.2083 10.1875 30.5C10.2708 30.75 10.3333 30.9167 10.375 31C10.4167 31.0417 10.4792 31.1875 10.5625 31.4375C10.6875 31.6875 10.7708 31.8542 10.8125 31.9375C10.8958 32.0208 11.0208 32.1458 11.1875 32.3125C11.3542 32.5208 11.5 32.6458 11.625 32.6875C11.7917 32.7708 11.9792 32.8333 12.1875 32.875C12.3958 32.9583 12.625 33 12.875 33C13.625 33 14.25 32.75 14.75 32.25C15.25 31.75 15.5 31.1458 15.5 30.4375V16.8125C14.7917 17.3958 13.9792 17.7917 13.0625 18C12.9375 18.0417 12.8125 18.0208 12.6875 17.9375C12.5625 17.8125 12.5 17.6667 12.5 17.5V16.5C12.5 16.25 12.6042 16.0833 12.8125 16C13.6042 15.7917 14.25 15.375 14.75 14.75C15.25 14.125 15.5 13.4167 15.5 12.625Z" fill="#377DFF"/>
</svg>
