<svg width="106" height="106" viewBox="0 0 106 106" fill="none" xmlns="http://www.w3.org/2000/svg">
<rect width="106" height="106" rx="53" fill="#ECF0F5"/>
<path d="M18.3635 53.2684C18.3635 53.2684 15.2667 40.2185 27.1518 38.5233C30.9209 37.9835 34.7279 38.8832 37.7868 41.1655C40.2964 43.0311 43.3269 46.1563 46.1963 51.3933L61.1403 76.404C61.1403 76.404 60.3543 81.196 55.9506 81.1202C55.9506 81.1202 54.5869 81.177 52.8255 79.2546C52.2762 78.6579 51.8216 77.9856 51.4334 77.2753L38.999 54.6794C37.8247 52.5392 36.4326 50.541 34.7753 48.7416C30.1349 43.6561 21.2708 36.6766 18.3635 53.2684Z" fill="#039FE3"/>
<path d="M87.4102 53.43C87.4102 53.43 90.2039 73.4689 75.3262 74.9747C72.0496 75.3156 68.7539 74.5959 65.8277 73.0901C60.6948 70.4574 51.5466 64.5764 44.4629 58.6954C44.4629 58.6954 23.0792 38.9596 18.3536 53.269C18.3536 53.269 18.221 44.0735 28.3825 42.8234C32.8903 42.2647 37.436 43.6189 41.0821 46.3274C42.8151 47.5774 44.5576 48.837 46.2907 50.087C49.5389 52.4357 52.7967 54.7843 56.0544 57.1329C59.3216 59.4909 62.551 61.9248 65.9318 64.1313C67.6365 65.2488 69.379 66.2905 71.1215 67.3701C72.7598 68.374 74.6728 69.785 76.6615 69.7282C78.6503 69.6714 80.4023 68.9138 81.6997 67.588C83.8873 65.3435 87.2113 60.7505 87.4007 53.43H87.4102Z" fill="#66FFCC"/>
<path d="M47.9388 24.0059C47.9388 24.0059 50.2306 23.8639 52.3424 25.9757C56.1211 29.7543 58.3655 35.7111 60.8372 40.4461C62.8449 44.291 64.6063 47.6624 67.0497 51.2516C69.332 54.6041 72.0404 57.8145 75.4402 60.0589C76.5293 60.7786 78.5086 61.29 79.7965 61.1196C83.8119 60.5987 86.009 56.7065 87.4106 53.4203C87.4106 53.4203 87.6947 65.2959 78.2718 66.9059C75.1088 67.4457 71.87 66.5365 69.2846 64.633C66.5383 62.6159 63.9624 61.2143 57.5984 52.2649L43.9897 28.277C43.9897 28.277 46.291 25.1991 47.9388 24.0059Z" fill="#FF9900"/>
<path d="M87.4109 53.4288C87.4109 53.4288 87.2973 46.5061 82.0982 46.1178C82.0982 46.1178 79.3992 45.7769 74.6735 51.0044C72.4859 53.4193 70.8192 56.0331 69.2092 59.0541L63.0441 71.5169C63.0441 71.5169 58.8015 80.8734 55.9604 81.1102C55.9604 81.1102 58.47 81.4227 61.2543 80.9397C64.3321 80.4188 66.9648 78.4396 68.3664 75.6553L72.8363 66.7628C72.8363 66.7628 82.7043 41.932 87.4299 53.4193L87.4109 53.4288Z" fill="#02EDFF"/>
<path d="M18.3633 53.2681C18.3633 53.2681 21.8199 57.6718 26.7065 49.1013L36.8017 29.2044C37.6067 27.8312 38.3454 26.7327 39.4439 25.7099C41.4705 23.8159 44.0559 24.0053 47.9387 24.0053C47.9387 24.0053 46.9254 24.5735 45.1166 27.1683C44.2453 28.4184 43.4972 29.7442 42.8248 31.1079L37.7772 41.4683C37.6162 41.7997 37.4646 42.1217 37.3131 42.4627C36.3566 44.6313 31.5363 55.4558 24.3484 57.9843C22.748 58.5525 20.9771 57.9843 20.0111 56.5827C19.4997 55.8251 18.9315 54.7644 18.3633 53.2587V53.2681Z" fill="#FFCC02"/>
<path d="M87.4104 53.4278C86.6149 26.7503 71.0459 44.6584 58.7347 52.5755C49.0656 58.8732 24.0359 73.6846 18.3633 53.2668C20.1437 55.8711 23.373 57.9072 28.7331 57.5C31.8488 57.2727 34.8414 56.2121 37.512 54.6021C46.1867 49.3651 54.8424 44.0713 63.1857 38.3134C79.0388 26.4283 90.7913 34.0518 87.4199 53.4184L87.4104 53.4278Z" fill="#9900FF"/>
</svg>
