<svg width="40" height="40" viewBox="0 0 40 40" fill="none" xmlns="http://www.w3.org/2000/svg">
<rect width="40" height="40" rx="8" fill="white"/>
<path d="M13.625 12.125C13.625 13.5781 12.4062 14.75 11 14.75C9.54688 14.75 8.375 13.5781 8.375 12.125C8.375 10.7188 9.54688 9.5 11 9.5C12.4062 9.5 13.625 10.7188 13.625 12.125ZM14.75 17.2344C13.3438 18.4531 12.5 20.2813 12.5 22.25C12.5 23.8906 13.0156 25.3438 14 26.5156V27.5C14 28.3438 13.2969 29 12.5 29H9.5C8.65625 29 8 28.3438 8 27.5V26.2813C6.21875 25.4375 5 23.6094 5 21.5C5 18.6406 7.34375 16.25 10.25 16.25H11.75C12.8281 16.25 13.9062 16.625 14.75 17.2344ZM8 19.5313C7.53125 20.0469 7.25 20.75 7.25 21.5C7.25 22.2969 7.53125 23 8 23.5156V19.5313ZM26 27.5V26.5156C26.9375 25.3438 27.5 23.8906 27.5 22.25C27.5 20.2813 26.6094 18.4531 25.2031 17.2344C26.0469 16.625 27.125 16.25 28.25 16.25H29.75C32.6094 16.25 35 18.6406 35 21.5C35 23.6094 33.7344 25.4375 32 26.2813V27.5C32 28.3438 31.2969 29 30.5 29H27.5C26.6562 29 26 28.3438 26 27.5ZM32 23.5156C32.4219 23 32.75 22.2969 32.75 21.5C32.75 20.75 32.4219 20.0469 32 19.5313V23.5156ZM31.625 12.125C31.625 13.5781 30.4062 14.75 29 14.75C27.5469 14.75 26.375 13.5781 26.375 12.125C26.375 10.7188 27.5469 9.5 29 9.5C30.4062 9.5 31.625 10.7188 31.625 12.125ZM17 12.5C17 10.8594 18.3125 9.5 20 9.5C21.6406 9.5 23 10.8594 23 12.5C23 14.1875 21.6406 15.5 20 15.5C18.3125 15.5 17 14.1875 17 12.5ZM26 22.25C26 24.3594 24.7344 26.1875 23 27.0313V29C23 29.8438 22.2969 30.5 21.5 30.5H18.5C17.6562 30.5 17 29.8438 17 29V27.0313C15.2188 26.1875 14 24.3594 14 22.25C14 19.3906 16.3438 17 19.25 17H20.75C23.6094 17 26 19.3906 26 22.25ZM17 24.2656V20.2813C16.5312 20.7969 16.25 21.5 16.25 22.25C16.25 23.0469 16.5312 23.75 17 24.2656ZM23 20.2813V24.2656C23.4219 23.7031 23.75 23.0469 23.75 22.25C23.75 21.5 23.4219 20.7969 23 20.2813Z" fill="#1C5DAA"/>
</svg>
