<svg width="40" height="40" viewBox="0 0 40 40" fill="none" xmlns="http://www.w3.org/2000/svg">
<rect width="40" height="40" rx="8" fill="white"/>
<path fill-rule="evenodd" clip-rule="evenodd" d="M35.9995 10.9815C35.9995 8.16922 33.7209 5.89062 30.9086 5.89062C28.0963 5.89062 25.8177 8.16922 25.8177 10.9815C25.8177 11.6174 25.9342 12.2259 26.147 12.787C24.5697 11.2219 22.3978 10.2552 19.9994 10.2552C17.0778 10.2552 14.4922 11.6897 12.9083 13.893H12.5455V12.2566C12.5455 10.3703 10.9773 8.80208 9.09091 8.80208C7.18182 8.80208 5.63636 10.3703 5.63636 12.2566V13.893H5.09091C4.47727 13.893 4 14.393 4 14.9839V19.3475C4 19.9612 4.47727 20.4384 5.09091 20.4384H11.393C11.8544 23.1877 13.6004 25.5003 15.9931 26.7384C15.7391 27.0235 15.6077 27.4067 15.6749 27.8098C15.7658 28.4643 16.4479 28.8734 17.1755 28.8734H20.7224C21.1317 28.8734 21.45 29.2007 21.45 29.5279C21.45 29.8961 21.1317 30.1825 20.7224 30.1825H15.3566C14.7199 30.1825 14.0378 30.0188 13.5376 29.6098L9.35409 26.6234C8.76294 26.2143 7.94442 26.1734 7.39874 26.6234C6.71664 27.1552 6.76211 28.0961 7.44421 28.587L14.3561 33.537C14.8564 33.9461 15.493 34.1098 16.1751 34.1098H32.3636C32.7728 34.1098 33.0911 33.8234 33.0911 33.4552V29.5279C33.0911 29.2007 32.7728 28.8734 32.3636 28.8734H29.8625L27.7708 27.3598C26.93 26.7474 25.8777 26.3571 24.8001 26.2725C27.166 24.7117 28.7267 22.0299 28.7267 18.9825C28.7267 17.54 28.377 16.1795 27.7578 14.9809C28.6244 15.6646 29.7187 16.0724 30.9086 16.0724C33.7209 16.0724 35.9995 13.7939 35.9995 10.9815ZM22.2196 26.2552C25.3295 25.3096 27.6006 22.427 27.6006 18.9825C27.6006 14.7948 24.1871 11.3813 19.9994 11.3813C17.5335 11.3813 15.3556 12.5452 13.9702 14.3476C14.1027 14.5281 14.1818 14.7488 14.1818 14.9839V19.3475C14.1818 19.9612 13.6818 20.4384 13.0909 20.4384H12.5353C13.0671 23.2208 15.0975 25.4464 17.7663 26.2552H22.2196ZM32.4072 13.0343C32.3456 13.137 32.1813 13.1575 32.0787 13.0959L30.2517 11.7616C30.1901 11.7205 30.1696 11.659 30.1696 11.5768V8.10763C30.1696 7.98447 30.2723 7.8613 30.4159 7.8613H31.4013C31.5245 7.8613 31.6476 7.98447 31.6476 8.10763V10.9405L32.9409 11.8848C33.0435 11.9669 33.0846 12.1311 33.0025 12.2337L32.4072 13.0343ZM22.9554 20.8476C22.9554 19.8974 22.322 19.0529 21.407 18.8065L18.8733 18.1027C18.451 17.9971 18.1343 17.61 18.1343 17.1526C18.1343 16.6247 18.5918 16.1672 19.1548 16.1672H20.7384C21.1255 16.1672 21.5126 16.308 21.7941 16.5543C21.9349 16.6247 22.0757 16.6247 22.1812 16.5191L22.5683 16.0968C22.6739 15.9913 22.6739 15.7801 22.5331 15.6746C22.0405 15.2875 21.407 15.0411 20.7384 15.0411H20.5625V13.6335C20.5625 13.4927 20.4217 13.352 20.2809 13.352H19.7179C19.5419 13.352 19.4364 13.4927 19.4364 13.6335V15.0411H19.1548C17.9584 15.0411 17.0082 15.9913 17.0082 17.1526C17.0082 18.1027 17.6416 18.9121 18.5566 19.1936L21.0903 19.8974C21.5126 20.003 21.8293 20.3901 21.8293 20.8476C21.8293 21.3754 21.3718 21.7977 20.8088 21.7977H19.2252C18.8381 21.7977 18.451 21.6922 18.1695 21.4458C18.0287 21.3754 17.888 21.3754 17.7824 21.481L17.3953 21.9033C17.2897 22.0089 17.2897 22.22 17.4305 22.3256C17.9232 22.7127 18.5566 22.9238 19.2252 22.9238H19.4364V24.3315C19.4364 24.5074 19.5419 24.613 19.7179 24.613H20.2809C20.4217 24.613 20.5625 24.5074 20.5625 24.3315V22.9238H20.8088C22.0053 22.9238 22.9554 22.0089 22.9554 20.8476ZM10 17.7112V16.6203C10 16.1203 9.59091 15.7112 9.09091 15.7112C8.56818 15.7112 8.18182 16.1203 8.18182 16.6203V17.7112C8.18182 18.2339 8.56818 18.6203 9.09091 18.6203C9.59091 18.6203 10 18.2339 10 17.7112ZM10.7273 13.893V12.2566C10.7273 11.3703 9.97727 10.6203 9.09091 10.6203C8.18182 10.6203 7.45455 11.3703 7.45455 12.2566V13.893H10.7273Z" fill="#1C5DAA"/>
</svg>
