<svg width="1440" height="900" viewBox="0 0 1440 900" fill="none" xmlns="http://www.w3.org/2000/svg">
<g style="mix-blend-mode:screen" opacity="0.1">
<path d="M385.927 334.754V339.207H378.949V361.881H373.518V339.207H366.54V334.754H385.915H385.927Z" fill="white"/>
<path d="M390.19 334.759H408.017V339.212H395.621V346.191H403.957V350.644H395.621V357.42H408.22V361.873H390.203V334.746L390.19 334.759Z" fill="white"/>
<path d="M414.996 361.881H409.375L418.092 334.754H424.867L433.584 361.881H427.963L426.225 356.45H416.734L414.996 361.881ZM421.581 341.923H421.391L418.295 351.807H424.689L421.594 341.923H421.581Z" fill="white"/>
<path d="M447.933 358.003L443.29 345.214H443.099L441.551 361.873H435.931L438.456 334.746H444.457L449.887 349.667H450.078L455.508 334.746H461.51L464.035 361.873H458.414L456.866 345.214H456.676L452.019 358.003H447.946H447.933Z" fill="white"/>
<path d="M490.755 352.961H490.945L494.815 334.754H500.626L494.815 361.881H487.646L483.967 343.674H483.777L480.097 361.881H472.928L467.117 334.754H472.738L476.811 352.961H477.001L480.681 334.754H487.075L490.755 352.961Z" fill="white"/>
<path d="M514.977 362.655C508.392 362.655 503.164 357.428 503.164 348.318C503.164 339.208 508.392 333.98 514.977 333.98C521.562 333.98 526.789 339.208 526.789 348.318C526.789 357.428 521.562 362.655 514.977 362.655ZM514.977 338.624C511.678 338.624 508.772 341.53 508.772 348.318C508.772 355.106 511.678 358.012 514.977 358.012C518.275 358.012 521.181 355.106 521.181 348.318C521.181 341.53 518.275 338.624 514.977 338.624Z" fill="white"/>
<path d="M541.914 334.759C547.916 334.759 551.405 338.248 551.405 343.666C551.405 349.667 547.142 351.418 547.142 351.418V351.608L553.346 361.873H547.345L541.914 352.573H537.461V361.873H532.03V334.746H541.914V334.759ZM537.448 348.132H541.902C544.033 348.132 545.771 346.394 545.771 343.678C545.771 340.963 544.033 339.225 541.902 339.225H537.448V348.132Z" fill="white"/>
<path d="M562.836 361.881H557.405V334.754H562.836V346.96H563.064L571.743 334.754H577.744L569.611 346.186L578.328 361.881H572.517L566.312 350.639L562.823 355.486V361.881H562.836Z" fill="white"/>
<path d="M67.1523 675.863V682.106H57.3699V713.889H49.7698V682.106H40V675.863H67.165H67.1523Z" fill="white"/>
<path d="M73.1289 675.86H98.1243V682.103H80.7417V691.885H92.4273V698.128H80.7417V707.631H98.3907V713.874H73.1289V675.848V675.86Z" fill="white"/>
<path d="M107.906 713.889H100.026L112.245 675.863H121.748L133.967 713.889H126.088L123.639 706.289H110.329L107.88 713.889H107.906ZM117.142 685.912H116.876L112.524 699.767H121.482L117.13 685.912H117.142Z" fill="white"/>
<path d="M154.077 708.459L147.556 690.531H147.289L145.119 713.889H137.24L140.767 675.863H149.192L156.792 696.773H157.059L164.659 675.863H173.084L176.611 713.889H168.732L166.562 690.531H166.296L159.774 708.459H154.065H154.077Z" fill="white"/>
<path d="M214.104 701.392H214.37L219.801 675.863H227.947L219.801 713.889H209.752L204.588 688.361H204.321L199.157 713.889H189.109L180.963 675.863H188.842L194.552 701.392H194.818L199.982 675.863H208.94L214.104 701.392Z" fill="white"/>
<path d="M248.071 714.977C238.834 714.977 231.5 707.643 231.5 694.879C231.5 682.115 238.834 674.781 248.071 674.781C257.307 674.781 264.641 682.115 264.641 694.879C264.641 707.643 257.307 714.977 248.071 714.977ZM248.071 681.29C243.452 681.29 239.379 685.363 239.379 694.866C239.379 704.37 243.452 708.443 248.071 708.443C252.689 708.443 256.762 704.37 256.762 694.866C256.762 685.363 252.689 681.29 248.071 681.29Z" fill="white"/>
<path d="M285.817 675.863C294.242 675.863 299.127 680.748 299.127 688.361C299.127 696.786 293.151 699.222 293.151 699.222V699.488L301.842 713.889H293.417L285.817 700.846H279.575V713.889H271.975V675.863H285.83H285.817ZM279.575 694.603H285.817C288.799 694.603 291.248 692.155 291.248 688.361C291.248 684.567 288.799 682.118 285.817 682.118H279.575V694.616V694.603Z" fill="white"/>
<path d="M315.165 713.889H307.564V675.863H315.165V692.979H315.494L327.662 675.863H336.087L324.681 691.888L336.899 713.889H328.753L320.062 698.131L315.177 704.919V713.877L315.165 713.889Z" fill="white"/>
<path d="M54.2617 508.27H68.4342C76.9352 508.27 81.1856 512.52 81.1856 519.042C81.1856 525.563 75.8059 526.807 75.8059 526.807V527.149C75.8059 527.149 83.4568 528.685 83.4568 536.615C83.4568 543.415 78.9272 547.945 70.1344 547.945H54.2617V508.27ZM72.9638 519.6C72.9638 516.479 71.2636 514.778 68.4342 514.778H62.2044V524.409H68.4342C71.2636 524.409 72.9638 522.708 72.9638 519.587V519.6ZM62.1917 530.943V541.423H70.1217C73.243 541.423 75.2223 539.444 75.2223 536.323C75.2223 532.922 73.243 530.943 70.1217 530.943H62.1917Z" fill="white"/>
<path d="M98.1868 535.193C98.1868 539.723 100.737 542.273 105.267 542.273C109.796 542.273 112.347 539.723 112.347 535.193V508.27H120.277V535.193C120.277 543.123 114.326 549.074 105.254 549.074C96.1821 549.074 90.2314 543.123 90.2314 535.193V508.27H98.1614V535.193H98.1868Z" fill="white"/>
<path d="M154.294 536.323C154.294 543.403 148.622 549.074 138.992 549.074C130.77 549.074 126.52 543.974 126.52 543.974L129.92 538.594C129.92 538.594 133.041 542.274 138.421 542.274C143.521 542.274 146.072 539.723 146.072 536.323C146.072 529.243 128.22 532.923 128.22 519.042C128.22 512.52 133.599 507.141 141.821 507.141C150.043 507.141 153.443 511.67 153.443 511.67L150.322 517.05C150.322 517.05 147.201 513.929 142.392 513.929C138.713 513.929 136.442 516.2 136.442 519.029C136.442 526.401 154.294 523.001 154.294 536.31V536.323Z" fill="white"/>
<path d="M169.316 547.945H161.386V508.27H169.316V547.945Z" fill="white"/>
<path d="M201.619 532.643V508.27H209.549V547.945H201.162L187.726 523.571H187.447V547.945H179.517V508.27H187.903L201.34 532.643H201.619Z" fill="white"/>
<path d="M219.752 508.27H245.826V514.791H227.695V524.992H239.875V531.514H227.695V541.436H246.118V547.958H219.765V508.282L219.752 508.27Z" fill="white"/>
<path d="M277.001 536.323C277.001 543.403 271.329 549.074 261.699 549.074C253.477 549.074 249.227 543.974 249.227 543.974L252.627 538.594C252.627 538.594 255.748 542.274 261.128 542.274C266.228 542.274 268.779 539.723 268.779 536.323C268.779 529.243 250.927 532.923 250.927 519.042C250.927 512.52 256.306 507.141 264.528 507.141C272.75 507.141 276.15 511.67 276.15 511.67L273.029 517.05C273.029 517.05 269.908 513.929 265.099 513.929C261.42 513.929 259.149 516.2 259.149 519.029C259.149 526.401 277.001 523.001 277.001 536.31V536.323Z" fill="white"/>
<path d="M308.174 536.323C308.174 543.403 302.503 549.074 292.873 549.074C284.651 549.074 280.4 543.974 280.4 543.974L283.801 538.594C283.801 538.594 286.922 542.274 292.302 542.274C297.402 542.274 299.953 539.723 299.953 536.323C299.953 529.243 282.101 532.923 282.101 519.042C282.101 512.52 287.48 507.141 295.702 507.141C303.924 507.141 307.324 511.67 307.324 511.67L304.203 517.05C304.203 517.05 301.082 513.929 296.273 513.929C292.594 513.929 290.322 516.2 290.322 519.029C290.322 526.401 308.174 523.001 308.174 536.31V536.323Z" fill="white"/>
<path d="M228.569 383.324H258.348V390.772H237.629V402.42H251.547V409.868H237.629V421.198H258.665V428.646H228.557V383.324H228.569Z" fill="white"/>
<path d="M284.573 422.159L276.808 400.793H276.491L273.903 428.63H264.514L268.726 383.309H278.762L287.822 408.241H288.139L297.198 383.309H307.234L311.447 428.63H302.057L299.469 400.793H299.152L291.387 422.159H284.586H284.573Z" fill="white"/>
<path d="M330.214 428.63H321.154V383.309H337.661C348.015 383.309 354.168 389.462 354.168 398.851C354.168 408.241 348.015 414.394 337.661 414.394H330.214V428.643V428.63ZM330.214 390.756V406.946H337.661C341.544 406.946 344.779 403.711 344.779 398.851C344.779 393.992 341.544 390.756 337.661 390.756H330.214Z" fill="white"/>
<path d="M362.264 383.324H371.323V421.198H390.418V428.646H362.251V383.324H362.264Z" fill="white"/>
<path d="M414.385 429.925C403.385 429.925 394.643 421.183 394.643 405.971C394.643 390.758 403.385 382.016 414.385 382.016C425.386 382.016 434.128 390.758 434.128 405.971C434.128 421.183 425.386 429.925 414.385 429.925ZM414.385 389.793C408.879 389.793 404.032 394.653 404.032 405.983C404.032 417.314 408.891 422.173 414.385 422.173C419.879 422.173 424.739 417.314 424.739 405.983C424.739 394.653 419.879 389.793 414.385 389.793Z" fill="white"/>
<path d="M465.213 383.324H474.602L460.354 414.397V428.646H451.295V414.397L437.046 383.324H446.435L455.634 403.397H456.027L465.226 383.324H465.213Z" fill="white"/>
<path d="M480.426 383.324H510.204V390.772H489.485V402.42H503.404V409.868H489.485V421.198H510.522V428.646H480.413V383.324H480.426Z" fill="white"/>
<path d="M518.3 383.324H548.079V390.772H527.359V402.42H541.278V409.868H527.359V421.198H548.396V428.646H518.287V383.324H518.3Z" fill="white"/>
<path d="M846.043 390.172C852.044 390.172 855.166 393.293 855.166 393.293L852.285 397.848C852.285 397.848 850.129 395.932 846.525 395.932C841.488 395.932 837.885 399.536 837.885 407.935C837.885 416.335 841.488 419.938 846.525 419.938C850.611 419.938 852.768 417.54 852.768 417.54L855.648 422.095C855.648 422.095 852.286 425.698 846.043 425.698C837.402 425.698 830.919 419.215 830.919 407.935C830.919 396.655 837.402 390.172 846.043 390.172Z" fill="white"/>
<path d="M873.399 425.683C865.24 425.683 858.757 419.199 858.757 407.919C858.757 396.64 865.24 390.156 873.399 390.156C881.557 390.156 888.041 396.64 888.041 407.919C888.041 419.199 881.557 425.683 873.399 425.683ZM873.399 395.929C869.313 395.929 865.723 399.533 865.723 407.932C865.723 416.332 869.326 419.935 873.399 419.935C877.472 419.935 881.075 416.332 881.075 407.932C881.075 399.533 877.472 395.929 873.399 395.929Z" fill="white"/>
<path d="M906.767 391.133C914.202 391.133 918.529 395.447 918.529 402.171C918.529 409.607 913.251 411.776 913.251 411.776V412.017L920.927 424.731H913.492L906.767 413.21H901.248V424.731H894.523V391.133H906.767ZM901.248 407.691H906.767C909.406 407.691 911.563 405.534 911.563 402.171C911.563 398.809 909.406 396.652 906.767 396.652H901.248V407.691Z" fill="white"/>
<path d="M932.689 424.731H925.965V391.133H938.209C945.885 391.133 950.453 395.688 950.453 402.654C950.453 409.619 945.898 414.174 938.209 414.174H932.689V424.731ZM932.689 396.652V408.655H938.209C941.089 408.655 943.487 406.257 943.487 402.654C943.487 399.05 941.089 396.652 938.209 396.652H932.689Z" fill="white"/>
<path d="M968.926 425.683C960.768 425.683 954.284 419.199 954.284 407.919C954.284 396.64 960.768 390.156 968.926 390.156C977.084 390.156 983.568 396.64 983.568 407.919C983.568 419.199 977.084 425.683 968.926 425.683ZM968.926 395.929C964.841 395.929 961.25 399.533 961.25 407.932C961.25 416.332 964.853 419.935 968.926 419.935C972.999 419.935 976.602 416.332 976.602 407.932C976.602 399.533 972.999 395.929 968.926 395.929Z" fill="white"/>
<path d="M1002.28 391.133C1009.72 391.133 1014.04 395.447 1014.04 402.171C1014.04 409.607 1008.77 411.776 1008.77 411.776V412.017L1016.44 424.731H1009.01L1002.28 413.21H996.764V424.731H990.039V391.133H1002.28ZM996.764 407.691H1002.28C1004.92 407.691 1007.08 405.534 1007.08 402.171C1007.08 398.809 1004.92 396.652 1002.28 396.652H996.764V407.691Z" fill="white"/>
<path d="M1024.13 424.731H1017.17L1027.96 391.133H1036.36L1047.16 424.731H1040.19L1038.04 418.006H1026.28L1024.12 424.731H1024.13ZM1032.29 400.014H1032.05L1028.2 412.258H1036.12L1032.28 400.014H1032.29Z" fill="white"/>
<path d="M1072.13 391.133V396.652H1063.49V424.731H1056.77V396.652H1048.12V391.133H1072.12H1072.13Z" fill="white"/>
<path d="M1084.12 424.731H1077.4V391.133H1084.12V424.731Z" fill="white"/>
<path d="M1105.25 425.683C1097.09 425.683 1090.6 419.199 1090.6 407.919C1090.6 396.64 1097.09 390.156 1105.25 390.156C1113.4 390.156 1119.89 396.64 1119.89 407.919C1119.89 419.199 1113.4 425.683 1105.25 425.683ZM1105.25 395.929C1101.16 395.929 1097.57 399.533 1097.57 407.932C1097.57 416.332 1101.17 419.935 1105.25 419.935C1109.32 419.935 1112.92 416.332 1112.92 407.932C1112.92 399.533 1109.32 395.929 1105.25 395.929Z" fill="white"/>
<path d="M1145.09 411.764V391.121H1151.81V424.719H1144.71L1133.33 404.076H1133.08V424.719H1126.36V391.121H1133.46L1144.85 411.764H1145.09Z" fill="white"/>
<path d="M120.961 313.813C130.858 313.813 135.996 318.952 135.996 318.952L131.251 326.476C131.251 326.476 127.686 323.304 121.748 323.304C113.437 323.304 107.499 329.242 107.499 343.085C107.499 356.927 113.437 362.865 121.748 362.865C124.514 362.865 126.886 362.079 126.886 362.079V347.83H119.363V338.733H137.963V366.037C137.963 366.037 131.632 372.369 120.949 372.369C106.7 372.369 96.0166 361.685 96.0166 343.085C96.0166 324.484 106.7 313.801 120.949 313.801L120.961 313.813Z" fill="white"/>
<path d="M170.433 315.402C182.702 315.402 189.82 322.52 189.82 333.61C189.82 345.879 181.116 349.432 181.116 349.432V349.825L193.779 370.798H181.509L170.433 351.804H161.335V370.798H150.259V315.402H170.445H170.433ZM161.323 342.707H170.42C174.772 342.707 178.337 339.142 178.337 333.61C178.337 328.078 174.772 324.512 170.42 324.512H161.323V342.72V342.707Z" fill="white"/>
<path d="M222.668 372.384C209.218 372.384 198.535 361.701 198.535 343.1C198.535 324.5 209.218 313.816 222.668 313.816C236.117 313.816 246.8 324.5 246.8 343.1C246.8 361.701 236.117 372.384 222.668 372.384ZM222.668 323.32C215.943 323.32 210.005 329.258 210.005 343.1C210.005 356.943 215.943 362.881 222.668 362.881C229.392 362.881 235.33 356.943 235.33 343.1C235.33 329.258 229.392 323.32 222.668 323.32Z" fill="white"/>
<path d="M268.18 352.997C268.18 359.328 271.745 362.894 278.077 362.894C284.408 362.894 287.973 359.328 287.973 352.997V315.402H299.05V352.997C299.05 364.074 290.739 372.384 278.077 372.384C265.414 372.384 257.104 364.074 257.104 352.997V315.402H268.18V352.997Z" fill="white"/>
<path d="M323.969 370.806H312.893V315.41H333.079C345.742 315.41 353.266 322.934 353.266 334.404C353.266 345.874 345.742 353.398 333.079 353.398H323.982V370.806H323.969ZM323.969 324.507V344.288H333.067C337.812 344.288 341.77 340.329 341.77 334.391C341.77 328.453 337.812 324.495 333.067 324.495H323.969V324.507Z" fill="white"/>
<path d="M896.273 710.506H887.785V668.09H896.273V710.506Z" fill="white"/>
<path d="M920.825 710.506H907.186V668.09H920.825C931.432 668.09 939.312 675.969 939.312 689.304C939.312 702.639 931.432 710.519 920.825 710.519V710.506ZM915.674 675.056V703.54H920.825C926.281 703.54 930.519 699.302 930.519 689.304C930.519 679.306 926.281 675.068 920.825 675.068H915.674V675.056Z" fill="white"/>
<path d="M947.494 668.09H975.37V675.056H955.982V685.967H969.013V692.933H955.982V703.54H975.674V710.506H947.494V668.09Z" fill="white"/>
<path d="M986.283 710.506H977.49L991.13 668.09H1001.74L1015.38 710.506H1006.58L1003.86 702.018H989.011L986.283 710.506ZM996.586 679.306H996.281L991.434 694.76H1001.43L996.586 679.306Z" fill="white"/>
<path d="M1046.58 698.088C1046.58 705.663 1040.51 711.728 1030.21 711.728C1021.42 711.728 1016.87 706.272 1016.87 706.272L1020.52 700.512C1020.52 700.512 1023.85 704.445 1029.6 704.445C1035.06 704.445 1037.78 701.717 1037.78 698.076C1037.78 690.501 1018.69 694.434 1018.69 679.589C1018.69 672.624 1024.45 666.863 1033.23 666.863C1042.01 666.863 1045.65 671.71 1045.65 671.71L1042.31 677.47C1042.31 677.47 1038.98 674.133 1033.83 674.133C1029.89 674.133 1027.46 676.557 1027.46 679.589C1027.46 687.469 1046.55 683.827 1046.55 698.076L1046.58 698.088Z" fill="white"/>
<path d="M641.461 435.142C651.498 435.142 659.529 443.173 659.529 456.825C659.529 468.473 652.297 474.5 652.297 474.5L644.672 469.678C644.672 469.678 649.886 465.263 649.886 457.625C649.886 450.393 646.27 446.776 641.449 446.776C631.413 446.776 636.627 472.076 616.948 472.076C607.711 472.076 600.073 464.451 600.073 452.803C600.073 441.156 606.493 436.334 606.493 436.334L614.119 440.75C614.119 440.75 609.703 445.165 609.703 451.991C609.703 457.206 612.913 460.429 616.936 460.429C627.378 460.429 622.556 435.129 641.436 435.129L641.461 435.142Z" fill="white"/>
<path d="M657.931 420.695V432.342L601.698 414.274V400.216L657.931 382.148V393.796L646.69 397.412V417.091L657.931 420.707V420.695ZM616.556 407.03V407.436L637.034 413.856V400.597L616.556 407.017V407.03Z" fill="white"/>
<path d="M601.698 374.9V363.658H648.695V339.957H657.931V374.9H601.698Z" fill="white"/>
<path d="M601.698 331.115V294.168H610.935V319.874H625.399V302.605H634.636V319.874H648.695V293.762H657.931V331.115H601.698Z" fill="white"/>
<path d="M641.461 249.985C651.498 249.985 659.529 258.017 659.529 271.669C659.529 283.317 652.297 289.344 652.297 289.344L644.672 284.522C644.672 284.522 649.886 280.107 649.886 272.468C649.886 265.236 646.27 261.62 641.449 261.62C631.413 261.62 636.627 286.92 616.948 286.92C607.711 286.92 600.073 279.295 600.073 267.647C600.073 255.999 606.493 251.178 606.493 251.178L614.119 255.593C614.119 255.593 609.703 260.009 609.703 266.835C609.703 272.05 612.913 275.273 616.936 275.273C627.378 275.273 622.556 249.973 641.436 249.973L641.461 249.985Z" fill="white"/>
<path d="M689.246 426.825H681.354V387.391H695.717C704.726 387.391 710.08 392.745 710.08 400.916C710.08 409.087 704.726 414.441 695.717 414.441H689.234V426.838L689.246 426.825ZM689.246 393.861V407.945H695.73C699.105 407.945 701.922 405.128 701.922 400.903C701.922 396.678 699.105 393.861 695.73 393.861H689.246Z" fill="white"/>
<path d="M717.134 387.375H725.026V420.338H741.647V426.822H717.134V387.388V387.375Z" fill="white"/>
<path d="M750.947 426.825H742.776L755.452 387.391H765.31L777.986 426.825H769.814L767.277 418.933H753.472L750.935 426.825H750.947ZM760.527 397.807H760.248L755.744 412.17H765.044L760.54 397.807H760.527Z" fill="white"/>
<path d="M805.037 411.612V387.391H812.929V426.825H804.593L791.245 402.604H790.966V426.825H783.074V387.391H791.41L804.758 411.612H805.037Z" fill="white"/>
<path d="M902.859 320.004H913.137V362.978H934.808V371.428H902.859V320.017V320.004Z" fill="white"/>
<path d="M942.89 320.004H976.678V328.454H953.167V341.675H968.963V350.125H953.167V362.978H977.033V371.428H942.877V320.017L942.89 320.004Z" fill="white"/>
<path d="M989.898 371.416H979.253L995.785 320.004H1008.64L1025.17 371.416H1014.53L1011.21 361.138H993.222L989.911 371.416H989.898ZM1002.38 333.593H1002.02L996.141 352.32H1008.26L1002.38 333.593Z" fill="white"/>
<path d="M1048.29 371.416H1031.76V320.004H1048.29C1061.14 320.004 1070.7 329.558 1070.7 345.71C1070.7 361.862 1061.14 371.416 1048.29 371.416ZM1042.05 328.454V362.978H1048.29C1054.9 362.978 1060.04 357.84 1060.04 345.722C1060.04 333.605 1054.9 328.467 1048.29 328.467H1042.05V328.454Z" fill="white"/>
<path d="M1080.62 320.004H1114.41V328.454H1090.9V341.675H1106.69V350.125H1090.9V362.978H1114.76V371.428H1080.61V320.017L1080.62 320.004Z" fill="white"/>
<path d="M1142.32 320.004C1153.7 320.004 1160.31 326.614 1160.31 336.892C1160.31 348.273 1152.23 351.584 1152.23 351.584V351.952L1163.98 371.416H1152.6L1142.32 353.792H1133.87V371.416H1123.59V320.004H1142.32ZM1133.87 345.342H1142.32C1146.35 345.342 1149.67 342.03 1149.67 336.892C1149.67 331.753 1146.35 328.441 1142.32 328.441H1133.87V345.342Z" fill="white"/>
<path d="M1202.92 356.355C1202.92 365.541 1195.57 372.888 1183.09 372.888C1172.44 372.888 1166.92 366.277 1166.92 366.277L1171.33 359.299C1171.33 359.299 1175.36 364.069 1182.34 364.069C1188.95 364.069 1192.26 360.758 1192.26 356.355C1192.26 347.169 1169.12 351.952 1169.12 333.948C1169.12 325.498 1176.1 318.52 1186.74 318.52C1197.39 318.52 1201.8 324.394 1201.8 324.394L1197.77 331.372C1197.77 331.372 1193.73 327.338 1187.49 327.338C1182.72 327.338 1179.78 330.281 1179.78 333.948C1179.78 343.502 1202.92 339.087 1202.92 356.355Z" fill="white"/>
<path d="M1250.66 320.004V371.416H1240.39V350.113H1222.39V371.416H1212.12V320.004H1222.39V341.675H1240.39V320.004H1250.66Z" fill="white"/>
<path d="M1274.17 371.416H1263.9V320.004H1274.17V371.416Z" fill="white"/>
<path d="M1297.67 371.416H1287.39V320.004H1306.12C1317.87 320.004 1324.85 326.982 1324.85 337.628C1324.85 348.273 1317.87 355.251 1306.12 355.251H1297.67V371.416ZM1297.67 328.454V346.814H1306.12C1310.52 346.814 1314.2 343.147 1314.2 337.628C1314.2 332.108 1310.54 328.441 1306.12 328.441H1297.67V328.454Z" fill="white"/>
<path d="M1007.75 488.829L994.467 445.562H1003.74L1013.02 476.775H1013.32L1022.6 445.562H1031.87L1018.59 488.829H1007.78H1007.75Z" fill="white"/>
<path d="M1038.04 445.56H1066.47V452.665H1046.69V463.792H1059.98V470.897H1046.69V481.708H1066.78V488.813H1038.04V445.547V445.56Z" fill="white"/>
<path d="M1098.3 472.144V445.562H1106.96V488.829H1097.81L1083.17 462.247H1082.86V488.829H1074.21V445.562H1083.36L1098 472.144H1098.3Z" fill="white"/>
<path d="M1144.65 445.562V452.668H1133.53V488.829H1124.87V452.668H1113.75V445.562H1144.65Z" fill="white"/>
<path d="M1159.8 474.923C1159.8 479.871 1162.58 482.65 1167.53 482.65C1172.48 482.65 1175.26 479.871 1175.26 474.923V445.562H1183.91V474.923C1183.91 483.576 1177.42 490.059 1167.53 490.059C1157.65 490.059 1151.15 483.576 1151.15 474.923V445.562H1159.8V474.923Z" fill="white"/>
<path d="M1210.48 445.56C1220.06 445.56 1225.62 451.117 1225.62 459.77C1225.62 469.35 1218.82 472.128 1218.82 472.128V472.433L1228.7 488.813H1219.12L1210.47 473.981H1203.36V488.813H1194.71V445.547H1210.47L1210.48 445.56ZM1203.38 466.888H1210.48C1213.88 466.888 1216.66 464.109 1216.66 459.783C1216.66 455.456 1213.88 452.678 1210.48 452.678H1203.38V466.888Z" fill="white"/>
<path d="M1235.21 445.56H1263.64V452.665H1243.86V463.792H1257.15V470.897H1243.86V481.708H1263.95V488.813H1235.21V445.547V445.56Z" fill="white"/>
<path d="M1398.77 622.057L1355.5 635.342V626.067L1386.72 616.792V616.487L1355.5 607.212V597.938L1398.77 611.222V622.032V622.057Z" fill="white"/>
<path d="M1355.5 591.77V563.336H1362.61V583.116H1373.74V569.832H1380.84V583.116H1391.65V563.031H1398.76V591.77H1355.49H1355.5Z" fill="white"/>
<path d="M1382.08 531.516H1355.5V522.863H1398.77V532.011L1372.19 546.653V546.958H1398.77V555.611H1355.5V546.463L1382.08 531.821V531.516Z" fill="white"/>
<path d="M1355.5 485.168H1362.61V496.295H1398.77V504.949H1362.61V516.076H1355.5V485.168Z" fill="white"/>
<path d="M1384.86 470.013C1389.81 470.013 1392.59 467.235 1392.59 462.286C1392.59 457.338 1389.81 454.559 1384.86 454.559H1355.5V445.906H1384.86C1393.52 445.906 1400 452.402 1400 462.286C1400 472.17 1393.52 478.667 1384.86 478.667H1355.5V470.013H1384.86Z" fill="white"/>
<path d="M1355.5 419.333C1355.5 409.754 1361.06 404.196 1369.71 404.196C1379.29 404.196 1382.07 410.997 1382.07 410.997H1382.38L1398.76 401.113V410.693L1383.92 419.346V426.451H1398.76V435.104H1355.49V419.346L1355.5 419.333ZM1376.83 426.451V419.346C1376.83 415.946 1374.05 413.167 1369.73 413.167C1365.4 413.167 1362.62 415.946 1362.62 419.346V426.451H1376.83Z" fill="white"/>
<path d="M1355.5 394.613V366.18H1362.61V385.96H1373.74V372.676H1380.84V385.96H1391.65V365.875H1398.76V394.613H1355.49H1355.5Z" fill="white"/>
<path d="M827.01 482.47H821.148V453.148H831.832C838.531 453.148 842.515 457.132 842.515 463.197C842.515 469.262 838.531 473.246 831.832 473.246H827.01V482.458V482.47ZM827.01 457.97V468.437H831.832C834.344 468.437 836.437 466.344 836.437 463.197C836.437 460.051 834.344 457.957 831.832 457.957H827.01V457.97Z" fill="white"/>
<path d="M847.742 453.148H867.003V457.97H853.604V465.507H862.612V470.328H853.604V477.662H867.218V482.483H847.742V453.161V453.148Z" fill="white"/>
<path d="M883.129 483.312C876.011 483.312 870.353 477.653 870.353 467.82C870.353 457.987 876.011 452.328 883.129 452.328C890.247 452.328 895.906 457.987 895.906 467.82C895.906 477.653 890.247 483.312 883.129 483.312ZM883.129 457.353C879.564 457.353 876.43 460.499 876.43 467.82C876.43 475.141 879.577 478.288 883.129 478.288C886.682 478.288 889.829 475.141 889.829 467.82C889.829 460.499 886.682 457.353 883.129 457.353Z" fill="white"/>
<path d="M907.414 482.47H901.552V453.148H912.235C918.934 453.148 922.918 457.132 922.918 463.197C922.918 469.262 918.934 473.246 912.235 473.246H907.414V482.458V482.47ZM907.414 457.97V468.437H912.235C914.747 468.437 916.841 466.344 916.841 463.197C916.841 460.051 914.747 457.957 912.235 457.957H907.414V457.97Z" fill="white"/>
<path d="M928.146 453.148H934.008V477.649H946.366V482.47H928.146V453.148Z" fill="white"/>
<path d="M950.973 453.148H970.233V457.97H956.835V465.507H965.843V470.328H956.835V477.662H970.449V482.483H950.973V453.161V453.148Z" fill="white"/>
<path d="M880.516 528.415H874.02V495.934H885.857C893.28 495.934 897.695 500.336 897.695 507.074C897.695 513.811 893.293 518.214 885.857 518.214H880.516V528.428V528.415ZM880.516 501.263V512.859H885.857C888.636 512.859 890.958 510.537 890.958 507.061C890.958 503.584 888.636 501.263 885.857 501.263H880.516Z" fill="white"/>
<path d="M915.332 495.934C922.526 495.934 926.7 500.108 926.7 506.604C926.7 513.798 921.6 515.892 921.6 515.892V516.12L929.022 528.415H921.828L915.332 517.275H909.99V528.415H903.494V495.934H915.332ZM909.99 511.946H915.332C917.882 511.946 919.976 509.852 919.976 506.604C919.976 503.356 917.882 501.263 915.332 501.263H909.99V511.933V511.946Z" fill="white"/>
<path d="M945.962 529.342C938.07 529.342 931.802 523.074 931.802 512.175C931.802 501.276 938.07 495.008 945.962 495.008C953.853 495.008 960.121 501.276 960.121 512.175C960.121 523.074 953.853 529.342 945.962 529.342ZM945.962 500.565C942.016 500.565 938.539 504.042 938.539 512.162C938.539 520.282 942.016 523.759 945.962 523.759C949.907 523.759 953.384 520.282 953.384 512.162C953.384 504.042 949.907 500.565 945.962 500.565Z" fill="white"/>
<path d="M966.375 495.934H987.729V501.275H972.884V511.07H982.857V516.361H972.884V528.428H966.388V495.946L966.375 495.934Z" fill="white"/>
<path d="M999.339 528.415H992.843V495.934H999.339V528.415Z" fill="white"/>
<path d="M1027.64 495.934V501.275H1019.3V528.428H1012.8V501.275H1004.45V495.934H1027.66H1027.64Z" fill="white"/>
<path d="M112.815 447.699C120.428 447.699 124.843 452.115 124.843 458.992C124.843 466.604 119.438 468.812 119.438 468.812V469.053L127.292 482.071H119.679L112.802 470.284H107.156V482.071H100.279V447.699H112.802H112.815ZM107.156 464.638H112.802C115.505 464.638 117.713 462.43 117.713 458.992C117.713 455.553 115.505 453.345 112.802 453.345H107.156V464.638Z" fill="white"/>
<path d="M132.456 447.699H155.041V453.345H139.333V462.189H149.889V467.835H139.333V476.425H155.294V482.071H132.456V447.699Z" fill="white"/>
<path d="M182.042 472.013C182.042 478.154 177.132 483.064 168.783 483.064C161.665 483.064 157.985 478.649 157.985 478.649L160.929 473.979C160.929 473.979 163.632 477.177 168.288 477.177C172.703 477.177 174.911 474.969 174.911 472.025C174.911 465.884 159.444 469.082 159.444 457.054C159.444 451.407 164.114 446.738 171.232 446.738C178.35 446.738 181.293 450.672 181.293 450.672L178.591 455.341C178.591 455.341 175.888 452.638 171.714 452.638C168.516 452.638 166.562 454.605 166.562 457.054C166.562 463.436 182.029 460.492 182.029 472.025L182.042 472.013Z" fill="white"/>
<path d="M195.059 482.071H188.182V447.699H200.705C208.559 447.699 213.228 452.368 213.228 459.486C213.228 466.604 208.559 471.274 200.705 471.274H195.059V482.071ZM195.059 453.345V465.615H200.705C203.648 465.615 206.11 463.166 206.11 459.474C206.11 455.781 203.648 453.333 200.705 453.333H195.059V453.345Z" fill="white"/>
<path d="M232.133 483.061C223.784 483.061 217.161 476.438 217.161 464.892C217.161 453.346 223.784 446.723 232.133 446.723C240.482 446.723 247.105 453.346 247.105 464.892C247.105 476.438 240.482 483.061 232.133 483.061ZM232.133 452.61C227.959 452.61 224.279 456.289 224.279 464.879C224.279 473.469 227.959 477.148 232.133 477.148C236.307 477.148 239.987 473.469 239.987 464.879C239.987 456.289 236.307 452.61 232.133 452.61Z" fill="white"/>
<path d="M272.886 468.812V447.699H279.763V482.071H272.493L260.858 460.958H260.617V482.071H253.74V447.699H261.01L272.645 468.812H272.886Z" fill="white"/>
<path d="M309.478 472.013C309.478 478.154 304.568 483.064 296.219 483.064C289.101 483.064 285.422 478.649 285.422 478.649L288.365 473.979C288.365 473.979 291.068 477.177 295.725 477.177C300.14 477.177 302.348 474.969 302.348 472.025C302.348 465.884 286.881 469.082 286.881 457.054C286.881 451.407 291.55 446.738 298.668 446.738C305.786 446.738 308.73 450.672 308.73 450.672L306.027 455.341C306.027 455.341 303.325 452.638 299.15 452.638C295.953 452.638 293.999 454.605 293.999 457.054C293.999 463.436 309.466 460.492 309.466 472.025L309.478 472.013Z" fill="white"/>
<path d="M322.484 482.071H315.607V447.699H322.484V482.071Z" fill="white"/>
<path d="M331.327 447.7H343.609C350.968 447.7 354.66 451.38 354.66 457.026C354.66 462.672 349.991 463.751 349.991 463.751V464.042C349.991 464.042 356.614 465.362 356.614 472.239C356.614 478.126 352.681 482.059 345.081 482.059H331.327V447.688V447.7ZM347.53 457.521C347.53 454.818 346.058 453.346 343.596 453.346H338.191V461.695H343.596C346.058 461.695 347.53 460.223 347.53 457.521ZM338.204 467.341V476.426H345.081C347.783 476.426 349.496 474.713 349.496 472.01C349.496 469.067 347.783 467.341 345.081 467.341H338.204Z" fill="white"/>
<path d="M369.633 482.071H362.756V447.699H369.633V482.071Z" fill="white"/>
<path d="M378.464 447.699H385.341V476.425H399.83V482.071H378.477V447.699H378.464Z" fill="white"/>
<path d="M412.1 482.071H405.223V447.699H412.1V482.071Z" fill="white"/>
<path d="M442.056 447.699V453.345H433.213V482.071H426.336V453.345H417.492V447.699H442.043H442.056Z" fill="white"/>
<path d="M464.4 447.699H471.518L460.72 471.274V482.071H453.843V471.274L443.046 447.699H450.164L457.142 462.925H457.434L464.412 447.699H464.4Z" fill="white"/>
<path d="M690.412 313.927C696.819 313.927 700.143 317.251 700.143 317.251L697.073 322.111C697.073 322.111 694.764 320.068 690.932 320.068C685.552 320.068 681.708 323.912 681.708 332.87C681.708 341.828 685.552 345.672 690.932 345.672C695.284 345.672 697.593 343.109 697.593 343.109L700.663 347.969C700.663 347.969 697.073 351.813 690.424 351.813C681.2 351.813 674.285 344.898 674.285 332.87C674.285 320.842 681.2 313.914 690.424 313.914L690.412 313.927Z" fill="white"/>
<path d="M713.199 339.28C713.199 343.378 715.508 345.687 719.606 345.687C723.705 345.687 726.014 343.378 726.014 339.28V314.957H733.183V339.28C733.183 346.449 727.803 351.828 719.606 351.828C711.41 351.828 706.03 346.449 706.03 339.28V314.957H713.199V339.28Z" fill="white"/>
<path d="M742.141 314.954H749.309V344.91H764.421V350.798H742.141V314.941V314.954Z" fill="white"/>
<path d="M792.066 314.957V320.844H782.842V350.801H775.673V320.844H766.449V314.957H792.054H792.066Z" fill="white"/>
<path d="M804.617 339.28C804.617 343.378 806.926 345.687 811.024 345.687C815.123 345.687 817.432 343.378 817.432 339.28V314.957H824.601V339.28C824.601 346.449 819.221 351.828 811.024 351.828C802.828 351.828 797.448 346.449 797.448 339.28V314.957H804.617V339.28Z" fill="white"/>
<path d="M846.614 314.954C854.556 314.954 859.162 319.56 859.162 326.729C859.162 334.671 853.529 336.968 853.529 336.968V337.222L861.725 350.798H853.782L846.614 338.503H840.726V350.798H833.558V314.941H846.614V314.954ZM840.726 332.616H846.614C849.43 332.616 851.739 330.307 851.739 326.729C851.739 323.151 849.43 320.841 846.614 320.841H840.726V332.616Z" fill="white"/>
<path d="M867.104 314.954H890.666V320.841H874.273V330.065H885.286V335.953H874.273V344.91H890.92V350.798H867.104V314.941V314.954Z" fill="white"/>
<path d="M1084.92 541.792C1078.35 541.792 1073.12 536.565 1073.12 527.48C1073.12 518.395 1078.35 513.168 1084.92 513.168C1091.49 513.168 1096.72 518.395 1096.72 527.48C1096.72 536.565 1091.49 541.792 1084.92 541.792ZM1084.92 517.812C1081.63 517.812 1078.73 520.717 1078.73 527.48C1078.73 534.243 1081.63 537.148 1084.92 537.148C1088.21 537.148 1091.11 534.243 1091.11 527.48C1091.11 520.717 1088.21 517.812 1084.92 517.812Z" fill="white"/>
<path d="M1111.8 513.941C1117.81 513.941 1121.28 517.418 1121.28 522.836C1121.28 528.824 1117.03 530.575 1117.03 530.575V530.766L1123.22 541.018H1117.24L1111.82 531.73H1107.36V541.018H1101.95V513.941H1111.8ZM1107.35 527.289H1111.8C1113.94 527.289 1115.67 525.551 1115.67 522.836C1115.67 520.12 1113.94 518.382 1111.8 518.382H1107.35V527.276V527.289Z" fill="white"/>
<path d="M1137.71 513.168C1142.55 513.168 1145.06 515.68 1145.06 515.68L1142.74 519.36C1142.74 519.36 1141 517.812 1138.09 517.812C1134.03 517.812 1131.13 520.717 1131.13 527.48C1131.13 534.243 1134.03 537.148 1138.09 537.148C1139.45 537.148 1140.61 536.768 1140.61 536.768V529.802H1136.93V525.348H1146.01V538.696C1146.01 538.696 1142.92 541.792 1137.7 541.792C1130.74 541.792 1125.52 536.565 1125.52 527.48C1125.52 518.395 1130.75 513.168 1137.7 513.168H1137.71Z" fill="white"/>
<path d="M1154.16 541.018H1148.55L1157.25 513.941H1164.02L1172.72 541.018H1167.11L1165.37 535.6H1155.9L1154.16 541.018ZM1160.73 521.097H1160.54L1157.44 530.956H1163.83L1160.73 521.097Z" fill="white"/>
<path d="M1191.29 530.575V513.941H1196.71V541.018H1190.99L1181.83 524.384H1181.64V541.018H1176.22V513.941H1181.94L1191.1 530.575H1191.29Z" fill="white"/>
<path d="M1209.08 541.018H1203.67V513.941H1209.08V541.018Z" fill="white"/>
<path d="M1232.48 533.088C1232.48 537.922 1228.61 541.792 1222.04 541.792C1216.43 541.792 1213.52 538.316 1213.52 538.316L1215.85 534.636C1215.85 534.636 1217.98 537.148 1221.64 537.148C1225.12 537.148 1226.87 535.41 1226.87 533.088C1226.87 528.254 1214.69 530.766 1214.69 521.288C1214.69 516.835 1218.37 513.168 1223.98 513.168C1229.59 513.168 1231.91 516.264 1231.91 516.264L1229.78 519.943C1229.78 519.943 1227.65 517.812 1224.36 517.812C1221.85 517.812 1220.3 519.36 1220.3 521.288C1220.3 526.313 1232.48 523.991 1232.48 533.088Z" fill="white"/>
<path d="M1239.45 541.018H1233.84L1242.54 513.941H1249.3L1258.01 541.018H1252.4L1250.66 535.6H1241.18L1239.45 541.018ZM1246.02 521.097H1245.83L1242.73 530.956H1249.11L1246.02 521.097Z" fill="white"/>
<path d="M1278.12 513.941V518.395H1271.15V541.018H1265.74V518.395H1258.77V513.941H1278.11H1278.12Z" fill="white"/>
<path d="M1287.8 541.018H1282.38V513.941H1287.8V541.018Z" fill="white"/>
<path d="M1304.81 541.792C1298.24 541.792 1293.01 536.565 1293.01 527.48C1293.01 518.395 1298.24 513.168 1304.81 513.168C1311.39 513.168 1316.61 518.395 1316.61 527.48C1316.61 536.565 1311.39 541.792 1304.81 541.792ZM1304.81 517.812C1301.53 517.812 1298.62 520.717 1298.62 527.48C1298.62 534.243 1301.53 537.148 1304.81 537.148C1308.1 537.148 1311.01 534.243 1311.01 527.48C1311.01 520.717 1308.1 517.812 1304.81 517.812Z" fill="white"/>
<path d="M1336.92 530.575V513.941H1342.33V541.018H1336.61L1327.45 524.384H1327.26V541.018H1321.84V513.941H1327.57L1336.73 530.575H1336.92Z" fill="white"/>
<path d="M1191.57 388.349C1198.08 388.349 1201.47 391.736 1201.47 391.736L1198.35 396.685C1198.35 396.685 1196 394.604 1192.09 394.604C1186.63 394.604 1182.72 398.512 1182.72 407.622C1182.72 416.732 1186.63 420.64 1192.09 420.64C1193.92 420.64 1195.48 420.119 1195.48 420.119V410.743H1190.53V404.754H1202.78V422.72C1202.78 422.72 1198.62 426.882 1191.57 426.882C1182.2 426.882 1175.17 419.853 1175.17 407.609C1175.17 395.365 1182.2 388.336 1191.57 388.336V388.349Z" fill="white"/>
<path d="M1224.38 426.898C1215.53 426.898 1208.5 419.869 1208.5 407.625C1208.5 395.381 1215.53 388.352 1224.38 388.352C1233.24 388.352 1240.27 395.381 1240.27 407.625C1240.27 419.869 1233.24 426.898 1224.38 426.898ZM1224.38 394.607C1219.96 394.607 1216.05 398.515 1216.05 407.625C1216.05 416.735 1219.96 420.643 1224.38 420.643C1228.81 420.643 1232.72 416.735 1232.72 407.625C1232.72 398.515 1228.81 394.607 1224.38 394.607Z" fill="white"/>
<path d="M1250.18 425.852H1242.63L1254.35 389.387H1263.46L1275.19 425.852H1267.64L1265.29 418.556H1252.53L1250.18 425.852ZM1259.04 399.03H1258.77L1254.61 412.314H1263.2L1259.04 399.03Z" fill="white"/>
<path d="M1279.87 389.387H1287.16V419.863H1302.53V425.852H1279.87V389.387Z" fill="white"/>
<path d="M1330.39 415.185C1330.39 421.694 1325.18 426.908 1316.34 426.908C1308.79 426.908 1304.88 422.227 1304.88 422.227L1308 417.278C1308 417.278 1310.87 420.666 1315.81 420.666C1320.51 420.666 1322.84 418.319 1322.84 415.197C1322.84 408.688 1306.44 412.076 1306.44 399.312C1306.44 393.323 1311.39 388.375 1318.94 388.375C1326.49 388.375 1329.62 392.537 1329.62 392.537L1326.75 397.485C1326.75 397.485 1323.88 394.618 1319.46 394.618C1316.07 394.618 1313.99 396.698 1313.99 399.299C1313.99 406.075 1330.39 402.941 1330.39 415.185Z" fill="white"/>
<path d="M759.789 724.571V708.28C759.789 698.498 764.674 693.613 772.173 693.613C779.671 693.613 781.105 699.804 781.105 699.804H781.498C781.498 699.804 783.262 691.012 792.385 691.012C800.2 691.012 805.415 696.226 805.415 706.326V724.571H759.789ZM772.82 703.065C769.229 703.065 767.275 705.019 767.275 708.28V715.449H778.352V708.28C778.352 705.019 776.398 703.065 772.807 703.065H772.82ZM785.85 715.449H797.904V706.326C797.904 702.735 795.62 700.464 792.042 700.464C788.134 700.464 785.85 702.748 785.85 706.326V715.449Z" fill="white"/>
<path d="M759.789 666.231C759.789 656.131 765.651 650.257 774.786 650.257C784.886 650.257 787.817 657.426 787.817 657.426H788.147L805.415 646.996V657.096L789.771 666.218V673.717H805.415V682.84H759.789V666.218V666.231ZM782.272 673.73V666.231C782.272 662.64 779.341 659.709 774.774 659.709C770.206 659.709 767.275 662.64 767.275 666.231V673.73H782.272Z" fill="white"/>
<path d="M805.415 636.566V646.018L759.789 631.351V619.945L805.415 605.277V614.73L796.292 617.661V633.635L805.415 636.566ZM771.843 625.489V625.819L788.464 631.034V620.275L771.843 625.489Z" fill="white"/>
<path d="M787.817 574.002H759.789V564.879H805.415V574.522L777.387 589.963V590.293H805.415V599.416H759.789V589.773L787.817 574.331V574.002Z" fill="white"/>
<path d="M805.415 538.476V553.143H759.789V538.476C759.789 527.069 768.265 518.594 782.602 518.594C796.939 518.594 805.415 527.069 805.415 538.476ZM767.275 544.008H797.904V538.463C797.904 532.601 793.336 528.034 782.589 528.034C771.843 528.034 767.275 532.601 767.275 538.463V544.008Z" fill="white"/>
<path d="M347.112 494.336C355.309 494.336 359.572 498.599 359.572 498.599L355.638 504.829C355.638 504.829 352.682 502.203 347.772 502.203C340.882 502.203 335.972 507.125 335.972 518.595C335.972 530.065 340.895 534.988 347.772 534.988C353.342 534.988 356.298 531.715 356.298 531.715L360.231 537.945C360.231 537.945 355.638 542.868 347.112 542.868C335.312 542.868 326.456 534.011 326.456 518.608C326.456 503.205 335.312 494.349 347.112 494.349V494.336Z" fill="white"/>
<path d="M384.492 542.855C373.34 542.855 364.496 533.999 364.496 518.595C364.496 503.192 373.352 494.336 384.492 494.336C395.632 494.336 404.489 503.192 404.489 518.595C404.489 533.999 395.632 542.855 384.492 542.855ZM384.492 502.203C378.922 502.203 373.999 507.125 373.999 518.595C373.999 530.065 378.922 534.988 384.492 534.988C390.062 534.988 394.985 530.065 394.985 518.595C394.985 507.125 390.062 502.203 384.492 502.203Z" fill="white"/>
<path d="M431.717 534.987L423.85 513.341H423.52L420.894 541.534H411.391L415.654 495.629H425.817L435.003 520.878H435.333L444.519 495.629H454.682L458.945 541.534H449.442L446.816 513.341H446.486L438.619 534.987H431.729H431.717Z" fill="white"/>
<path d="M487.125 534.987L479.258 513.341H478.929L476.302 541.534H466.799L471.062 495.629H481.225L490.411 520.878H490.741L499.927 495.629H510.09L514.353 541.534H504.85L502.224 513.341H501.894L494.027 534.987H487.138H487.125Z" fill="white"/>
<path d="M524.173 495.646H554.332V503.183H533.346V514.983H547.443V522.52H533.346V533.99H554.662V541.526H524.173V495.621V495.646Z" fill="white"/>
<path d="M579.263 495.645C589.426 495.645 595.326 501.544 595.326 510.731C595.326 520.894 588.106 523.85 588.106 523.85V524.18L598.599 541.562H588.436L579.25 525.829H571.713V541.562H562.527V495.657H579.25L579.263 495.645ZM571.713 518.267H579.25C582.854 518.267 585.81 515.311 585.81 510.731C585.81 506.15 582.854 503.194 579.25 503.194H571.713V518.28V518.267Z" fill="white"/>
<path d="M623.202 494.336C631.398 494.336 635.662 498.599 635.662 498.599L631.728 504.829C631.728 504.829 628.772 502.203 623.862 502.203C616.972 502.203 612.062 507.125 612.062 518.595C612.062 530.065 616.985 534.988 623.862 534.988C629.432 534.988 632.388 531.715 632.388 531.715L636.321 537.945C636.321 537.945 631.728 542.868 623.202 542.868C611.402 542.868 602.546 534.011 602.546 518.608C602.546 503.205 611.402 494.349 623.202 494.349V494.336Z" fill="white"/>
<path d="M652.702 541.55H643.516V495.645H652.702V541.55Z" fill="white"/>
<path d="M668.119 541.55H658.615L673.371 495.645H684.841L699.597 541.55H690.094L687.138 532.364H671.075L668.119 541.55ZM679.271 507.774H678.941L673.701 524.497H684.524L679.284 507.774H679.271Z" fill="white"/>
<path d="M705.497 495.642H714.683V533.997H734.032V541.534H705.51V495.629L705.497 495.642Z" fill="white"/>
<path d="M613.434 218.233C601.799 218.233 592.562 208.996 592.562 192.907C592.562 176.819 601.799 167.582 613.434 167.582C625.069 167.582 634.306 176.819 634.306 192.907C634.306 208.996 625.069 218.233 613.434 218.233ZM613.434 175.791C607.61 175.791 602.485 180.93 602.485 192.907C602.485 204.885 607.623 210.023 613.434 210.023C619.245 210.023 624.384 204.885 624.384 192.907C624.384 180.93 619.245 175.791 613.434 175.791Z" fill="white"/>
<path d="M643.543 168.954H675.022V176.821H653.122V191.26H667.841V199.063H653.122V216.851H643.543V168.941V168.954Z" fill="white"/>
<path d="M682.559 168.954H714.038V176.821H692.138V191.26H706.856V199.063H692.138V216.851H682.559V168.941V168.954Z" fill="white"/>
<path d="M731.154 216.859H721.574V168.949H731.154V216.859Z" fill="white"/>
<path d="M761.948 167.582C770.499 167.582 774.953 172.036 774.953 172.036L770.842 178.532C770.842 178.532 767.759 175.791 762.633 175.791C755.451 175.791 750.313 180.93 750.313 192.907C750.313 204.885 755.451 210.023 762.633 210.023C768.457 210.023 771.527 206.598 771.527 206.598L775.638 213.094C775.638 213.094 770.842 218.233 761.948 218.233C749.628 218.233 740.391 208.996 740.391 192.907C740.391 176.819 749.628 167.582 761.948 167.582Z" fill="white"/>
<path d="M783.175 168.954H814.654V176.821H792.754V189.141H807.472V197.007H792.754V208.985H814.996V216.851H783.175V168.941V168.954Z" fill="white"/>
</g>
<path opacity="0.03" d="M745.014 576.417C1065.02 576.417 1324.43 557.765 1324.43 534.757C1324.43 511.749 1065.02 493.098 745.014 493.098C425.012 493.098 165.6 511.749 165.6 534.757C165.6 557.765 425.012 576.417 745.014 576.417Z" fill="#F2F2F2"/>
<path d="M718.607 354.102H721.784V259.924H718.607V354.102Z" fill="#595959"/>
<path d="M774.182 259.926H721.784V292.239H774.182V259.926Z" fill="#FF7761"/>
<path d="M774.183 295.721H798.108L787.706 280.707L798.108 265.703H774.183V295.721Z" fill="#FF7761"/>
<g style="mix-blend-mode:multiply">
<path d="M774.183 295.721H798.108L787.706 280.707L798.108 265.703H774.183V295.721Z" fill="#F0F0F0"/>
</g>
<g style="mix-blend-mode:screen">
<path d="M587.221 307.938H172.442V361.217" stroke="#757575" stroke-width="3.37" stroke-linecap="round" stroke-linejoin="round" stroke-dasharray="8 8"/>
</g>
<path d="M162.4 293.767L146.624 317.78L154.458 357.198L169.385 330.292C169.679 329.845 169.82 329.269 169.766 328.703L165.795 294.942C165.599 292.951 163.445 292.19 162.411 293.756L162.4 293.767Z" fill="#FF7761"/>
<path d="M207.856 293.767L223.632 317.78L215.798 357.198L200.871 330.292C200.577 329.845 200.436 329.269 200.49 328.703L204.461 294.942C204.657 292.951 206.811 292.19 207.845 293.756L207.856 293.767Z" fill="#FF7761"/>
<path d="M187.097 429.981C186.379 432.233 183.191 432.211 182.494 429.959L162.094 364.527C157.188 351.808 166.087 337.729 179.709 337.218C179.992 337.218 180.286 337.207 180.569 337.207L189.686 337.24C189.98 337.24 190.263 337.24 190.546 337.261C204.167 337.86 212.958 352.004 207.965 364.69L187.097 429.97V429.981Z" fill="#FFE854"/>
<g style="mix-blend-mode:multiply">
<path d="M187.097 429.981C186.379 432.233 183.191 432.211 182.494 429.959L162.094 364.527C157.188 351.808 166.087 337.729 179.709 337.218C179.992 337.218 180.286 337.207 180.569 337.207L189.686 337.24C189.98 337.24 190.263 337.24 190.546 337.261C204.167 337.86 212.958 352.004 207.965 364.69L187.097 429.97V429.981Z" fill="#EDEDED"/>
</g>
<path d="M186.444 411.202C185.944 412.747 183.757 412.747 183.267 411.191L169.199 366.072C165.816 357.302 171.952 347.586 181.342 347.238C181.537 347.238 181.733 347.238 181.94 347.238L188.229 347.26C188.424 347.26 188.62 347.26 188.827 347.271C198.216 347.684 204.277 357.444 200.839 366.191L186.455 411.213L186.444 411.202Z" fill="#FFE854"/>
<path d="M184.475 162.368L171.691 183.388C161.681 199.849 155.654 218.378 154.055 237.483C153.598 242.945 153.739 248.439 154.414 253.879L166.262 328.016L203.7 328.146L214.036 259.689C217.082 233.349 211.762 206.627 198.314 183.779C197.944 183.159 197.575 182.539 197.205 181.93L185.226 162.357C185.052 162.074 184.638 162.074 184.464 162.357L184.475 162.368Z" fill="#F2F2F2"/>
<path d="M206.486 200.556C204.223 194.779 201.503 189.165 198.326 183.769C197.956 183.148 197.586 182.528 197.216 181.919L185.226 162.357C185.052 162.074 184.639 162.074 184.465 162.357L171.681 183.377C168.362 188.839 165.479 194.54 163.053 200.404L206.475 200.556H206.486Z" fill="#FF7761"/>
<path d="M201.426 333.097L168.852 332.977C166.458 332.977 164.532 331.018 164.532 328.636C164.532 326.242 166.491 324.316 168.873 324.316L201.448 324.436C203.842 324.436 205.767 326.394 205.767 328.777C205.767 331.171 203.809 333.097 201.426 333.097Z" fill="#ABABAB"/>
<path d="M179.785 310.663C179.731 310.914 179.709 311.186 179.731 311.458L184.007 354.771C184.116 356.218 185.073 356.109 185.171 354.64L188.914 310.544C188.935 310.272 188.914 310 188.859 309.771C188.859 309.771 184.496 291.95 184.322 291.906C184.083 291.852 179.785 310.674 179.785 310.674V310.663Z" fill="#FF7761"/>
<path d="M197.221 252.523C204.206 245.538 204.206 234.212 197.221 227.227C190.236 220.242 178.91 220.242 171.925 227.227C164.94 234.212 164.94 245.538 171.925 252.523C178.91 259.508 190.236 259.508 197.221 252.523Z" fill="#FF7761"/>
<path d="M197.586 239.915C197.564 247.107 191.71 252.906 184.53 252.884C177.338 252.863 171.539 247.009 171.561 239.828C171.582 232.637 177.436 226.838 184.617 226.859C191.808 226.881 197.607 232.735 197.586 239.915Z" fill="#ABABAB"/>
<path d="M252.748 352.039C283.516 352.039 299.51 368.033 299.51 368.033L284.746 391.414C284.746 391.414 273.67 381.567 255.207 381.567C229.367 381.567 210.903 400.031 210.903 443.105C210.903 486.179 229.367 504.642 255.207 504.642C276.129 504.642 287.205 492.337 287.205 492.337L301.969 515.718C301.969 515.718 284.735 534.181 252.748 534.181C208.444 534.181 175.217 500.954 175.217 443.116C175.217 385.277 208.444 352.05 252.748 352.05V352.039Z" fill="white" stroke="white" stroke-width="10.01" stroke-linecap="round" stroke-linejoin="round"/>
<path d="M393.046 534.182C351.201 534.182 317.974 500.955 317.974 443.116C317.974 385.278 351.201 352.051 393.046 352.051C434.89 352.051 468.118 385.278 468.118 443.116C468.118 500.955 434.89 534.182 393.046 534.182ZM393.046 381.579C372.123 381.579 353.66 400.042 353.66 443.116C353.66 486.19 372.123 504.654 393.046 504.654C413.968 504.654 432.431 486.19 432.431 443.116C432.431 400.042 413.968 381.579 393.046 381.579Z" fill="white" stroke="white" stroke-width="10.01" stroke-linecap="round" stroke-linejoin="round"/>
<path d="M570.259 504.643L540.719 423.424H539.49L529.643 529.265H493.957L509.951 356.969H548.096L582.553 451.734H583.782L618.239 356.969H656.396L672.389 529.265H636.703L626.856 423.424H625.627L596.088 504.643H570.248H570.259Z" fill="white" stroke="white" stroke-width="10.01" stroke-linecap="round" stroke-linejoin="round"/>
<path d="M743.784 529.253H709.327V356.957H772.094C811.48 356.957 834.861 380.338 834.861 416.025C834.861 451.711 811.48 475.092 772.094 475.092H743.784V529.242V529.253ZM743.784 385.267V446.804H772.094C786.858 446.804 799.174 434.499 799.174 416.035C799.174 397.572 786.869 385.267 772.094 385.267H743.784Z" fill="white" stroke="white" stroke-width="10.01" stroke-linecap="round" stroke-linejoin="round"/>
<path d="M879.153 529.253H843.467L898.846 356.957H941.92L997.299 529.253H961.613L950.537 494.796H890.24L879.164 529.253H879.153ZM920.998 402.501H919.768L900.075 465.267H940.691L920.998 402.501Z" fill="white" stroke="white" stroke-width="10.01" stroke-linecap="round" stroke-linejoin="round"/>
<path d="M1115.45 462.798V356.957H1149.9V529.253H1113.48L1055.15 423.412H1053.92V529.253H1019.46V356.957H1055.89L1114.22 462.798H1115.45Z" fill="white" stroke="white" stroke-width="10.01" stroke-linecap="round" stroke-linejoin="round"/>
<path d="M1279.12 356.969H1314.81L1260.66 475.115V529.265H1226.2V475.115L1172.05 356.969H1207.74L1242.69 433.27H1244.17L1279.11 356.969H1279.12Z" fill="white" stroke="white" stroke-width="10.01" stroke-linecap="round" stroke-linejoin="round"/>
<g style="mix-blend-mode:screen">
<path d="M1041.61 162.367V168.449H1032.09V199.37H1024.69V168.449H1015.17V162.367H1041.6H1041.61Z" fill="#F0F0F0"/>
<path d="M1047.42 162.367H1071.74V168.449H1054.82V177.958H1066.19V184.04H1054.82V193.288H1072V199.37H1047.42V162.367Z" fill="#F0F0F0"/>
<path d="M1081.26 199.37H1073.6L1085.49 162.367H1094.74L1106.63 199.37H1098.97L1096.59 191.972H1083.64L1081.26 199.37ZM1090.25 172.148H1089.99L1085.75 185.629H1094.48L1090.25 172.148Z" fill="#F0F0F0"/>
<path d="M1126.18 194.082L1119.84 176.642H1119.58L1117.47 199.37H1109.81L1113.25 162.367H1121.44L1128.84 182.713H1129.1L1136.5 162.367H1144.69L1148.13 199.37H1140.47L1138.36 176.642H1138.1L1131.75 194.082H1126.21H1126.18Z" fill="#F0F0F0"/>
<path d="M1184.6 187.214H1184.86L1190.15 162.375H1198.08L1190.15 199.378H1180.37L1175.34 174.539H1175.08L1170.05 199.378H1160.27L1152.34 162.375H1160L1165.55 187.214H1165.81L1170.84 162.375H1179.56L1184.59 187.214H1184.6Z" fill="#F0F0F0"/>
<path d="M1217.64 200.425C1208.65 200.425 1201.52 193.288 1201.52 180.863C1201.52 168.438 1208.65 161.301 1217.64 161.301C1226.63 161.301 1233.77 168.438 1233.77 180.863C1233.77 193.288 1226.63 200.425 1217.64 200.425ZM1217.64 167.655C1213.15 167.655 1209.19 171.615 1209.19 180.874C1209.19 190.133 1213.15 194.093 1217.64 194.093C1222.14 194.093 1226.1 190.133 1226.1 180.874C1226.1 171.615 1222.14 167.655 1217.64 167.655Z" fill="#F0F0F0"/>
<path d="M1254.38 162.366C1262.58 162.366 1267.33 167.121 1267.33 174.519C1267.33 182.712 1261.52 185.095 1261.52 185.095V185.356L1269.97 199.358H1261.78L1254.38 186.672H1248.3V199.358H1240.9V162.355H1254.38V162.366ZM1248.3 180.612H1254.38C1257.29 180.612 1259.67 178.229 1259.67 174.53C1259.67 170.831 1257.29 168.448 1254.38 168.448H1248.3V180.601V180.612Z" fill="#F0F0F0"/>
<path d="M1282.92 199.37H1275.52V162.367H1282.92V179.014H1283.24L1295.07 162.367H1303.27L1292.17 177.958L1304.06 199.37H1296.13L1287.68 184.04L1282.92 190.644V199.37Z" fill="#F0F0F0"/>
</g>
<g style="mix-blend-mode:screen">
<path d="M295.18 586.453C303.449 586.453 307.746 590.751 307.746 590.751L303.775 597.039C303.775 597.039 300.794 594.396 295.833 594.396C288.881 594.396 283.919 599.357 283.919 610.933C283.919 622.509 288.881 627.471 295.833 627.471C301.458 627.471 304.439 624.163 304.439 624.163L308.41 630.452C308.41 630.452 303.775 635.413 295.18 635.413C283.266 635.413 274.334 626.481 274.334 610.933C274.334 595.386 283.266 586.453 295.18 586.453Z" fill="#D6D6D6"/>
<path d="M332.901 635.413C321.651 635.413 312.719 626.481 312.719 610.933C312.719 595.386 321.651 586.453 332.901 586.453C344.151 586.453 353.084 595.386 353.084 610.933C353.084 626.481 344.151 635.413 332.901 635.413ZM332.901 594.396C327.276 594.396 322.315 599.357 322.315 610.933C322.315 622.509 327.276 627.471 332.901 627.471C338.526 627.471 343.487 622.509 343.487 610.933C343.487 599.357 338.526 594.396 332.901 594.396Z" fill="#D6D6D6"/>
<path d="M378.89 587.777C389.15 587.777 395.102 593.729 395.102 602.998C395.102 613.258 387.823 616.229 387.823 616.229V616.555L398.409 634.094H388.149L378.89 618.22H371.285V634.094H362.026V587.777H378.901H378.89ZM371.274 610.604H378.88C382.513 610.604 385.495 607.622 385.495 602.998C385.495 598.374 382.513 595.393 378.88 595.393H371.274V610.614V610.604Z" fill="#D6D6D6"/>
<path d="M414.62 634.094H405.361V587.777H422.236C432.822 587.777 439.111 594.066 439.111 603.651C439.111 613.237 432.822 619.536 422.236 619.536H414.631V634.094H414.62ZM414.62 595.382V611.92H422.225C426.197 611.92 429.504 608.613 429.504 603.651C429.504 598.69 426.197 595.382 422.225 595.382H414.62Z" fill="#D6D6D6"/>
<path d="M464.571 635.413C453.321 635.413 444.389 626.481 444.389 610.933C444.389 595.386 453.321 586.453 464.571 586.453C475.821 586.453 484.753 595.386 484.753 610.933C484.753 626.481 475.821 635.413 464.571 635.413ZM464.571 594.396C458.946 594.396 453.985 599.357 453.985 610.933C453.985 622.509 458.946 627.471 464.571 627.471C470.196 627.471 475.157 622.509 475.157 610.933C475.157 599.357 470.196 594.396 464.571 594.396Z" fill="#D6D6D6"/>
<path d="M510.561 587.777C520.821 587.777 526.772 593.729 526.772 602.998C526.772 613.258 519.494 616.229 519.494 616.229V616.555L530.08 634.094H519.82L510.561 618.22H502.956V634.094H493.697V587.777H510.572H510.561ZM502.956 610.604H510.561C514.195 610.604 517.176 607.622 517.176 602.998C517.176 598.374 514.195 595.393 510.561 595.393H502.956V610.614V610.604Z" fill="#D6D6D6"/>
<path d="M540.666 634.094H531.069L545.953 587.777H557.53L572.413 634.094H562.817L559.836 624.835H543.625L540.644 634.094H540.666ZM551.915 600.017H551.589L546.301 616.892H557.214L551.915 600.017Z" fill="#D6D6D6"/>
<path d="M606.838 587.777V595.382H594.924V634.094H585.666V595.382H573.752V587.777H606.838Z" fill="#D6D6D6"/>
<path d="M623.375 634.094H614.116V587.777H623.375V634.094Z" fill="#D6D6D6"/>
<path d="M652.49 635.413C641.24 635.413 632.308 626.481 632.308 610.933C632.308 595.386 641.24 586.453 652.49 586.453C663.74 586.453 672.672 595.386 672.672 610.933C672.672 626.481 663.74 635.413 652.49 635.413ZM652.49 594.396C646.865 594.396 641.904 599.357 641.904 610.933C641.904 622.509 646.865 627.471 652.49 627.471C658.115 627.471 663.076 622.509 663.076 610.933C663.076 599.357 658.115 594.396 652.49 594.396Z" fill="#D6D6D6"/>
<path d="M707.413 616.229V587.777H716.672V634.094H706.88L691.201 605.642H690.875V634.094H681.616V587.777H691.408L707.086 616.229H707.413Z" fill="#D6D6D6"/>
</g>
<g style="mix-blend-mode:screen">
<path d="M436.521 705.035H443.92V735.956H459.511V742.038H436.521V705.035Z" fill="#CCCCCC"/>
<path d="M465.331 705.035H489.648V711.117H472.729V720.626H484.099V726.708H472.729V735.956H489.909V742.038H465.331V705.035Z" fill="#CCCCCC"/>
<path d="M499.158 742.026H491.498L503.39 705.023H512.638L524.53 742.026H516.87L514.487 734.628H501.54L499.158 742.026ZM508.144 714.805H507.883L503.651 728.285H512.377L508.144 714.805Z" fill="#CCCCCC"/>
<path d="M541.187 742.026H529.295V705.023H541.187C550.435 705.023 557.311 711.9 557.311 723.519C557.311 735.139 550.435 742.015 541.187 742.015V742.026ZM536.693 711.105V735.944H541.187C545.941 735.944 549.641 732.245 549.641 723.519C549.641 714.794 545.941 711.094 541.187 711.094H536.693V711.105Z" fill="#CCCCCC"/>
<path d="M564.448 705.035H588.765V711.117H571.847V720.626H583.216V726.708H571.847V735.956H589.026V742.038H564.448V705.035Z" fill="#CCCCCC"/>
<path d="M608.849 705.034C617.042 705.034 621.797 709.789 621.797 717.187C621.797 725.38 615.987 727.763 615.987 727.763V728.024L624.441 742.026H616.248L608.849 729.34H602.768V742.026H595.369V705.023H608.849V705.034ZM602.768 723.269H608.849C611.754 723.269 614.137 720.886 614.137 717.187C614.137 713.488 611.754 711.105 608.849 711.105H602.768V723.258V723.269Z" fill="#CCCCCC"/>
<path d="M652.457 731.191C652.457 737.795 647.169 743.082 638.182 743.082C630.523 743.082 626.552 738.328 626.552 738.328L629.729 733.301C629.729 733.301 632.634 736.739 637.66 736.739C642.415 736.739 644.798 734.357 644.798 731.191C644.798 724.586 628.151 728.024 628.151 715.066C628.151 708.984 633.178 703.969 640.837 703.969C648.497 703.969 651.674 708.201 651.674 708.201L648.769 713.228C648.769 713.228 645.864 710.323 641.37 710.323C637.932 710.323 635.822 712.433 635.822 715.077C635.822 721.953 652.468 718.776 652.468 731.201L652.457 731.191Z" fill="#CCCCCC"/>
<path d="M686.816 705.035V742.038H679.418V726.708H666.471V742.038H659.072V705.035H666.471V720.626H679.418V705.035H686.816Z" fill="#CCCCCC"/>
<path d="M703.734 742.026H696.336V705.023H703.734V742.026Z" fill="#CCCCCC"/>
<path d="M720.652 742.026H713.254V705.023H726.734C735.188 705.023 740.215 710.05 740.215 717.71C740.215 725.369 735.188 730.396 726.734 730.396H720.652V742.026ZM720.652 711.105V724.325H726.734C729.911 724.325 732.544 721.681 732.544 717.72C732.544 713.76 729.9 711.116 726.734 711.116H720.652V711.105Z" fill="#CCCCCC"/>
</g>
<g style="mix-blend-mode:screen">
<path d="M851.975 583.934C861.125 583.934 865.879 588.688 865.879 588.688L861.484 595.64C861.484 595.64 858.187 592.714 852.704 592.714C845.022 592.714 839.528 598.197 839.528 611.003C839.528 623.809 845.011 629.292 852.704 629.292C858.927 629.292 862.213 625.637 862.213 625.637L866.597 632.589C866.597 632.589 861.473 638.072 851.964 638.072C838.799 638.072 828.92 628.193 828.92 611.003C828.92 593.813 838.799 583.934 851.964 583.934H851.975Z" fill="#F0F0F0"/>
<path d="M884.538 620.153C884.538 626.007 887.834 629.303 893.688 629.303C899.541 629.303 902.838 626.007 902.838 620.153V585.402H913.087V620.153C913.087 630.391 905.406 638.083 893.699 638.083C881.992 638.083 874.311 630.402 874.311 620.153V585.402H884.549V620.153H884.538Z" fill="#F0F0F0"/>
<path d="M925.872 585.402H936.121V628.204H957.707V636.615H925.883V585.402H925.872Z" fill="#F0F0F0"/>
<path d="M997.211 585.402V593.813H984.047V636.615H973.798V593.813H960.633V585.402H997.211Z" fill="#F0F0F0"/>
<path d="M1015.14 620.153C1015.14 626.007 1018.44 629.303 1024.29 629.303C1030.15 629.303 1033.44 626.007 1033.44 620.153V585.402H1043.69V620.153C1043.69 630.391 1036.01 638.083 1024.3 638.083C1012.6 638.083 1004.92 630.402 1004.92 620.153V585.402H1015.15V620.153H1015.14Z" fill="#F0F0F0"/>
<path d="M1075.15 585.402C1086.48 585.402 1093.08 591.985 1093.08 602.234C1093.08 613.571 1085.02 616.867 1085.02 616.867V617.237L1096.73 636.625H1085.39L1075.15 619.065H1066.74V636.625H1056.49V585.413H1075.15V585.402ZM1066.74 610.644H1075.15C1079.17 610.644 1082.47 607.347 1082.47 602.234C1082.47 597.12 1079.17 593.823 1075.15 593.823H1066.74V610.655V610.644Z" fill="#F0F0F0"/>
<path d="M1104.41 585.401H1138.07V593.812H1114.66V606.977H1130.39V615.387H1114.66V628.193H1138.44V636.603H1104.42V585.391L1104.41 585.401Z" fill="#F0F0F0"/>
</g>
<g style="mix-blend-mode:screen">
<path d="M860.634 283.693C849.95 283.693 841.464 275.206 841.464 260.442C841.464 245.678 849.95 237.191 860.634 237.191C871.319 237.191 879.805 245.678 879.805 260.442C879.805 275.206 871.319 283.693 860.634 283.693ZM860.634 244.72C855.292 244.72 850.581 249.431 850.581 260.431C850.581 271.431 855.292 276.142 860.634 276.142C865.977 276.142 870.688 271.431 870.688 260.431C870.688 249.431 865.977 244.72 860.634 244.72Z" fill="#CCCCCC"/>
<path d="M904.317 238.441C914.055 238.441 919.712 244.099 919.712 252.901C919.712 262.639 912.804 265.467 912.804 265.467V265.783L922.857 282.44H913.119L904.317 267.36H897.093V282.44H888.291V238.452H904.317V238.441ZM897.082 260.125H904.306C907.766 260.125 910.595 257.296 910.595 252.901C910.595 248.505 907.766 245.677 904.306 245.677H897.082V260.136V260.125Z" fill="#CCCCCC"/>
<path d="M946.423 237.18C954.278 237.18 958.358 241.26 958.358 241.26L954.583 247.233C954.583 247.233 951.754 244.72 947.043 244.72C940.439 244.72 935.728 249.431 935.728 260.43C935.728 271.43 940.439 276.141 947.043 276.141C949.241 276.141 951.123 275.51 951.123 275.51V264.195H945.15V256.97H959.914V278.654C959.914 278.654 954.887 283.681 946.401 283.681C935.086 283.681 926.61 275.194 926.61 260.43C926.61 245.666 935.097 237.18 946.401 237.18H946.423Z" fill="#CCCCCC"/>
<path d="M973.133 282.429H964.016L978.16 238.441H989.159L1003.3 282.429H994.186L991.357 273.627H975.962L973.133 282.429ZM983.817 250.061H983.502L978.475 266.088H988.844L983.817 250.061Z" fill="#CCCCCC"/>
<path d="M1033.46 265.467V238.441H1042.27V282.429H1032.96L1018.07 255.403H1017.75V282.429H1008.95V238.441H1018.25L1033.15 265.467H1033.46Z" fill="#CCCCCC"/>
<path d="M1062.37 282.429H1053.57V238.441H1062.37V282.429Z" fill="#CCCCCC"/>
<path d="M1100.4 269.548C1100.4 277.403 1094.11 283.692 1083.42 283.692C1074.31 283.692 1069.6 278.034 1069.6 278.034L1073.37 272.061C1073.37 272.061 1076.83 276.141 1082.79 276.141C1088.45 276.141 1091.28 273.312 1091.28 269.548C1091.28 261.692 1071.49 265.772 1071.49 250.377C1071.49 243.153 1077.46 237.18 1086.57 237.18C1095.68 237.18 1099.45 242.206 1099.45 242.206L1095.99 248.179C1095.99 248.179 1092.53 244.72 1087.19 244.72C1083.11 244.72 1080.58 247.233 1080.58 250.377C1080.58 258.548 1100.39 254.773 1100.39 269.548H1100.4Z" fill="#CCCCCC"/>
<path d="M1111.71 282.429H1102.59L1116.74 238.441H1127.74L1141.88 282.429H1132.76L1129.94 273.627H1114.54L1111.71 282.429ZM1122.4 250.061H1122.08L1117.05 266.088H1127.42L1122.4 250.061Z" fill="#CCCCCC"/>
<path d="M1174.56 238.441V245.666H1163.24V282.429H1154.44V245.666H1143.12V238.441H1174.54H1174.56Z" fill="#CCCCCC"/>
<path d="M1190.27 282.429H1181.46V238.441H1190.27V282.429Z" fill="#CCCCCC"/>
<path d="M1217.92 283.693C1207.24 283.693 1198.75 275.206 1198.75 260.442C1198.75 245.678 1207.24 237.191 1217.92 237.191C1228.61 237.191 1237.09 245.678 1237.09 260.442C1237.09 275.206 1228.61 283.693 1217.92 283.693ZM1217.92 244.72C1212.58 244.72 1207.87 249.431 1207.87 260.431C1207.87 271.431 1212.58 276.142 1217.92 276.142C1223.26 276.142 1227.98 271.431 1227.98 260.431C1227.98 249.431 1223.26 244.72 1217.92 244.72Z" fill="#CCCCCC"/>
<path d="M1270.08 265.467V238.441H1278.88V282.429H1269.58L1254.69 255.403H1254.37V282.429H1245.57V238.441H1254.87L1269.77 265.467H1270.08Z" fill="#CCCCCC"/>
</g>
<g style="mix-blend-mode:screen">
<path d="M268.11 227.433C275.139 227.433 278.805 231.088 278.805 231.088L275.432 236.431C275.432 236.431 272.897 234.178 268.676 234.178C262.768 234.178 258.547 238.4 258.547 248.246C258.547 258.093 262.768 262.314 268.676 262.314C273.463 262.314 275.987 259.496 275.987 259.496L279.36 264.838C279.36 264.838 275.422 269.06 268.11 269.06C257.981 269.06 250.387 261.465 250.387 248.246C250.387 235.027 257.981 227.422 268.11 227.422V227.433Z" fill="#D6D6D6"/>
<path d="M300.184 269.071C290.621 269.071 283.026 261.477 283.026 248.258C283.026 235.039 290.621 227.434 300.184 227.434C309.748 227.434 317.342 235.028 317.342 248.258C317.342 261.488 309.748 269.071 300.184 269.071ZM300.184 234.179C295.397 234.179 291.186 238.401 291.186 248.247C291.186 258.093 295.408 262.315 300.184 262.315C304.96 262.315 309.182 258.093 309.182 248.247C309.182 238.401 304.96 234.179 300.184 234.179Z" fill="#D6D6D6"/>
<path d="M340.702 262.311L333.945 243.739H333.662L331.41 267.936H323.25L326.906 228.551H335.631L343.509 250.213H343.791L351.669 228.551H360.394L364.05 267.936H355.89L353.638 243.739H353.355L346.598 262.311H340.691H340.702Z" fill="#D6D6D6"/>
<path d="M388.247 262.311L381.491 243.739H381.208L378.956 267.936H370.796L374.452 228.551H383.177L391.054 250.213H391.337L399.214 228.551H407.94L411.596 267.936H403.436L401.184 243.739H400.901L394.144 262.311H388.237H388.247Z" fill="#D6D6D6"/>
<path d="M420.038 228.551H445.922V235.024H427.915V245.154H440.014V251.627H427.915V261.474H446.205V267.947H420.038V228.562V228.551Z" fill="#D6D6D6"/>
<path d="M467.301 228.554C476.027 228.554 481.086 233.613 481.086 241.49C481.086 250.216 474.895 252.74 474.895 252.74V253.023L483.893 267.929H475.167L467.29 254.427H460.817V267.929H452.939V228.543H467.29L467.301 228.554ZM460.838 247.964H467.312C470.402 247.964 472.937 245.429 472.937 241.49C472.937 237.552 470.402 235.017 467.312 235.017H460.838V247.953V247.964Z" fill="#D6D6D6"/>
<path d="M505.001 227.433C512.029 227.433 515.696 231.088 515.696 231.088L512.323 236.431C512.323 236.431 509.788 234.178 505.567 234.178C499.659 234.178 495.437 238.4 495.437 248.246C495.437 258.093 499.659 262.314 505.567 262.314C510.354 262.314 512.878 259.496 512.878 259.496L516.251 264.838C516.251 264.838 512.312 269.06 505.001 269.06C494.872 269.06 487.277 261.465 487.277 248.246C487.277 235.027 494.872 227.422 505.001 227.422V227.433Z" fill="#D6D6D6"/>
<path d="M530.328 267.936H522.451V228.551H530.328V267.936Z" fill="#D6D6D6"/>
<path d="M543.549 267.936H535.389L548.053 228.551H557.899L570.564 267.936H562.404L559.869 260.059H546.084L543.549 267.936ZM553.112 238.963H552.829L548.325 253.314H557.606L553.101 238.963H553.112Z" fill="#D6D6D6"/>
<path d="M575.622 228.551H583.499V261.463H600.102V267.936H575.622V228.551Z" fill="#D6D6D6"/>
</g>
<g style="mix-blend-mode:screen">
<path d="M1102.86 751.795C1092.84 751.795 1084.88 743.841 1084.88 729.991C1084.88 716.141 1092.84 708.188 1102.86 708.188C1112.88 708.188 1120.83 716.141 1120.83 729.991C1120.83 743.841 1112.88 751.795 1102.86 751.795ZM1102.86 715.27C1097.85 715.27 1093.43 719.688 1093.43 730.002C1093.43 740.316 1097.85 744.733 1102.86 744.733C1107.86 744.733 1112.28 740.316 1112.28 730.002C1112.28 719.688 1107.86 715.27 1102.86 715.27Z" fill="#C2C2C2"/>
<path d="M1128.78 709.375H1155.89V716.153H1137.03V728.589H1149.69V735.302H1137.03V750.621H1128.78V709.375Z" fill="#C2C2C2"/>
<path d="M1162.37 709.375H1189.47V716.153H1170.62V728.589H1183.28V735.302H1170.62V750.621H1162.37V709.375Z" fill="#C2C2C2"/>
<path d="M1204.19 750.621H1195.95V709.375H1204.19V750.621Z" fill="#C2C2C2"/>
<path d="M1230.71 708.198C1238.07 708.198 1241.9 712.027 1241.9 712.027L1238.37 717.62C1238.37 717.62 1235.71 715.259 1231.29 715.259C1225.1 715.259 1220.69 719.676 1220.69 729.99C1220.69 740.304 1225.1 744.722 1231.29 744.722C1236.3 744.722 1238.95 741.773 1238.95 741.773L1242.49 747.366C1242.49 747.366 1238.37 751.783 1230.71 751.783C1220.1 751.783 1212.15 743.83 1212.15 729.979C1212.15 716.129 1220.1 708.176 1230.71 708.176V708.198Z" fill="#C2C2C2"/>
<path d="M1248.98 709.375H1276.08V716.153H1257.22V726.761H1269.89V733.539H1257.22V743.854H1276.37V750.632H1248.98V709.386V709.375Z" fill="#C2C2C2"/>
</g>
<g style="mix-blend-mode:screen">
<path d="M1337.19 484.98C1340.63 484.98 1343.42 482.189 1343.42 478.746C1343.42 475.303 1340.63 472.512 1337.19 472.512C1333.75 472.512 1330.96 475.303 1330.96 478.746C1330.96 482.189 1333.75 484.98 1337.19 484.98Z" fill="#757575"/>
</g>
<g style="mix-blend-mode:screen">
<path d="M1287.76 290.949H1337.19V475.692" stroke="#757575" stroke-width="3.37" stroke-linecap="round" stroke-linejoin="round" stroke-dasharray="8 8"/>
</g>
<g style="mix-blend-mode:screen">
<path d="M209.564 647.043H740.204V576.008" stroke="#757575" stroke-width="3.37" stroke-linecap="round" stroke-linejoin="round" stroke-dasharray="8 8"/>
</g>
<g style="mix-blend-mode:screen">
<path d="M1253.39 562.527V646.064H900.598" stroke="#757575" stroke-width="3.37" stroke-linecap="round" stroke-linejoin="round" stroke-dasharray="8 8"/>
</g>
<path d="M1213.82 596.081H1187.42V583.711C1187.42 580.697 1189.88 578.238 1192.89 578.238H1208.35C1211.36 578.238 1213.82 580.697 1213.82 583.711V596.081ZM1190.88 592.622H1210.36V583.711C1210.36 582.601 1209.46 581.698 1208.35 581.698H1192.89C1191.78 581.698 1190.88 582.601 1190.88 583.711V592.622Z" fill="#78502F"/>
<path d="M1233.48 590.121H1218.27V587.543C1218.27 586.15 1219.4 585.018 1220.8 585.018H1230.96C1232.35 585.018 1233.48 586.15 1233.48 587.543V590.121Z" fill="#FFBE63"/>
<path d="M1182.96 590.121H1167.74V587.543C1167.74 586.15 1168.88 585.018 1170.27 585.018H1180.43C1181.82 585.018 1182.96 586.15 1182.96 587.543V590.121Z" fill="#FFBE63"/>
<path d="M1231.19 635.348H1170.04C1167.08 635.348 1164.68 632.943 1164.68 629.984V589.586C1164.68 587.889 1166.06 586.518 1167.74 586.518H1233.47C1235.17 586.518 1236.54 587.9 1236.54 589.586V629.984C1236.54 632.943 1234.13 635.348 1231.18 635.348H1231.19Z" fill="#78502F"/>
<g style="mix-blend-mode:multiply">
<path d="M1234.46 586.516H1231.39C1232.55 586.516 1233.48 587.451 1233.48 588.605V631.711C1233.48 633.724 1231.85 635.356 1229.84 635.356H1232.91C1234.92 635.356 1236.55 633.724 1236.55 631.711V588.605C1236.55 587.451 1235.61 586.516 1234.46 586.516Z" fill="#F5F5F5"/>
</g>
<g style="mix-blend-mode:multiply">
<path d="M1166.78 586.516H1169.84C1168.69 586.516 1167.76 587.451 1167.76 588.605V631.711C1167.76 633.724 1169.39 635.356 1171.4 635.356H1168.33C1166.32 635.356 1164.69 633.724 1164.69 631.711V588.605C1164.69 587.451 1165.62 586.516 1166.78 586.516Z" fill="#F5F5F5"/>
</g>
<path d="M1228.34 613.219H1172.9C1168.36 613.219 1164.69 609.541 1164.69 605.004V589.587C1164.69 587.89 1166.07 586.519 1167.76 586.519H1233.48C1235.18 586.519 1236.55 587.901 1236.55 589.587V605.004C1236.55 609.541 1232.87 613.219 1228.34 613.219Z" fill="#916139"/>
<path d="M1180.63 616.891H1185.97V607.838H1180.63V616.891Z" fill="#78502F"/>
<path d="M1180.63 618.957H1185.97V610.928H1180.63V618.957Z" fill="#F0B35D"/>
<path d="M1182.79 618.176H1183.79V616.391H1182.79V618.176Z" fill="#CC984F"/>
<path d="M1180.2 615.707H1186.39V613.216H1180.2V615.707Z" fill="#FFBE63"/>
<path d="M1215.26 616.891H1220.6V607.838H1215.26V616.891Z" fill="#78502F"/>
<path d="M1215.26 618.957H1220.6V610.928H1215.26V618.957Z" fill="#F0B35D"/>
<path d="M1217.44 618.176H1218.44V616.391H1217.44V618.176Z" fill="#CC984F"/>
<path d="M1214.84 615.707H1221.03V613.216H1214.84V615.707Z" fill="#FFBE63"/>
<path d="M1191.9 582.84H1209.34V577.378H1191.9V582.84Z" fill="#916139"/>
<path d="M214.699 640.236C230.881 640.236 243.999 627.118 243.999 610.937C243.999 594.755 230.881 581.637 214.699 581.637C198.517 581.637 185.399 594.755 185.399 610.937C185.399 627.118 198.517 640.236 214.699 640.236Z" fill="#FFE854"/>
<path d="M213.035 630.987V626.058C210.206 626.014 207.269 625.122 205.561 623.904L206.736 620.64C208.498 621.804 211.033 622.739 213.764 622.739C217.235 622.739 219.574 620.738 219.574 617.952C219.574 615.167 217.67 613.611 214.058 612.142C209.075 610.184 205.996 607.943 205.996 603.689C205.996 599.435 208.879 596.562 213.372 595.822V590.883H216.397V595.627C219.324 595.724 221.326 596.508 222.74 597.335L221.522 600.555C220.499 599.968 218.497 598.891 215.363 598.891C211.599 598.891 210.185 601.132 210.185 603.09C210.185 605.625 211.991 606.898 216.245 608.661C221.271 610.706 223.817 613.252 223.817 617.593C223.817 621.456 221.13 625.068 216.103 625.895V630.976H213.024L213.035 630.987Z" fill="white" stroke="white" stroke-width="4" stroke-linecap="round" stroke-linejoin="round"/>
<path d="M946.108 171.504H952.527C953.256 171.504 953.854 172.102 953.854 172.831V199.063C953.854 199.792 953.256 200.39 952.527 200.39H946.118C945.389 200.39 944.791 199.792 944.791 199.063V172.831C944.791 172.102 945.389 171.504 946.118 171.504H946.108Z" fill="#4C96E0"/>
<path d="M936.218 200.388L928.548 200.421C928.167 200.421 927.852 200.116 927.852 199.735L927.775 187.756C927.775 187.376 928.08 187.06 928.461 187.06L936.131 187.027C936.512 187.027 936.828 187.332 936.828 187.713L936.904 199.692C936.904 200.072 936.599 200.388 936.218 200.388Z" fill="#FF7761"/>
<path d="M971.415 200.406H963.984C963.516 200.406 963.146 199.916 963.146 199.328L963.19 160.824C963.19 160.237 963.571 159.758 964.028 159.758H971.459C971.927 159.758 972.297 160.247 972.297 160.835L972.253 199.339C972.253 199.927 971.872 200.406 971.415 200.406Z" fill="#FFDC00"/>
<path d="M990.934 200.42H984.003C983.405 200.42 982.915 199.789 982.915 199.027L982.969 149.393C982.969 148.62 983.459 148 984.068 148H990.999C991.597 148 992.087 148.631 992.087 149.393L992.032 199.027C992.032 199.8 991.543 200.42 990.934 200.42Z" fill="white"/>
<g style="mix-blend-mode:screen">
<path d="M244.751 165.574C250.017 165.574 252.748 168.316 252.748 168.316L250.224 172.32C250.224 172.32 248.331 170.633 245.175 170.633C240.758 170.633 237.592 173.789 237.592 181.154C237.592 188.52 240.747 191.675 245.175 191.675C248.755 191.675 250.648 189.576 250.648 189.576L253.172 193.579C253.172 193.579 250.224 196.735 244.751 196.735C237.168 196.735 231.488 191.055 231.488 181.154C231.488 171.254 237.168 165.574 244.751 165.574Z" fill="#969696"/>
<path d="M268.752 196.735C261.593 196.735 255.914 191.055 255.914 181.154C255.914 171.254 261.593 165.574 268.752 165.574C275.912 165.574 281.591 171.254 281.591 181.154C281.591 191.055 275.912 196.735 268.752 196.735ZM268.752 170.623C265.173 170.623 262.018 173.778 262.018 181.144C262.018 188.509 265.173 191.664 268.752 191.664C272.332 191.664 275.487 188.509 275.487 181.144C275.487 173.778 272.332 170.623 268.752 170.623Z" fill="#969696"/>
<path d="M287.281 166.41H293.178V191.042H305.603V195.884H287.292V166.41H287.281Z" fill="#969696"/>
<path d="M310.227 166.41H316.124V191.042H328.549V195.884H310.237V166.41H310.227Z" fill="#969696"/>
<path d="M335.501 195.884H329.397L338.874 166.41H346.24L355.716 195.884H349.613L347.719 189.987H337.405L335.512 195.884H335.501ZM342.66 174.2H342.453L339.081 184.939H346.033L342.66 174.2Z" fill="#969696"/>
<path d="M359.503 166.413H370.035C376.345 166.413 379.511 169.568 379.511 174.41C379.511 179.252 375.507 180.176 375.507 180.176V180.427C375.507 180.427 381.187 181.569 381.187 187.455C381.187 192.503 377.814 195.876 371.297 195.876H359.503V166.402V166.413ZM373.397 174.834C373.397 172.517 372.135 171.255 370.024 171.255H365.389V178.414H370.024C372.135 178.414 373.397 177.152 373.397 174.834ZM365.389 183.255V191.046H371.286C373.603 191.046 375.072 189.577 375.072 187.259C375.072 184.735 373.603 183.255 371.286 183.255H365.389Z" fill="#969696"/>
<path d="M397.398 196.735C390.239 196.735 384.56 191.055 384.56 181.154C384.56 171.254 390.239 165.574 397.398 165.574C404.557 165.574 410.236 171.254 410.236 181.154C410.236 191.055 404.557 196.735 397.398 196.735ZM397.398 170.623C393.818 170.623 390.663 173.778 390.663 181.144C390.663 188.509 393.818 191.664 397.398 191.664C400.978 191.664 404.133 188.509 404.133 181.144C404.133 173.778 400.978 170.623 397.398 170.623Z" fill="#969696"/>
<path d="M426.665 166.41C433.193 166.41 436.979 170.196 436.979 176.093C436.979 182.621 432.344 184.514 432.344 184.514V184.721L439.079 195.884H432.551L426.654 185.777H421.812V195.884H415.915V166.41H426.654H426.665ZM421.823 180.935H426.665C428.982 180.935 430.875 179.042 430.875 176.093C430.875 173.145 428.982 171.252 426.665 171.252H421.823V180.935Z" fill="#969696"/>
<path d="M445.824 195.884H439.721L449.197 166.41H456.563L466.039 195.884H459.936L458.043 189.987H447.728L445.835 195.884H445.824ZM452.973 174.2H452.766L449.393 184.939H456.345L452.973 174.2Z" fill="#969696"/>
<path d="M487.93 166.41V171.252H480.347V195.884H474.45V171.252H466.866V166.41H487.919H487.93Z" fill="#969696"/>
<path d="M498.452 195.884H492.555V166.41H498.452V195.884Z" fill="#969696"/>
<path d="M516.979 196.735C509.82 196.735 504.141 191.055 504.141 181.154C504.141 171.254 509.82 165.574 516.979 165.574C524.138 165.574 529.817 171.254 529.817 181.154C529.817 191.055 524.138 196.735 516.979 196.735ZM516.979 170.623C513.399 170.623 510.244 173.778 510.244 181.144C510.244 188.509 513.399 191.664 516.979 191.664C520.559 191.664 523.714 188.509 523.714 181.144C523.714 173.778 520.559 170.623 516.979 170.623Z" fill="#969696"/>
<path d="M551.926 184.514V166.41H557.823V195.884H551.588L541.612 177.78H541.405V195.884H535.508V166.41H541.742L551.719 184.514H551.926Z" fill="#969696"/>
</g>
<g style="mix-blend-mode:screen">
<path d="M822.446 279.158V228.512H1128.5" stroke="#757575" stroke-width="3.37" stroke-linecap="round" stroke-linejoin="round" stroke-dasharray="8 8"/>
</g>
</svg>
