<svg width="1440" height="900" viewBox="0 0 1440 900" fill="none" xmlns="http://www.w3.org/2000/svg">
<g opacity="0.1">
<path d="M385.935 334.754V339.207H378.957V361.881H373.526V339.207H366.548V334.754H385.922H385.935Z" fill="#1D2136" stroke="#1D2136" stroke-miterlimit="10"/>
<path d="M390.197 334.759H408.024V339.212H395.628V346.191H403.964V350.644H395.628V357.419H408.227V361.873H390.21V334.746L390.197 334.759Z" fill="#1D2136" stroke="#1D2136" stroke-miterlimit="10"/>
<path d="M414.989 361.881H409.368L418.085 334.754H424.86L433.577 361.881H427.956L426.218 356.45H416.727L414.989 361.881ZM421.587 341.923H421.396L418.3 351.806H424.695L421.599 341.923H421.587Z" fill="#1D2136" stroke="#1D2136" stroke-miterlimit="10"/>
<path d="M447.94 358.003L443.296 345.214H443.106L441.558 361.873H435.938L438.462 334.746H444.464L449.894 349.667H450.084L455.515 334.746H461.516L464.041 361.873H458.42L456.872 345.214H456.682L452.026 358.003H447.953H447.94Z" fill="#1D2136" stroke="#1D2136" stroke-miterlimit="10"/>
<path d="M490.75 352.961H490.94L494.81 334.754H500.621L494.81 361.881H487.641L483.962 343.673H483.771L480.092 361.881H472.923L467.112 334.754H472.733L476.806 352.961H476.996L480.676 334.754H487.07L490.75 352.961Z" fill="#1D2136" stroke="#1D2136" stroke-miterlimit="10"/>
<path d="M514.97 362.655C508.385 362.655 503.157 357.428 503.157 348.318C503.157 339.208 508.385 333.98 514.97 333.98C521.555 333.98 526.782 339.208 526.782 348.318C526.782 357.428 521.555 362.655 514.97 362.655ZM514.97 338.624C511.671 338.624 508.765 341.53 508.765 348.318C508.765 355.106 511.671 358.011 514.97 358.011C518.268 358.011 521.174 355.106 521.174 348.318C521.174 341.53 518.268 338.624 514.97 338.624Z" fill="#1D2136" stroke="#1D2136" stroke-miterlimit="10"/>
<path d="M541.906 334.759C547.908 334.759 551.397 338.248 551.397 343.666C551.397 349.667 547.134 351.418 547.134 351.418V351.608L553.338 361.873H547.337L541.906 352.573H537.453V361.873H532.022V334.746H541.906V334.759ZM537.453 348.132H541.906C544.038 348.132 545.776 346.394 545.776 343.678C545.776 340.963 544.038 339.225 541.906 339.225H537.453V348.132Z" fill="#1D2136" stroke="#1D2136" stroke-miterlimit="10"/>
<path d="M562.829 361.881H557.398V334.754H562.829V346.96H563.057L571.736 334.754H577.737L569.604 346.186L578.321 361.881H572.51L566.305 350.639L562.816 355.486V361.881H562.829Z" fill="#1D2136" stroke="#1D2136" stroke-miterlimit="10"/>
<path d="M67.1647 675.863V682.106H57.3824V713.889H49.7823V682.106H40V675.863H67.1647Z" fill="#1D2136" stroke="#1D2136" stroke-miterlimit="10"/>
<path d="M73.1406 675.864H98.1357V682.107H80.7533V691.889H92.4389V698.131H80.7533V707.635H98.4022V713.877H73.1406V675.852V675.864Z" fill="#1D2136" stroke="#1D2136" stroke-miterlimit="10"/>
<path d="M107.906 713.889H100.026L112.245 675.863H121.748L133.966 713.889H126.087L123.638 706.289H110.329L107.88 713.889H107.906ZM117.142 685.912H116.876L112.524 699.767H121.482L117.13 685.912H117.142Z" fill="#1D2136" stroke="#1D2136" stroke-miterlimit="10"/>
<path d="M154.09 708.458L147.568 690.53H147.302L145.132 713.889H137.253L140.78 675.863H149.205L156.805 696.773H157.071L164.671 675.863H173.096L176.623 713.889H168.744L166.575 690.53H166.308L159.787 708.458H154.077H154.09Z" fill="#1D2136" stroke="#1D2136" stroke-miterlimit="10"/>
<path d="M214.115 701.391H214.382L219.812 675.863H227.958L219.812 713.889H209.763L204.599 688.361H204.333L199.169 713.889H189.12L180.975 675.863H188.854L194.563 701.391H194.83L199.994 675.863H208.951L214.115 701.391Z" fill="#1D2136" stroke="#1D2136" stroke-miterlimit="10"/>
<path d="M248.068 714.976C238.832 714.976 231.498 707.643 231.498 694.879C231.498 682.115 238.832 674.781 248.068 674.781C257.305 674.781 264.639 682.115 264.639 694.879C264.639 707.643 257.305 714.976 248.068 714.976ZM248.068 681.29C243.45 681.29 239.377 685.363 239.377 694.866C239.377 704.369 243.45 708.442 248.068 708.442C252.687 708.442 256.76 704.369 256.76 694.866C256.76 685.363 252.687 681.29 248.068 681.29Z" fill="#1D2136" stroke="#1D2136" stroke-miterlimit="10"/>
<path d="M285.828 675.863C294.253 675.863 299.137 680.748 299.137 688.361C299.137 696.786 293.161 699.222 293.161 699.222V699.488L301.853 713.889H293.428L285.828 700.846H279.585V713.889H271.985V675.863H285.841H285.828ZM279.573 694.603H285.815C288.797 694.603 291.246 692.155 291.246 688.361C291.246 684.567 288.797 682.118 285.815 682.118H279.573V694.616V694.603Z" fill="#1D2136" stroke="#1D2136" stroke-miterlimit="10"/>
<path d="M315.163 713.889H307.562V675.863H315.163V692.979H315.492L327.66 675.863H336.085L324.678 691.888L336.897 713.889H328.751L320.06 698.13L315.175 704.919V713.876L315.163 713.889Z" fill="#1D2136" stroke="#1D2136" stroke-miterlimit="10"/>
<path d="M54.2617 508.262H68.4341C76.9349 508.262 81.1854 512.512 81.1854 519.034C81.1854 525.555 75.8057 526.799 75.8057 526.799V527.141C75.8057 527.141 83.4565 528.676 83.4565 536.606C83.4565 543.407 78.9269 547.937 70.1342 547.937H54.2617V508.262ZM72.9636 519.592C72.9636 516.471 71.2635 514.771 68.4341 514.771H62.2043V524.401H68.4341C71.2635 524.401 72.9636 522.7 72.9636 519.579V519.592ZM62.2043 530.935V541.415H70.1342C73.2555 541.415 75.2348 539.436 75.2348 536.315C75.2348 532.914 73.2555 530.935 70.1342 530.935H62.2043Z" fill="#1D2136" stroke="#1D2136" stroke-miterlimit="10"/>
<path d="M98.1867 535.185C98.1867 539.715 100.737 542.265 105.267 542.265C109.796 542.265 112.346 539.715 112.346 535.185V508.262H120.276V535.185C120.276 543.115 114.326 549.066 105.254 549.066C96.1821 549.066 90.2314 543.115 90.2314 535.185V508.262H98.1614V535.185H98.1867Z" fill="#1D2136" stroke="#1D2136" stroke-miterlimit="10"/>
<path d="M154.293 536.315C154.293 543.395 148.622 549.066 138.992 549.066C130.77 549.066 126.52 543.966 126.52 543.966L129.92 538.586C129.92 538.586 133.041 542.266 138.421 542.266C143.521 542.266 146.072 539.715 146.072 536.315C146.072 529.235 128.22 532.915 128.22 519.034C128.22 512.512 133.599 507.133 141.821 507.133C150.043 507.133 153.443 511.662 153.443 511.662L150.322 517.042C150.322 517.042 147.201 513.921 142.392 513.921C138.713 513.921 136.441 516.192 136.441 519.021C136.441 526.393 154.293 522.993 154.293 536.302V536.315Z" fill="#1D2136" stroke="#1D2136" stroke-miterlimit="10"/>
<path d="M169.315 547.937H161.385V508.262H169.315V547.937Z" fill="#1D2136" stroke="#1D2136" stroke-miterlimit="10"/>
<path d="M201.618 532.635V508.262H209.548V547.937H201.161L187.725 523.563H187.446V547.937H179.516V508.262H187.902L201.339 532.635H201.618Z" fill="#1D2136" stroke="#1D2136" stroke-miterlimit="10"/>
<path d="M219.764 508.262H245.837V514.783H227.706V524.984H239.887V531.506H227.706V541.428H246.129V547.949H219.776V508.274L219.764 508.262Z" fill="#1D2136" stroke="#1D2136" stroke-miterlimit="10"/>
<path d="M276.997 536.315C276.997 543.395 271.326 549.066 261.696 549.066C253.474 549.066 249.224 543.966 249.224 543.966L252.624 538.586C252.624 538.586 255.745 542.266 261.125 542.266C266.225 542.266 268.776 539.715 268.776 536.315C268.776 529.235 250.924 532.915 250.924 519.034C250.924 512.512 256.303 507.133 264.525 507.133C272.747 507.133 276.147 511.662 276.147 511.662L273.026 517.042C273.026 517.042 269.905 513.921 265.096 513.921C261.417 513.921 259.146 516.192 259.146 519.021C259.146 526.393 276.997 522.993 276.997 536.302V536.315Z" fill="#1D2136" stroke="#1D2136" stroke-miterlimit="10"/>
<path d="M308.172 536.315C308.172 543.395 302.501 549.066 292.871 549.066C284.649 549.066 280.398 543.966 280.398 543.966L283.799 538.586C283.799 538.586 286.92 542.266 292.3 542.266C297.4 542.266 299.95 539.715 299.95 536.315C299.95 529.235 282.099 532.915 282.099 519.034C282.099 512.512 287.478 507.133 295.7 507.133C303.922 507.133 307.322 511.662 307.322 511.662L304.201 517.042C304.201 517.042 301.08 513.921 296.271 513.921C292.591 513.921 290.32 516.192 290.32 519.021C290.32 526.393 308.172 522.993 308.172 536.302V536.315Z" fill="#1D2136" stroke="#1D2136" stroke-miterlimit="10"/>
<path d="M228.567 383.309H258.346V390.756H237.627V402.404H251.545V409.852H237.627V421.182H258.663V428.63H228.555V383.309H228.567Z" fill="#1D2136" stroke="#1D2136" stroke-miterlimit="10"/>
<path d="M284.571 422.143L276.806 400.777H276.489L273.901 428.614H264.512L268.724 383.293H278.76L287.819 408.225H288.137L297.196 383.293H307.232L311.444 428.614H302.055L299.467 400.777H299.15L291.385 422.143H284.584H284.571Z" fill="#1D2136" stroke="#1D2136" stroke-miterlimit="10"/>
<path d="M330.223 428.614H321.164V383.293H337.671C348.024 383.293 354.178 389.447 354.178 398.836C354.178 408.225 348.024 414.378 337.671 414.378H330.223V428.627V428.614ZM330.223 390.741V406.93H337.671C341.553 406.93 344.789 403.695 344.789 398.836C344.789 393.976 341.553 390.741 337.671 390.741H330.223Z" fill="#1D2136" stroke="#1D2136" stroke-miterlimit="10"/>
<path d="M362.26 383.309H371.319V421.182H390.414V428.63H362.247V383.309H362.26Z" fill="#1D2136" stroke="#1D2136" stroke-miterlimit="10"/>
<path d="M414.382 429.913C403.382 429.913 394.64 421.171 394.64 405.959C394.64 390.746 403.382 382.004 414.382 382.004C425.382 382.004 434.124 390.746 434.124 405.959C434.124 421.171 425.382 429.913 414.382 429.913ZM414.382 389.782C408.875 389.782 404.029 394.641 404.029 405.971C404.029 417.302 408.888 422.161 414.382 422.161C419.876 422.161 424.735 417.302 424.735 405.971C424.735 394.641 419.876 389.782 414.382 389.782Z" fill="#1D2136" stroke="#1D2136" stroke-miterlimit="10"/>
<path d="M465.209 383.309H474.598L460.35 414.381V428.63H451.29V414.381L437.042 383.309H446.431L455.63 403.381H456.023L465.222 383.309H465.209Z" fill="#1D2136" stroke="#1D2136" stroke-miterlimit="10"/>
<path d="M480.422 383.309H510.2V390.756H489.481V402.404H503.4V409.852H489.481V421.182H510.518V428.63H480.409V383.309H480.422Z" fill="#1D2136" stroke="#1D2136" stroke-miterlimit="10"/>
<path d="M518.295 383.309H548.073V390.756H527.354V402.404H541.273V409.852H527.354V421.182H548.391V428.63H518.282V383.309H518.295Z" fill="#1D2136" stroke="#1D2136" stroke-miterlimit="10"/>
<path d="M846.035 390.164C852.036 390.164 855.158 393.285 855.158 393.285L852.278 397.84C852.278 397.84 850.121 395.924 846.517 395.924C841.48 395.924 837.877 399.528 837.877 407.927C837.877 416.326 841.48 419.93 846.517 419.93C850.603 419.93 852.76 417.532 852.76 417.532L855.64 422.087C855.64 422.087 852.278 425.69 846.035 425.69C837.395 425.69 830.911 419.207 830.911 407.927C830.911 396.648 837.395 390.164 846.035 390.164Z" fill="#1D2136" stroke="#1D2136" stroke-miterlimit="10"/>
<path d="M873.403 425.678C865.245 425.678 858.762 419.195 858.762 407.915C858.762 396.636 865.245 390.152 873.403 390.152C881.562 390.152 888.045 396.636 888.045 407.915C888.045 419.195 881.562 425.678 873.403 425.678ZM873.403 395.925C869.318 395.925 865.727 399.529 865.727 407.928C865.727 416.327 869.331 419.931 873.403 419.931C877.476 419.931 881.08 416.327 881.08 407.928C881.08 399.529 877.476 395.925 873.403 395.925Z" fill="#1D2136" stroke="#1D2136" stroke-miterlimit="10"/>
<path d="M906.759 391.133C914.195 391.133 918.521 395.447 918.521 402.171C918.521 409.606 913.243 411.776 913.243 411.776V412.017L920.919 424.73H913.484L906.759 413.21H901.24V424.73H894.516V391.133H906.759ZM901.24 407.69H906.759C909.399 407.69 911.555 405.534 911.555 402.171C911.555 398.809 909.399 396.652 906.759 396.652H901.24V407.69Z" fill="#1D2136" stroke="#1D2136" stroke-miterlimit="10"/>
<path d="M932.681 424.73H925.956V391.133H938.2C945.876 391.133 950.444 395.688 950.444 402.653C950.444 409.619 945.889 414.174 938.2 414.174H932.681V424.73ZM932.681 396.652V408.655H938.2C941.08 408.655 943.478 406.257 943.478 402.653C943.478 399.05 941.08 396.652 938.2 396.652H932.681Z" fill="#1D2136" stroke="#1D2136" stroke-miterlimit="10"/>
<path d="M968.917 425.678C960.759 425.678 954.275 419.195 954.275 407.915C954.275 396.636 960.759 390.152 968.917 390.152C977.075 390.152 983.559 396.636 983.559 407.915C983.559 419.195 977.075 425.678 968.917 425.678ZM968.917 395.925C964.832 395.925 961.241 399.529 961.241 407.928C961.241 416.327 964.844 419.931 968.917 419.931C972.99 419.931 976.593 416.327 976.593 407.928C976.593 399.529 972.99 395.925 968.917 395.925Z" fill="#1D2136" stroke="#1D2136" stroke-miterlimit="10"/>
<path d="M1002.29 391.133C1009.72 391.133 1014.05 395.447 1014.05 402.171C1014.05 409.606 1008.77 411.776 1008.77 411.776V412.017L1016.45 424.73H1009.01L1002.29 413.21H996.768V424.73H990.043V391.133H1002.29ZM996.755 407.69H1002.27C1004.91 407.69 1007.07 405.534 1007.07 402.171C1007.07 398.809 1004.91 396.652 1002.27 396.652H996.755V407.69Z" fill="#1D2136" stroke="#1D2136" stroke-miterlimit="10"/>
<path d="M1024.12 424.73H1017.16L1027.95 391.133H1036.35L1047.15 424.73H1040.18L1038.03 418.006H1026.27L1024.11 424.73H1024.12ZM1032.28 400.014H1032.04L1028.19 412.258H1036.11L1032.27 400.014H1032.28Z" fill="#1D2136" stroke="#1D2136" stroke-miterlimit="10"/>
<path d="M1072.12 391.133V396.652H1063.48V424.73H1056.76V396.652H1048.12V391.133H1072.11H1072.12Z" fill="#1D2136" stroke="#1D2136" stroke-miterlimit="10"/>
<path d="M1084.12 424.73H1077.4V391.133H1084.12V424.73Z" fill="#1D2136" stroke="#1D2136" stroke-miterlimit="10"/>
<path d="M1105.24 425.678C1097.08 425.678 1090.59 419.195 1090.59 407.915C1090.59 396.636 1097.08 390.152 1105.24 390.152C1113.39 390.152 1119.88 396.636 1119.88 407.915C1119.88 419.195 1113.39 425.678 1105.24 425.678ZM1105.24 395.925C1101.15 395.925 1097.56 399.529 1097.56 407.928C1097.56 416.327 1101.16 419.931 1105.24 419.931C1109.31 419.931 1112.91 416.327 1112.91 407.928C1112.91 399.529 1109.31 395.925 1105.24 395.925Z" fill="#1D2136" stroke="#1D2136" stroke-miterlimit="10"/>
<path d="M1145.07 411.76V391.117H1151.8V424.715H1144.69L1133.31 404.071H1133.07V424.715H1126.35V391.117H1133.45L1144.83 411.76H1145.07Z" fill="#1D2136" stroke="#1D2136" stroke-miterlimit="10"/>
<path d="M120.962 313.802C130.858 313.802 135.997 318.94 135.997 318.94L131.252 326.464C131.252 326.464 127.687 323.292 121.749 323.292C113.438 323.292 107.5 329.23 107.5 343.073C107.5 356.915 113.438 362.853 121.749 362.853C124.515 362.853 126.887 362.066 126.887 362.066V347.818H119.363V338.721H137.964V366.025C137.964 366.025 131.632 372.356 120.949 372.356C106.701 372.356 96.0176 361.673 96.0176 343.073C96.0176 324.472 106.701 313.789 120.949 313.789L120.962 313.802Z" fill="#1D2136" stroke="#1D2136" stroke-miterlimit="10"/>
<path d="M170.432 315.391C182.701 315.391 189.819 322.509 189.819 333.598C189.819 345.867 181.115 349.42 181.115 349.42V349.813L193.777 370.786H181.508L170.432 351.792H161.334V370.786H150.258V315.391H170.444H170.432ZM161.334 342.695H170.432C174.783 342.695 178.349 339.13 178.349 333.598C178.349 328.066 174.783 324.501 170.432 324.501H161.334V342.708V342.695Z" fill="#1D2136" stroke="#1D2136" stroke-miterlimit="10"/>
<path d="M222.667 372.368C209.218 372.368 198.535 361.685 198.535 343.084C198.535 324.484 209.218 313.801 222.667 313.801C236.117 313.801 246.8 324.484 246.8 343.084C246.8 361.685 236.117 372.368 222.667 372.368ZM222.667 323.304C215.943 323.304 210.005 329.242 210.005 343.084C210.005 356.927 215.943 362.865 222.667 362.865C229.392 362.865 235.33 356.927 235.33 343.084C235.33 329.242 229.392 323.304 222.667 323.304Z" fill="#1D2136" stroke="#1D2136" stroke-miterlimit="10"/>
<path d="M268.18 352.985C268.18 359.316 271.745 362.881 278.077 362.881C284.408 362.881 287.973 359.316 287.973 352.985V315.391H299.05V352.985C299.05 364.061 290.739 372.372 278.077 372.372C265.414 372.372 257.104 364.061 257.104 352.985V315.391H268.18V352.985Z" fill="#1D2136" stroke="#1D2136" stroke-miterlimit="10"/>
<path d="M323.981 370.798H312.904V315.402H333.091C345.753 315.402 353.277 322.926 353.277 334.396C353.277 345.866 345.753 353.39 333.091 353.39H323.994V370.798H323.981ZM323.981 324.5V344.28H333.078C337.823 344.28 341.782 340.321 341.782 334.383C341.782 328.445 337.823 324.487 333.078 324.487H323.981V324.5Z" fill="#1D2136" stroke="#1D2136" stroke-miterlimit="10"/>
<path d="M896.28 710.505H887.792V668.09H896.28V710.505Z" fill="#1D2136" stroke="#1D2136" stroke-miterlimit="10"/>
<path d="M920.819 710.505H907.18V668.09H920.819C931.426 668.09 939.305 675.969 939.305 689.304C939.305 702.639 931.426 710.518 920.819 710.518V710.505ZM915.668 675.055V703.54H920.819C926.275 703.54 930.513 699.302 930.513 689.304C930.513 679.306 926.275 675.068 920.819 675.068H915.668V675.055Z" fill="#1D2136" stroke="#1D2136" stroke-miterlimit="10"/>
<path d="M947.489 668.09H975.365V675.055H955.977V685.967H969.008V692.933H955.977V703.54H975.669V710.505H947.489V668.09Z" fill="#1D2136" stroke="#1D2136" stroke-miterlimit="10"/>
<path d="M986.276 710.505H977.483L991.123 668.09H1001.73L1015.37 710.505H1006.58L1003.85 702.017H989.004L986.276 710.505ZM996.579 679.306H996.274L991.427 694.76H1001.43L996.579 679.306Z" fill="#1D2136" stroke="#1D2136" stroke-miterlimit="10"/>
<path d="M1046.58 698.088C1046.58 705.663 1040.52 711.728 1030.21 711.728C1021.42 711.728 1016.88 706.272 1016.88 706.272L1020.52 700.512C1020.52 700.512 1023.86 704.445 1029.6 704.445C1035.06 704.445 1037.79 701.717 1037.79 698.075C1037.79 690.501 1018.69 694.434 1018.69 679.589C1018.69 672.624 1024.45 666.863 1033.23 666.863C1042.01 666.863 1045.65 671.71 1045.65 671.71L1042.32 677.47C1042.32 677.47 1038.98 674.133 1033.83 674.133C1029.9 674.133 1027.46 676.557 1027.46 679.589C1027.46 687.468 1046.56 683.827 1046.56 698.075L1046.58 698.088Z" fill="#1D2136" stroke="#1D2136" stroke-miterlimit="10"/>
<path d="M641.458 435.13C651.494 435.13 659.526 443.161 659.526 456.813C659.526 468.461 652.294 474.488 652.294 474.488L644.668 469.666C644.668 469.666 649.883 465.251 649.883 457.613C649.883 450.381 646.267 446.765 641.445 446.765C631.409 446.765 636.624 472.064 616.945 472.064C607.708 472.064 600.07 464.439 600.07 452.791C600.07 441.144 606.49 436.323 606.49 436.323L614.116 440.738C614.116 440.738 609.7 445.153 609.7 451.979C609.7 457.194 612.91 460.417 616.932 460.417C627.375 460.417 622.553 435.117 641.433 435.117L641.458 435.13Z" fill="#1D2136" stroke="#1D2136" stroke-miterlimit="10"/>
<path d="M657.926 420.686V432.334L601.693 414.266V400.208L657.926 382.141V393.788L646.685 397.404V417.083L657.926 420.699V420.686ZM616.564 407.022V407.428L637.042 413.848V400.589L616.564 407.009V407.022Z" fill="#1D2136" stroke="#1D2136" stroke-miterlimit="10"/>
<path d="M601.693 374.892V363.65H648.689V339.949H657.926V374.892H601.693Z" fill="#1D2136" stroke="#1D2136" stroke-miterlimit="10"/>
<path d="M601.693 331.103V294.156H610.93V319.862H625.394V302.593H634.631V319.862H648.689V293.75H657.926V331.103H601.693Z" fill="#1D2136" stroke="#1D2136" stroke-miterlimit="10"/>
<path d="M641.458 249.978C651.494 249.978 659.526 258.009 659.526 271.661C659.526 283.309 652.294 289.335 652.294 289.335L644.668 284.514C644.668 284.514 649.883 280.099 649.883 272.46C649.883 265.228 646.267 261.612 641.445 261.612C631.409 261.612 636.624 286.912 616.945 286.912C607.708 286.912 600.07 279.287 600.07 267.639C600.07 255.992 606.49 251.17 606.49 251.17L614.116 255.586C614.116 255.586 609.7 260.001 609.7 266.827C609.7 272.042 612.91 275.264 616.932 275.264C627.375 275.264 622.553 249.965 641.433 249.965L641.458 249.978Z" fill="#1D2136" stroke="#1D2136" stroke-miterlimit="10"/>
<path d="M689.253 426.817H681.361V387.383H695.724C704.732 387.383 710.087 392.737 710.087 400.908C710.087 409.079 704.732 414.433 695.724 414.433H689.241V426.829L689.253 426.817ZM689.253 393.854V407.937H695.737C699.112 407.937 701.928 405.12 701.928 400.895C701.928 396.67 699.112 393.854 695.737 393.854H689.253Z" fill="#1D2136" stroke="#1D2136" stroke-miterlimit="10"/>
<path d="M717.141 387.371H725.032V420.334H741.654V426.818H717.141V387.384V387.371Z" fill="#1D2136" stroke="#1D2136" stroke-miterlimit="10"/>
<path d="M750.943 426.817H742.772L755.448 387.383H765.306L777.981 426.817H769.81L767.273 418.925H753.468L750.931 426.817H750.943ZM760.523 397.8H760.244L755.739 412.162H765.04L760.535 397.8H760.523Z" fill="#1D2136" stroke="#1D2136" stroke-miterlimit="10"/>
<path d="M805.03 411.604V387.383H812.922V426.817H804.586L791.238 402.596H790.959V426.817H783.067V387.383H791.403L804.751 411.604H805.03Z" fill="#1D2136" stroke="#1D2136" stroke-miterlimit="10"/>
<path d="M902.851 320.004H913.128V362.978H934.799V371.428H902.851V320.017V320.004Z" fill="#1D2136" stroke="#1D2136" stroke-miterlimit="10"/>
<path d="M942.88 320.004H976.668V328.454H953.157V341.675H968.953V350.125H953.157V362.978H977.023V371.428H942.867V320.017L942.88 320.004Z" fill="#1D2136" stroke="#1D2136" stroke-miterlimit="10"/>
<path d="M989.888 371.415H979.243L995.775 320.004H1008.63L1025.16 371.415H1014.52L1011.2 361.138H993.213L989.901 371.415H989.888ZM1002.37 333.593H1002.01L996.131 352.32H1008.25L1002.37 333.593Z" fill="#1D2136" stroke="#1D2136" stroke-miterlimit="10"/>
<path d="M1048.29 371.415H1031.76V320.004H1048.29C1061.14 320.004 1070.7 329.558 1070.7 345.71C1070.7 361.861 1061.14 371.415 1048.29 371.415ZM1042.05 328.454V362.978H1048.29C1054.9 362.978 1060.04 357.839 1060.04 345.722C1060.04 333.605 1054.9 328.467 1048.29 328.467H1042.05V328.454Z" fill="#1D2136" stroke="#1D2136" stroke-miterlimit="10"/>
<path d="M1080.61 320.004H1114.39V328.454H1090.88V341.675H1106.68V350.125H1090.88V362.978H1114.75V371.428H1080.59V320.017L1080.61 320.004Z" fill="#1D2136" stroke="#1D2136" stroke-miterlimit="10"/>
<path d="M1142.31 320.004C1153.69 320.004 1160.3 326.614 1160.3 336.891C1160.3 348.272 1152.22 351.584 1152.22 351.584V351.952L1163.97 371.415H1152.59L1142.31 353.792H1133.86V371.415H1123.58V320.004H1142.31ZM1133.86 345.342H1142.31C1146.34 345.342 1149.65 342.03 1149.65 336.891C1149.65 331.753 1146.34 328.441 1142.31 328.441H1133.86V345.342Z" fill="#1D2136" stroke="#1D2136" stroke-miterlimit="10"/>
<path d="M1202.91 356.351C1202.91 365.537 1195.56 372.883 1183.07 372.883C1172.43 372.883 1166.91 366.273 1166.91 366.273L1171.31 359.294C1171.31 359.294 1175.35 364.065 1182.33 364.065C1188.94 364.065 1192.25 360.754 1192.25 356.351C1192.25 347.165 1169.11 351.948 1169.11 333.944C1169.11 325.494 1176.08 318.516 1186.73 318.516C1197.37 318.516 1201.79 324.39 1201.79 324.39L1197.75 331.368C1197.75 331.368 1193.72 327.334 1187.48 327.334C1182.71 327.334 1179.76 330.277 1179.76 333.944C1179.76 343.498 1202.91 339.083 1202.91 356.351Z" fill="#1D2136" stroke="#1D2136" stroke-miterlimit="10"/>
<path d="M1250.65 320.004V371.415H1240.37V350.112H1222.38V371.415H1212.11V320.004H1222.38V341.675H1240.37V320.004H1250.65Z" fill="#1D2136" stroke="#1D2136" stroke-miterlimit="10"/>
<path d="M1274.16 371.415H1263.88V320.004H1274.16V371.415Z" fill="#1D2136" stroke="#1D2136" stroke-miterlimit="10"/>
<path d="M1297.67 371.415H1287.39V320.004H1306.12C1317.87 320.004 1324.85 326.982 1324.85 337.627C1324.85 348.272 1317.87 355.251 1306.12 355.251H1297.67V371.415ZM1297.67 328.454V346.813H1306.12C1310.52 346.813 1314.2 343.147 1314.2 337.627C1314.2 332.108 1310.54 328.441 1306.12 328.441H1297.67V328.454Z" fill="#1D2136" stroke="#1D2136" stroke-miterlimit="10"/>
<path d="M1007.75 488.813L994.469 445.547H1003.74L1013.02 476.759H1013.32L1022.6 445.547H1031.87L1018.59 488.813H1007.78H1007.75Z" fill="#1D2136" stroke="#1D2136" stroke-miterlimit="10"/>
<path d="M1038.04 445.548H1066.47V452.653H1046.69V463.78H1059.98V470.886H1046.69V481.696H1066.78V488.801H1038.04V445.535V445.548Z" fill="#1D2136" stroke="#1D2136" stroke-miterlimit="10"/>
<path d="M1098.29 472.128V445.547H1106.95V488.813H1097.8L1083.16 462.231H1082.85V488.813H1074.2V445.547H1083.35L1097.99 472.128H1098.29Z" fill="#1D2136" stroke="#1D2136" stroke-miterlimit="10"/>
<path d="M1144.65 445.547V452.652H1133.53V488.813H1124.87V452.652H1113.75V445.547H1144.65Z" fill="#1D2136" stroke="#1D2136" stroke-miterlimit="10"/>
<path d="M1159.79 474.907C1159.79 479.855 1162.57 482.634 1167.52 482.634C1172.47 482.634 1175.25 479.855 1175.25 474.907V445.547H1183.9V474.907C1183.9 483.56 1177.4 490.043 1167.52 490.043C1157.64 490.043 1151.14 483.56 1151.14 474.907V445.547H1159.79V474.907Z" fill="#1D2136" stroke="#1D2136" stroke-miterlimit="10"/>
<path d="M1210.48 445.548C1220.06 445.548 1225.62 451.105 1225.62 459.758C1225.62 469.338 1218.82 472.116 1218.82 472.116V472.421L1228.7 488.801H1219.12L1210.47 473.969H1203.36V488.801H1194.71V445.535H1210.47L1210.48 445.548ZM1203.36 466.876H1210.47C1213.87 466.876 1216.65 464.097 1216.65 459.771C1216.65 455.444 1213.87 452.666 1210.47 452.666H1203.36V466.876Z" fill="#1D2136" stroke="#1D2136" stroke-miterlimit="10"/>
<path d="M1235.2 445.548H1263.63V452.653H1243.85V463.78H1257.13V470.886H1243.85V481.696H1263.94V488.801H1235.2V445.535V445.548Z" fill="#1D2136" stroke="#1D2136" stroke-miterlimit="10"/>
<path d="M1398.77 622.045L1355.5 635.33V626.055L1386.72 616.78V616.475L1355.5 607.201V597.926L1398.77 611.21V622.02V622.045Z" fill="#1D2136" stroke="#1D2136" stroke-miterlimit="10"/>
<path d="M1355.5 591.765V563.332H1362.61V583.112H1373.74V569.828H1380.84V583.112H1391.65V563.027H1398.76V591.765H1355.49H1355.5Z" fill="#1D2136" stroke="#1D2136" stroke-miterlimit="10"/>
<path d="M1382.07 531.505H1355.49V522.852H1398.76V532L1372.18 546.641V546.946H1398.76V555.599H1355.49V546.451L1382.07 531.809V531.505Z" fill="#1D2136" stroke="#1D2136" stroke-miterlimit="10"/>
<path d="M1355.5 485.16H1362.61V496.287H1398.77V504.941H1362.61V516.068H1355.5V485.16Z" fill="#1D2136" stroke="#1D2136" stroke-miterlimit="10"/>
<path d="M1384.86 470.005C1389.81 470.005 1392.59 467.227 1392.59 462.278C1392.59 457.33 1389.81 454.552 1384.86 454.552H1355.5V445.898H1384.86C1393.52 445.898 1400 452.395 1400 462.278C1400 472.162 1393.52 478.659 1384.86 478.659H1355.5V470.005H1384.86Z" fill="#1D2136" stroke="#1D2136" stroke-miterlimit="10"/>
<path d="M1355.5 419.321C1355.5 409.742 1361.06 404.185 1369.71 404.185C1379.29 404.185 1382.07 410.985 1382.07 410.985H1382.38L1398.76 401.102V410.681L1383.92 419.334V426.439H1398.76V435.092H1355.49V419.334L1355.5 419.321ZM1376.82 426.439V419.334C1376.82 415.934 1374.04 413.155 1369.71 413.155C1365.39 413.155 1362.61 415.934 1362.61 419.334V426.439H1376.82Z" fill="#1D2136" stroke="#1D2136" stroke-miterlimit="10"/>
<path d="M1355.5 394.605V366.172H1362.61V385.952H1373.74V372.668H1380.84V385.952H1391.65V365.867H1398.76V394.605H1355.49H1355.5Z" fill="#1D2136" stroke="#1D2136" stroke-miterlimit="10"/>
<path d="M827.003 482.47H821.142V453.148H831.825C838.524 453.148 842.508 457.132 842.508 463.197C842.508 469.262 838.524 473.246 831.825 473.246H827.003V482.457V482.47ZM827.003 457.97V468.437H831.825C834.337 468.437 836.431 466.344 836.431 463.197C836.431 460.051 834.337 457.957 831.825 457.957H827.003V457.97Z" fill="#1D2136" stroke="#1D2136" stroke-miterlimit="10"/>
<path d="M847.734 453.148H866.995V457.97H853.596V465.506H862.605V470.328H853.596V477.661H867.21V482.483H847.734V453.161V453.148Z" fill="#1D2136" stroke="#1D2136" stroke-miterlimit="10"/>
<path d="M883.122 483.308C876.005 483.308 870.346 477.649 870.346 467.816C870.346 457.983 876.005 452.324 883.122 452.324C890.24 452.324 895.899 457.983 895.899 467.816C895.899 477.649 890.24 483.308 883.122 483.308ZM883.122 457.349C879.557 457.349 876.423 460.495 876.423 467.816C876.423 475.137 879.57 478.284 883.122 478.284C886.675 478.284 889.822 475.137 889.822 467.816C889.822 460.495 886.675 457.349 883.122 457.349Z" fill="#1D2136" stroke="#1D2136" stroke-miterlimit="10"/>
<path d="M907.419 482.47H901.558V453.148H912.241C918.94 453.148 922.924 457.132 922.924 463.197C922.924 469.262 918.94 473.246 912.241 473.246H907.419V482.457V482.47ZM907.419 457.97V468.437H912.241C914.753 468.437 916.847 466.344 916.847 463.197C916.847 460.051 914.753 457.957 912.241 457.957H907.419V457.97Z" fill="#1D2136" stroke="#1D2136" stroke-miterlimit="10"/>
<path d="M928.151 453.148H934.013V477.649H946.371V482.47H928.151V453.148Z" fill="#1D2136" stroke="#1D2136" stroke-miterlimit="10"/>
<path d="M950.976 453.148H970.236V457.97H956.837V465.506H965.846V470.328H956.837V477.661H970.452V482.483H950.976V453.161V453.148Z" fill="#1D2136" stroke="#1D2136" stroke-miterlimit="10"/>
<path d="M880.522 528.411H874.025V495.93H885.863C893.286 495.93 897.701 500.332 897.701 507.07C897.701 513.807 893.298 518.21 885.863 518.21H880.522V528.423V528.411ZM880.522 501.259V512.855H885.863C888.642 512.855 890.964 510.533 890.964 507.057C890.964 503.58 888.642 501.259 885.863 501.259H880.522Z" fill="#1D2136" stroke="#1D2136" stroke-miterlimit="10"/>
<path d="M915.324 495.93C922.518 495.93 926.692 500.104 926.692 506.6C926.692 513.794 921.592 515.888 921.592 515.888V516.116L929.014 528.411H921.82L915.324 517.271H909.983V528.411H903.486V495.93H915.324ZM909.995 511.942H915.337C917.887 511.942 919.981 509.848 919.981 506.6C919.981 503.352 917.887 501.259 915.337 501.259H909.995V511.929V511.942Z" fill="#1D2136" stroke="#1D2136" stroke-miterlimit="10"/>
<path d="M945.954 529.337C938.062 529.337 931.794 523.069 931.794 512.171C931.794 501.272 938.062 495.004 945.954 495.004C953.846 495.004 960.113 501.272 960.113 512.171C960.113 523.069 953.846 529.337 945.954 529.337ZM945.954 500.561C942.008 500.561 938.531 504.038 938.531 512.158C938.531 520.278 942.008 523.755 945.954 523.755C949.9 523.755 953.376 520.278 953.376 512.158C953.376 504.038 949.9 500.561 945.954 500.561Z" fill="#1D2136" stroke="#1D2136" stroke-miterlimit="10"/>
<path d="M966.382 495.93H987.736V501.271H972.891V511.066H982.863V516.357H972.891V528.423H966.395V495.942L966.382 495.93Z" fill="#1D2136" stroke="#1D2136" stroke-miterlimit="10"/>
<path d="M999.331 528.411H992.835V495.93H999.331V528.411Z" fill="#1D2136" stroke="#1D2136" stroke-miterlimit="10"/>
<path d="M1027.64 495.93V501.271H1019.29V528.423H1012.79V501.271H1004.44V495.93H1027.65H1027.64Z" fill="#1D2136" stroke="#1D2136" stroke-miterlimit="10"/>
<path d="M112.815 447.691C120.428 447.691 124.843 452.107 124.843 458.984C124.843 466.596 119.438 468.804 119.438 468.804V469.045L127.292 482.063H119.679L112.802 470.276H107.156V482.063H100.279V447.691H112.802H112.815ZM107.169 464.63H112.815C115.517 464.63 117.725 462.422 117.725 458.984C117.725 455.545 115.517 453.338 112.815 453.338H107.169V464.63Z" fill="#1D2136" stroke="#1D2136" stroke-miterlimit="10"/>
<path d="M132.457 447.691H155.041V453.338H139.334V462.181H149.89V467.827H139.334V476.417H155.295V482.063H132.457V447.691Z" fill="#1D2136" stroke="#1D2136" stroke-miterlimit="10"/>
<path d="M182.053 471.997C182.053 478.138 177.143 483.048 168.794 483.048C161.677 483.048 157.997 478.633 157.997 478.633L160.941 473.964C160.941 473.964 163.643 477.161 168.3 477.161C172.715 477.161 174.923 474.953 174.923 472.01C174.923 465.869 159.456 469.066 159.456 457.038C159.456 451.392 164.125 446.723 171.243 446.723C178.361 446.723 181.305 450.656 181.305 450.656L178.602 455.325C178.602 455.325 175.9 452.623 171.725 452.623C168.528 452.623 166.574 454.589 166.574 457.038C166.574 463.42 182.041 460.476 182.041 472.01L182.053 471.997Z" fill="#1D2136" stroke="#1D2136" stroke-miterlimit="10"/>
<path d="M195.057 482.063H188.181V447.691H200.704C208.557 447.691 213.227 452.361 213.227 459.478C213.227 466.596 208.557 471.265 200.704 471.265H195.057V482.063ZM195.057 453.338V465.607H200.704C203.647 465.607 206.109 463.158 206.109 459.466C206.109 455.774 203.647 453.325 200.704 453.325H195.057V453.338Z" fill="#1D2136" stroke="#1D2136" stroke-miterlimit="10"/>
<path d="M232.132 483.049C223.783 483.049 217.16 476.426 217.16 464.88C217.16 453.334 223.783 446.711 232.132 446.711C240.48 446.711 247.104 453.334 247.104 464.88C247.104 476.426 240.48 483.049 232.132 483.049ZM232.132 452.598C227.958 452.598 224.278 456.278 224.278 464.867C224.278 473.457 227.958 477.136 232.132 477.136C236.306 477.136 239.986 473.457 239.986 464.867C239.986 456.278 236.306 452.598 232.132 452.598Z" fill="#1D2136" stroke="#1D2136" stroke-miterlimit="10"/>
<path d="M272.899 468.804V447.691H279.776V482.063H272.506L260.871 460.95H260.63V482.063H253.753V447.691H261.023L272.658 468.804H272.899Z" fill="#1D2136" stroke="#1D2136" stroke-miterlimit="10"/>
<path d="M309.476 471.997C309.476 478.138 304.566 483.048 296.217 483.048C289.099 483.048 285.42 478.633 285.42 478.633L288.364 473.964C288.364 473.964 291.066 477.161 295.722 477.161C300.138 477.161 302.346 474.953 302.346 472.01C302.346 465.869 286.879 469.066 286.879 457.038C286.879 451.392 291.548 446.723 298.666 446.723C305.784 446.723 308.728 450.656 308.728 450.656L306.025 455.325C306.025 455.325 303.323 452.623 299.148 452.623C295.951 452.623 293.997 454.589 293.997 457.038C293.997 463.42 309.463 460.476 309.463 472.01L309.476 471.997Z" fill="#1D2136" stroke="#1D2136" stroke-miterlimit="10"/>
<path d="M322.496 482.063H315.619V447.691H322.496V482.063Z" fill="#1D2136" stroke="#1D2136" stroke-miterlimit="10"/>
<path d="M331.326 447.688H343.608C350.967 447.688 354.659 451.368 354.659 457.014C354.659 462.66 349.99 463.739 349.99 463.739V464.03C349.99 464.03 356.613 465.35 356.613 472.227C356.613 478.114 352.68 482.047 345.08 482.047H331.326V447.676V447.688ZM347.529 457.509C347.529 454.806 346.057 453.335 343.595 453.335H338.19V461.683H343.595C346.057 461.683 347.529 460.211 347.529 457.509ZM338.203 467.329V476.414H345.08C347.782 476.414 349.495 474.701 349.495 471.998C349.495 469.055 347.782 467.329 345.08 467.329H338.203Z" fill="#1D2136" stroke="#1D2136" stroke-miterlimit="10"/>
<path d="M369.631 482.063H362.754V447.691H369.631V482.063Z" fill="#1D2136" stroke="#1D2136" stroke-miterlimit="10"/>
<path d="M378.475 447.691H385.351V476.417H399.841V482.063H378.487V447.691H378.475Z" fill="#1D2136" stroke="#1D2136" stroke-miterlimit="10"/>
<path d="M412.107 482.063H405.23V447.691H412.107V482.063Z" fill="#1D2136" stroke="#1D2136" stroke-miterlimit="10"/>
<path d="M442.052 447.691V453.338H433.209V482.063H426.332V453.338H417.488V447.691H442.039H442.052Z" fill="#1D2136" stroke="#1D2136" stroke-miterlimit="10"/>
<path d="M464.397 447.691H471.515L460.717 471.265V482.063H453.84V471.265L443.043 447.691H450.161L457.139 462.917H457.431L464.409 447.691H464.397Z" fill="#1D2136" stroke="#1D2136" stroke-miterlimit="10"/>
<path d="M690.406 313.923C696.813 313.923 700.137 317.247 700.137 317.247L697.067 322.107C697.067 322.107 694.758 320.064 690.926 320.064C685.546 320.064 681.702 323.908 681.702 332.866C681.702 341.823 685.546 345.668 690.926 345.668C695.278 345.668 697.587 343.105 697.587 343.105L700.657 347.964C700.657 347.964 697.067 351.809 690.418 351.809C681.194 351.809 674.279 344.894 674.279 332.866C674.279 320.838 681.194 313.91 690.418 313.91L690.406 313.923Z" fill="#1D2136" stroke="#1D2136" stroke-miterlimit="10"/>
<path d="M713.194 339.276C713.194 343.374 715.503 345.683 719.601 345.683C723.7 345.683 726.009 343.374 726.009 339.276V314.953H733.177V339.276C733.177 346.444 727.798 351.824 719.601 351.824C711.405 351.824 706.025 346.444 706.025 339.276V314.953H713.194V339.276Z" fill="#1D2136" stroke="#1D2136" stroke-miterlimit="10"/>
<path d="M742.135 314.95H749.303V344.906H764.415V350.793H742.135V314.938V314.95Z" fill="#1D2136" stroke="#1D2136" stroke-miterlimit="10"/>
<path d="M792.074 314.953V320.84H782.85V350.796H775.681V320.84H766.457V314.953H792.061H792.074Z" fill="#1D2136" stroke="#1D2136" stroke-miterlimit="10"/>
<path d="M804.622 339.276C804.622 343.374 806.931 345.683 811.029 345.683C815.127 345.683 817.437 343.374 817.437 339.276V314.953H824.605V339.276C824.605 346.444 819.226 351.824 811.029 351.824C802.833 351.824 797.453 346.444 797.453 339.276V314.953H804.622V339.276Z" fill="#1D2136" stroke="#1D2136" stroke-miterlimit="10"/>
<path d="M846.618 314.95C854.561 314.95 859.167 319.556 859.167 326.725C859.167 334.667 853.533 336.964 853.533 336.964V337.217L861.73 350.793H853.787L846.618 338.499H840.731V350.793H833.562V314.938H846.618V314.95ZM840.731 332.612H846.618C849.435 332.612 851.744 330.303 851.744 326.725C851.744 323.147 849.435 320.837 846.618 320.837H840.731V332.612Z" fill="#1D2136" stroke="#1D2136" stroke-miterlimit="10"/>
<path d="M867.109 314.95H890.671V320.837H874.278V330.061H885.291V335.949H874.278V344.906H890.924V350.793H867.109V314.938V314.95Z" fill="#1D2136" stroke="#1D2136" stroke-miterlimit="10"/>
<path d="M1084.91 541.784C1078.34 541.784 1073.11 536.557 1073.11 527.472C1073.11 518.388 1078.34 513.16 1084.91 513.16C1091.48 513.16 1096.71 518.388 1096.71 527.472C1096.71 536.557 1091.48 541.784 1084.91 541.784ZM1084.91 517.804C1081.62 517.804 1078.72 520.709 1078.72 527.472C1078.72 534.235 1081.62 537.14 1084.91 537.14C1088.2 537.14 1091.1 534.235 1091.1 527.472C1091.1 520.709 1088.2 517.804 1084.91 517.804Z" fill="#1D2136" stroke="#1D2136" stroke-miterlimit="10"/>
<path d="M1111.79 513.934C1117.8 513.934 1121.27 517.41 1121.27 522.828C1121.27 528.816 1117.02 530.567 1117.02 530.567V530.758L1123.21 541.01H1117.22L1111.81 531.722H1107.35V541.01H1101.94V513.934H1111.79ZM1107.35 527.281H1111.81C1113.94 527.281 1115.68 525.543 1115.68 522.828C1115.68 520.113 1113.94 518.374 1111.81 518.374H1107.35V527.269V527.281Z" fill="#1D2136" stroke="#1D2136" stroke-miterlimit="10"/>
<path d="M1137.72 513.16C1142.55 513.16 1145.06 515.672 1145.06 515.672L1142.74 519.352C1142.74 519.352 1141 517.804 1138.1 517.804C1134.04 517.804 1131.13 520.709 1131.13 527.472C1131.13 534.235 1134.04 537.14 1138.1 537.14C1139.45 537.14 1140.61 536.76 1140.61 536.76V529.794H1136.93V525.341H1146.01V538.688C1146.01 538.688 1142.92 541.784 1137.7 541.784C1130.74 541.784 1125.52 536.557 1125.52 527.472C1125.52 518.388 1130.75 513.16 1137.7 513.16H1137.72Z" fill="#1D2136" stroke="#1D2136" stroke-miterlimit="10"/>
<path d="M1154.15 541.01H1148.54L1157.24 513.934H1164.01L1172.71 541.01H1167.1L1165.36 535.592H1155.89L1154.15 541.01ZM1160.73 521.09H1160.54L1157.45 530.948H1163.83L1160.73 521.09Z" fill="#1D2136" stroke="#1D2136" stroke-miterlimit="10"/>
<path d="M1191.28 530.567V513.934H1196.7V541.01H1190.98L1181.82 524.376H1181.63V541.01H1176.21V513.934H1181.93L1191.09 530.567H1191.28Z" fill="#1D2136" stroke="#1D2136" stroke-miterlimit="10"/>
<path d="M1209.07 541.01H1203.66V513.934H1209.07V541.01Z" fill="#1D2136" stroke="#1D2136" stroke-miterlimit="10"/>
<path d="M1232.48 533.08C1232.48 537.914 1228.61 541.784 1222.04 541.784C1216.43 541.784 1213.53 538.308 1213.53 538.308L1215.85 534.628C1215.85 534.628 1217.98 537.14 1221.65 537.14C1225.12 537.14 1226.87 535.402 1226.87 533.08C1226.87 528.246 1214.69 530.758 1214.69 521.28C1214.69 516.827 1218.37 513.16 1223.98 513.16C1229.59 513.16 1231.91 516.256 1231.91 516.256L1229.78 519.935C1229.78 519.935 1227.65 517.804 1224.36 517.804C1221.85 517.804 1220.3 519.352 1220.3 521.28C1220.3 526.305 1232.48 523.983 1232.48 533.08Z" fill="#1D2136" stroke="#1D2136" stroke-miterlimit="10"/>
<path d="M1239.43 541.01H1233.83L1242.53 513.934H1249.29L1258 541.01H1252.39L1250.65 535.592H1241.17L1239.43 541.01ZM1246.02 521.09H1245.83L1242.73 530.948H1249.12L1246.02 521.09Z" fill="#1D2136" stroke="#1D2136" stroke-miterlimit="10"/>
<path d="M1278.12 513.934V518.387H1271.15V541.01H1265.74V518.387H1258.77V513.934H1278.11H1278.12Z" fill="#1D2136" stroke="#1D2136" stroke-miterlimit="10"/>
<path d="M1287.79 541.01H1282.37V513.934H1287.79V541.01Z" fill="#1D2136" stroke="#1D2136" stroke-miterlimit="10"/>
<path d="M1304.8 541.784C1298.23 541.784 1293 536.557 1293 527.472C1293 518.388 1298.23 513.16 1304.8 513.16C1311.37 513.16 1316.6 518.388 1316.6 527.472C1316.6 536.557 1311.37 541.784 1304.8 541.784ZM1304.8 517.804C1301.51 517.804 1298.61 520.709 1298.61 527.472C1298.61 534.235 1301.51 537.14 1304.8 537.14C1308.09 537.14 1310.99 534.235 1310.99 527.472C1310.99 520.709 1308.09 517.804 1304.8 517.804Z" fill="#1D2136" stroke="#1D2136" stroke-miterlimit="10"/>
<path d="M1336.92 530.567V513.934H1342.33V541.01H1336.61L1327.45 524.376H1327.26V541.01H1321.84V513.934H1327.57L1336.73 530.567H1336.92Z" fill="#1D2136" stroke="#1D2136" stroke-miterlimit="10"/>
<path d="M1191.56 388.329C1198.07 388.329 1201.46 391.717 1201.46 391.717L1198.34 396.665C1198.34 396.665 1195.99 394.584 1192.08 394.584C1186.62 394.584 1182.71 398.492 1182.71 407.602C1182.71 416.712 1186.62 420.62 1192.08 420.62C1193.91 420.62 1195.47 420.1 1195.47 420.1V410.723H1190.52V404.735H1202.77V422.701C1202.77 422.701 1198.61 426.862 1191.56 426.862C1182.19 426.862 1175.16 419.833 1175.16 407.589C1175.16 395.345 1182.19 388.316 1191.56 388.316V388.329Z" fill="#1D2136" stroke="#1D2136" stroke-miterlimit="10"/>
<path d="M1224.39 426.874C1215.53 426.874 1208.5 419.845 1208.5 407.601C1208.5 395.357 1215.53 388.328 1224.39 388.328C1233.25 388.328 1240.27 395.357 1240.27 407.601C1240.27 419.845 1233.25 426.874 1224.39 426.874ZM1224.39 394.583C1219.96 394.583 1216.05 398.491 1216.05 407.601C1216.05 416.711 1219.96 420.619 1224.39 420.619C1228.82 420.619 1232.73 416.711 1232.73 407.601C1232.73 398.491 1228.82 394.583 1224.39 394.583Z" fill="#1D2136" stroke="#1D2136" stroke-miterlimit="10"/>
<path d="M1250.17 425.832H1242.62L1254.34 389.367H1263.45L1275.18 425.832H1267.63L1265.28 418.537H1252.52L1250.17 425.832ZM1259.03 399.01H1258.76L1254.6 412.294H1263.19L1259.03 399.01Z" fill="#1D2136" stroke="#1D2136" stroke-miterlimit="10"/>
<path d="M1279.86 389.367H1287.15V419.843H1302.52V425.832H1279.86V389.367Z" fill="#1D2136" stroke="#1D2136" stroke-miterlimit="10"/>
<path d="M1330.4 415.165C1330.4 421.674 1325.18 426.889 1316.34 426.889C1308.79 426.889 1304.88 422.207 1304.88 422.207L1308 417.258C1308 417.258 1310.87 420.646 1315.82 420.646C1320.51 420.646 1322.85 418.299 1322.85 415.178C1322.85 408.669 1306.44 412.056 1306.44 399.292C1306.44 393.304 1311.39 388.355 1318.94 388.355C1326.49 388.355 1329.62 392.517 1329.62 392.517L1326.75 397.465C1326.75 397.465 1323.89 394.598 1319.46 394.598C1316.07 394.598 1313.99 396.679 1313.99 399.28C1313.99 406.055 1330.4 402.921 1330.4 415.165Z" fill="#1D2136" stroke="#1D2136" stroke-miterlimit="10"/>
<path d="M759.782 724.563V708.272C759.782 698.49 764.667 693.605 772.166 693.605C779.664 693.605 781.098 699.797 781.098 699.797H781.491C781.491 699.797 783.255 691.004 792.377 691.004C800.193 691.004 805.408 696.219 805.408 706.318V724.563H759.782ZM772.813 703.057C769.222 703.057 767.268 705.011 767.268 708.272V715.441H778.345V708.272C778.345 705.011 776.391 703.057 772.8 703.057H772.813ZM785.856 715.441H797.909V706.318C797.909 702.728 795.625 700.456 792.047 700.456C788.14 700.456 785.856 702.74 785.856 706.318V715.441Z" fill="#1D2136" stroke="#1D2136" stroke-miterlimit="10"/>
<path d="M759.782 666.223C759.782 656.124 765.644 650.249 774.779 650.249C784.879 650.249 787.81 657.418 787.81 657.418H788.14L805.408 646.988V657.088L789.764 666.21V673.709H805.408V682.832H759.782V666.21V666.223ZM782.265 673.722V666.223C782.265 662.632 779.334 659.702 774.767 659.702C770.199 659.702 767.268 662.632 767.268 666.223V673.722H782.265Z" fill="#1D2136" stroke="#1D2136" stroke-miterlimit="10"/>
<path d="M805.408 636.558V646.01L759.782 631.343V619.937L805.408 605.27V614.722L796.285 617.653V633.627L805.408 636.558ZM771.836 625.481V625.811L788.457 631.026V620.267L771.836 625.481Z" fill="#1D2136" stroke="#1D2136" stroke-miterlimit="10"/>
<path d="M787.81 573.994H759.782V564.871H805.408V574.514L777.38 589.955V590.285H805.408V599.407H759.782V589.765L787.81 574.324V573.994Z" fill="#1D2136" stroke="#1D2136" stroke-miterlimit="10"/>
<path d="M805.408 538.468V553.135H759.782V538.468C759.782 527.061 768.258 518.586 782.595 518.586C796.932 518.586 805.408 527.061 805.408 538.468ZM767.281 544H797.909V538.455C797.909 532.593 793.342 528.026 782.595 528.026C771.848 528.026 767.281 532.593 767.281 538.455V544Z" fill="#1D2136" stroke="#1D2136" stroke-miterlimit="10"/>
<path d="M347.121 494.324C355.317 494.324 359.58 498.587 359.58 498.587L355.647 504.817C355.647 504.817 352.691 502.191 347.78 502.191C340.891 502.191 335.981 507.114 335.981 518.583C335.981 530.053 340.904 534.976 347.78 534.976C353.35 534.976 356.307 531.703 356.307 531.703L360.24 537.932C360.24 537.932 355.647 542.855 347.121 542.855C335.321 542.855 326.465 533.999 326.465 518.596C326.465 503.193 335.321 494.337 347.121 494.337V494.324Z" fill="#1D2136" stroke="#1D2136" stroke-miterlimit="10"/>
<path d="M384.5 542.843C373.347 542.843 364.504 533.987 364.504 518.583C364.504 503.18 373.36 494.324 384.5 494.324C395.64 494.324 404.496 503.18 404.496 518.583C404.496 533.987 395.64 542.843 384.5 542.843ZM384.5 502.191C378.93 502.191 374.007 507.114 374.007 518.583C374.007 530.053 378.93 534.976 384.5 534.976C390.07 534.976 394.993 530.053 394.993 518.583C394.993 507.114 390.07 502.191 384.5 502.191Z" fill="#1D2136" stroke="#1D2136" stroke-miterlimit="10"/>
<path d="M431.71 534.971L423.843 513.326H423.513L420.887 541.518H411.384L415.647 495.613H425.81L434.996 520.862H435.326L444.512 495.613H454.675L458.938 541.518H449.435L446.808 513.326H446.478L438.612 534.971H431.722H431.71Z" fill="#1D2136" stroke="#1D2136" stroke-miterlimit="10"/>
<path d="M487.118 534.971L479.251 513.326H478.922L476.295 541.518H466.792L471.055 495.613H481.218L490.404 520.862H490.734L499.92 495.613H510.083L514.346 541.518H504.843L502.217 513.326H501.887L494.02 534.971H487.131H487.118Z" fill="#1D2136" stroke="#1D2136" stroke-miterlimit="10"/>
<path d="M524.18 495.631H554.339V503.167H533.353V514.967H547.449V522.504H533.353V533.974H554.669V541.51H524.18V495.605V495.631Z" fill="#1D2136" stroke="#1D2136" stroke-miterlimit="10"/>
<path d="M579.259 495.629C589.422 495.629 595.322 501.529 595.322 510.715C595.322 520.878 588.102 523.834 588.102 523.834V524.164L598.595 541.546H588.432L579.246 525.813H571.709V541.546H562.523V495.642H579.246L579.259 495.629ZM571.722 518.251H579.259C582.862 518.251 585.818 515.295 585.818 510.715C585.818 506.134 582.862 503.178 579.259 503.178H571.722V518.264V518.251Z" fill="#1D2136" stroke="#1D2136" stroke-miterlimit="10"/>
<path d="M623.196 494.324C631.392 494.324 635.655 498.587 635.655 498.587L631.722 504.817C631.722 504.817 628.766 502.191 623.856 502.191C616.966 502.191 612.056 507.114 612.056 518.583C612.056 530.053 616.979 534.976 623.856 534.976C629.426 534.976 632.382 531.703 632.382 531.703L636.315 537.932C636.315 537.932 631.722 542.855 623.196 542.855C611.396 542.855 602.54 533.999 602.54 518.596C602.54 503.193 611.396 494.337 623.196 494.337V494.324Z" fill="#1D2136" stroke="#1D2136" stroke-miterlimit="10"/>
<path d="M652.707 541.534H643.521V495.629H652.707V541.534Z" fill="#1D2136" stroke="#1D2136" stroke-miterlimit="10"/>
<path d="M668.111 541.534H658.607L673.363 495.629H684.833L699.589 541.534H690.086L687.13 532.348H671.067L668.111 541.534ZM679.263 507.759H678.933L673.693 524.481H684.516L679.276 507.759H679.263Z" fill="#1D2136" stroke="#1D2136" stroke-miterlimit="10"/>
<path d="M705.49 495.626H714.676V533.981H734.025V541.518H705.503V495.613L705.49 495.626Z" fill="#1D2136" stroke="#1D2136" stroke-miterlimit="10"/>
<path d="M613.428 218.228C601.793 218.228 592.557 208.991 592.557 192.903C592.557 176.815 601.793 167.578 613.428 167.578C625.063 167.578 634.3 176.815 634.3 192.903C634.3 208.991 625.063 218.228 613.428 218.228ZM613.428 175.787C607.604 175.787 602.479 180.926 602.479 192.903C602.479 204.88 607.617 210.019 613.428 210.019C619.239 210.019 624.378 204.88 624.378 192.903C624.378 180.926 619.239 175.787 613.428 175.787Z" fill="#1D2136" stroke="#1D2136" stroke-miterlimit="10"/>
<path d="M643.55 168.95H675.028V176.817H653.129V191.255H667.847V199.059H653.129V216.847H643.55V168.938V168.95Z" fill="#1D2136" stroke="#1D2136" stroke-miterlimit="10"/>
<path d="M682.552 168.95H714.03V176.817H692.131V191.255H706.849V199.059H692.131V216.847H682.552V168.938V168.95Z" fill="#1D2136" stroke="#1D2136" stroke-miterlimit="10"/>
<path d="M731.146 216.855H721.566V168.945H731.146V216.855Z" fill="#1D2136" stroke="#1D2136" stroke-miterlimit="10"/>
<path d="M761.952 167.578C770.504 167.578 774.957 172.032 774.957 172.032L770.846 178.528C770.846 178.528 767.763 175.787 762.637 175.787C755.456 175.787 750.317 180.926 750.317 192.903C750.317 204.88 755.456 210.019 762.637 210.019C768.461 210.019 771.532 206.593 771.532 206.593L775.642 213.09C775.642 213.09 770.846 218.228 761.952 218.228C749.632 218.228 740.396 208.991 740.396 192.903C740.396 176.815 749.632 167.578 761.952 167.578Z" fill="#1D2136" stroke="#1D2136" stroke-miterlimit="10"/>
<path d="M783.167 168.95H814.646V176.817H792.746V189.137H807.464V197.003H792.746V208.98H814.988V216.847H783.167V168.938V168.95Z" fill="#1D2136" stroke="#1D2136" stroke-miterlimit="10"/>
</g>
<path opacity="0.03" d="M745.014 576.413C1065.02 576.413 1324.43 557.761 1324.43 534.753C1324.43 511.745 1065.02 493.094 745.014 493.094C425.012 493.094 165.599 511.745 165.599 534.753C165.599 557.761 425.012 576.413 745.014 576.413Z" fill="#1D2136" stroke="#1D2136" stroke-miterlimit="10"/>
<path d="M718.618 354.105H721.795V259.928H718.618V354.105Z" fill="#595959"/>
<path d="M774.193 259.926H721.795V292.239H774.193V259.926Z" fill="#FF7761"/>
<path d="M774.183 295.721H798.108L787.717 280.707L798.108 265.703H774.183V295.721Z" fill="#FF7761"/>
<g style="mix-blend-mode:multiply">
<path d="M774.185 295.721H798.11L787.719 280.707L798.11 265.703H774.185V295.721Z" fill="#F0F0F0"/>
</g>
<path d="M587.22 307.938H172.452V361.217" stroke="#1D2136" stroke-width="3.37" stroke-miterlimit="10" stroke-dasharray="8 8"/>
<path d="M162.41 293.767L146.623 317.78L154.457 357.198L169.384 330.292C169.678 329.845 169.819 329.269 169.765 328.703L165.794 294.942C165.598 292.951 163.444 292.19 162.41 293.756V293.767Z" fill="#FF7761"/>
<path d="M207.866 293.767L223.642 317.78L215.809 357.198L200.882 330.292C200.588 329.845 200.446 329.269 200.501 328.703L204.472 294.942C204.668 292.951 206.822 292.19 207.856 293.756L207.866 293.767Z" fill="#FF7761"/>
<path d="M187.097 429.981C186.379 432.233 183.191 432.211 182.494 429.959L162.094 364.527C157.188 351.808 166.087 337.729 179.709 337.218C179.992 337.218 180.286 337.207 180.569 337.207L189.686 337.24C189.98 337.24 190.263 337.24 190.546 337.261C204.167 337.86 212.958 352.004 207.965 364.69L187.097 429.97V429.981Z" fill="#FFE854"/>
<g style="mix-blend-mode:multiply">
<path d="M187.097 429.981C186.379 432.233 183.191 432.211 182.494 429.959L162.094 364.527C157.188 351.808 166.087 337.729 179.709 337.218C179.992 337.218 180.286 337.207 180.569 337.207L189.686 337.24C189.98 337.24 190.263 337.24 190.546 337.261C204.167 337.86 212.958 352.004 207.965 364.69L187.097 429.97V429.981Z" fill="#EDEDED"/>
</g>
<path d="M186.455 411.206C185.955 412.751 183.768 412.751 183.278 411.195L169.21 366.075C165.827 357.306 171.963 347.59 181.352 347.242C181.548 347.242 181.744 347.242 181.951 347.242L188.239 347.264C188.435 347.264 188.631 347.264 188.838 347.275C198.227 347.688 204.287 357.448 200.849 366.195L186.466 411.217L186.455 411.206Z" fill="#FFE854"/>
<path d="M184.475 162.368L171.691 183.388C161.681 199.849 155.654 218.378 154.055 237.483C153.598 242.945 153.739 248.439 154.414 253.879L166.262 328.016L203.7 328.146L214.036 259.689C217.082 233.349 211.762 206.627 198.314 183.779C197.944 183.159 197.575 182.539 197.205 181.93L185.237 162.357C185.063 162.074 184.649 162.074 184.475 162.357V162.368Z" fill="#F2F2F2"/>
<path d="M206.486 200.556C204.223 194.779 201.503 189.165 198.326 183.769C197.956 183.148 197.586 182.528 197.216 181.919L185.237 162.357C185.063 162.074 184.649 162.074 184.475 162.357L171.691 183.377C168.373 188.839 165.49 194.54 163.063 200.404L206.486 200.556Z" fill="#FF7761"/>
<path d="M201.425 333.097L168.851 332.977C166.457 332.977 164.531 331.018 164.531 328.636C164.531 326.242 166.49 324.316 168.872 324.316L201.447 324.436C203.841 324.436 205.766 326.394 205.766 328.777C205.766 331.171 203.808 333.097 201.425 333.097Z" fill="#ABABAB"/>
<path d="M179.796 310.664C179.742 310.914 179.72 311.186 179.742 311.458L184.018 354.771C184.126 356.218 185.084 356.109 185.182 354.641L188.924 310.544C188.946 310.272 188.924 310 188.87 309.771C188.87 309.771 184.507 291.95 184.333 291.906C184.094 291.852 179.796 310.674 179.796 310.674V310.664Z" fill="#FF7761"/>
<path d="M197.22 252.527C204.205 245.542 204.205 234.216 197.22 227.231C190.235 220.246 178.909 220.246 171.924 227.231C164.939 234.216 164.939 245.542 171.924 252.527C178.909 259.512 190.235 259.512 197.22 252.527Z" fill="#FF7761"/>
<path d="M197.585 239.919C197.563 247.111 191.709 252.91 184.529 252.888C177.337 252.867 171.538 247.013 171.56 239.832C171.581 232.641 177.435 226.842 184.616 226.863C191.807 226.885 197.606 232.739 197.585 239.919Z" fill="#ABABAB"/>
<path d="M252.747 352.043C283.515 352.043 299.509 368.037 299.509 368.037L284.745 391.418C284.745 391.418 273.669 381.571 255.206 381.571C229.366 381.571 210.902 400.035 210.902 443.109C210.902 486.183 229.366 504.646 255.206 504.646C276.128 504.646 287.204 492.341 287.204 492.341L301.968 515.722C301.968 515.722 284.734 534.185 252.747 534.185C208.443 534.185 175.216 500.958 175.216 443.12C175.216 385.281 208.443 352.054 252.747 352.054V352.043Z" fill="#3D4560" stroke="#3D4560" stroke-miterlimit="10"/>
<path d="M393.045 534.186C351.2 534.186 317.973 500.959 317.973 443.12C317.973 385.282 351.2 352.055 393.045 352.055C434.889 352.055 468.117 385.282 468.117 443.12C468.117 500.959 434.889 534.186 393.045 534.186ZM393.045 381.583C372.122 381.583 353.659 400.046 353.659 443.12C353.659 486.194 372.122 504.658 393.045 504.658C413.967 504.658 432.43 486.194 432.43 443.12C432.43 400.046 413.967 381.583 393.045 381.583Z" fill="#3D4560" stroke="#3D4560" stroke-miterlimit="10"/>
<path d="M570.258 504.647L540.718 423.428H539.489L529.643 529.269H493.956L509.95 356.973H548.095L582.552 451.738H583.781L618.238 356.973H656.395L672.388 529.269H636.702L626.855 423.428H625.626L596.087 504.647H570.247H570.258Z" fill="#3D4560" stroke="#3D4560" stroke-miterlimit="10"/>
<path d="M743.784 529.253H709.327V356.957H772.094C811.48 356.957 834.861 380.338 834.861 416.025C834.861 451.711 811.48 475.092 772.094 475.092H743.784V529.242V529.253ZM743.784 385.267V446.804H772.094C786.858 446.804 799.174 434.499 799.174 416.035C799.174 397.572 786.869 385.267 772.094 385.267H743.784Z" fill="#3D4560" stroke="#3D4560" stroke-miterlimit="10"/>
<path d="M879.163 529.253H843.477L898.856 356.957H941.93L997.309 529.253H961.623L950.547 494.796H890.25L879.174 529.253H879.163ZM920.997 402.501H919.767L900.074 465.268H940.689L920.997 402.501Z" fill="#3D4560" stroke="#3D4560" stroke-miterlimit="10"/>
<path d="M1115.44 462.798V356.957H1149.9V529.253H1113.48L1055.15 423.412H1053.92V529.253H1019.46V356.957H1055.89L1114.21 462.798H1115.44Z" fill="#3D4560" stroke="#3D4560" stroke-miterlimit="10"/>
<path d="M1279.12 356.973H1314.81L1260.66 475.119V529.269H1226.2V475.119L1172.05 356.973H1207.74L1242.69 433.274H1244.17L1279.11 356.973H1279.12Z" fill="#3D4560" stroke="#3D4560" stroke-miterlimit="10"/>
<g opacity="0.4">
<path d="M1041.61 162.367V168.449H1032.09V199.37H1024.69V168.449H1015.17V162.367H1041.6H1041.61Z" fill="#3A415B" stroke="#1D2136" stroke-miterlimit="10"/>
<path d="M1047.43 162.367H1071.75V168.449H1054.83V177.958H1066.2V184.04H1054.83V193.288H1072.01V199.37H1047.43V162.367Z" fill="#3A415B" stroke="#1D2136" stroke-miterlimit="10"/>
<path d="M1081.26 199.37H1073.6L1085.49 162.367H1094.74L1106.63 199.37H1098.97L1096.59 191.972H1083.64L1081.26 199.37ZM1090.25 172.148H1089.99L1085.75 185.629H1094.48L1090.25 172.148Z" fill="#3A415B" stroke="#1D2136" stroke-miterlimit="10"/>
<path d="M1126.19 194.082L1119.85 176.642H1119.59L1117.48 199.37H1109.82L1113.26 162.367H1121.45L1128.85 182.713H1129.11L1136.51 162.367H1144.7L1148.14 199.37H1140.48L1138.37 176.642H1138.11L1131.76 194.082H1126.22H1126.19Z" fill="#3A415B" stroke="#1D2136" stroke-miterlimit="10"/>
<path d="M1184.6 187.214H1184.86L1190.15 162.375H1198.08L1190.15 199.378H1180.36L1175.34 174.539H1175.08L1170.05 199.378H1160.27L1152.34 162.375H1160L1165.55 187.214H1165.81L1170.83 162.375H1179.56L1184.59 187.214H1184.6Z" fill="#3A415B" stroke="#1D2136" stroke-miterlimit="10"/>
<path d="M1217.64 200.421C1208.65 200.421 1201.51 193.284 1201.51 180.859C1201.51 168.434 1208.65 161.297 1217.64 161.297C1226.63 161.297 1233.76 168.434 1233.76 180.859C1233.76 193.284 1226.63 200.421 1217.64 200.421ZM1217.64 167.651C1213.15 167.651 1209.19 171.611 1209.19 180.87C1209.19 190.129 1213.15 194.089 1217.64 194.089C1222.13 194.089 1226.09 190.129 1226.09 180.87C1226.09 171.611 1222.13 167.651 1217.64 167.651Z" fill="#3A415B" stroke="#1D2136" stroke-miterlimit="10"/>
<path d="M1254.38 162.362C1262.57 162.362 1267.33 167.117 1267.33 174.515C1267.33 182.708 1261.52 185.091 1261.52 185.091V185.352L1269.97 199.354H1261.78L1254.38 186.668H1248.3V199.354H1240.9V162.352H1254.38V162.362ZM1248.3 180.608H1254.38C1257.29 180.608 1259.67 178.226 1259.67 174.526C1259.67 170.827 1257.29 168.444 1254.38 168.444H1248.3V180.597V180.608Z" fill="#3A415B" stroke="#1D2136" stroke-miterlimit="10"/>
<path d="M1282.93 199.37H1275.53V162.367H1282.93V179.014H1283.25L1295.08 162.367H1303.28L1292.18 177.958L1304.07 199.37H1296.14L1287.69 184.04L1282.93 190.644V199.37Z" fill="#3A415B" stroke="#1D2136" stroke-miterlimit="10"/>
</g>
<g opacity="0.4">
<path d="M295.19 586.453C303.459 586.453 307.756 590.751 307.756 590.751L303.785 597.039C303.785 597.039 300.804 594.396 295.843 594.396C288.89 594.396 283.929 599.357 283.929 610.933C283.929 622.509 288.89 627.471 295.843 627.471C301.468 627.471 304.449 624.163 304.449 624.163L308.42 630.452C308.42 630.452 303.785 635.413 295.19 635.413C283.276 635.413 274.344 626.481 274.344 610.933C274.344 595.386 283.276 586.453 295.19 586.453Z" fill="#3A415B" stroke="#1D2136" stroke-miterlimit="10"/>
<path d="M332.899 635.413C321.649 635.413 312.717 626.481 312.717 610.933C312.717 595.386 321.649 586.453 332.899 586.453C344.149 586.453 353.082 595.386 353.082 610.933C353.082 626.481 344.149 635.413 332.899 635.413ZM332.899 594.396C327.274 594.396 322.313 599.357 322.313 610.933C322.313 622.509 327.274 627.471 332.899 627.471C338.524 627.471 343.485 622.509 343.485 610.933C343.485 599.357 338.524 594.396 332.899 594.396Z" fill="#3A415B" stroke="#1D2136" stroke-miterlimit="10"/>
<path d="M378.889 587.777C389.149 587.777 395.101 593.729 395.101 602.999C395.101 613.258 387.822 616.229 387.822 616.229V616.555L398.408 634.094H388.148L378.889 618.22H371.284V634.094H362.025V587.777H378.9H378.889ZM371.284 610.604H378.889C382.523 610.604 385.504 607.623 385.504 602.999C385.504 598.374 382.523 595.393 378.889 595.393H371.284V610.615V610.604Z" fill="#3A415B" stroke="#1D2136" stroke-miterlimit="10"/>
<path d="M414.619 634.094H405.36V587.777H422.235C432.821 587.777 439.11 594.066 439.11 603.651C439.11 613.237 432.821 619.536 422.235 619.536H414.63V634.094H414.619ZM414.619 595.382V611.92H422.224C426.196 611.92 429.503 608.613 429.503 603.651C429.503 598.69 426.196 595.382 422.224 595.382H414.619Z" fill="#3A415B" stroke="#1D2136" stroke-miterlimit="10"/>
<path d="M464.581 635.413C453.331 635.413 444.398 626.481 444.398 610.933C444.398 595.386 453.331 586.453 464.581 586.453C475.831 586.453 484.763 595.386 484.763 610.933C484.763 626.481 475.831 635.413 464.581 635.413ZM464.581 594.396C458.956 594.396 453.995 599.357 453.995 610.933C453.995 622.509 458.956 627.471 464.581 627.471C470.206 627.471 475.167 622.509 475.167 610.933C475.167 599.357 470.206 594.396 464.581 594.396Z" fill="#3A415B" stroke="#1D2136" stroke-miterlimit="10"/>
<path d="M510.559 587.777C520.819 587.777 526.771 593.729 526.771 602.999C526.771 613.258 519.492 616.229 519.492 616.229V616.555L530.078 634.094H519.818L510.559 618.22H502.954V634.094H493.695V587.777H510.57H510.559ZM502.954 610.604H510.559C514.193 610.604 517.174 607.623 517.174 602.999C517.174 598.374 514.193 595.393 510.559 595.393H502.954V610.615V610.604Z" fill="#3A415B" stroke="#1D2136" stroke-miterlimit="10"/>
<path d="M540.665 634.094H531.068L545.952 587.777H557.529L572.412 634.094H562.816L559.835 624.835H543.624L540.643 634.094H540.665ZM551.914 600.017H551.588L546.3 616.892H557.213L551.914 600.017Z" fill="#3A415B" stroke="#1D2136" stroke-miterlimit="10"/>
<path d="M606.837 587.777V595.382H594.924V634.094H585.665V595.382H573.751V587.777H606.837Z" fill="#3A415B" stroke="#1D2136" stroke-miterlimit="10"/>
<path d="M623.374 634.094H614.115V587.777H623.374V634.094Z" fill="#3A415B" stroke="#1D2136" stroke-miterlimit="10"/>
<path d="M652.489 635.413C641.239 635.413 632.307 626.481 632.307 610.933C632.307 595.386 641.239 586.453 652.489 586.453C663.739 586.453 672.671 595.386 672.671 610.933C672.671 626.481 663.739 635.413 652.489 635.413ZM652.489 594.396C646.864 594.396 641.903 599.357 641.903 610.933C641.903 622.509 646.864 627.471 652.489 627.471C658.114 627.471 663.075 622.509 663.075 610.933C663.075 599.357 658.114 594.396 652.489 594.396Z" fill="#3A415B" stroke="#1D2136" stroke-miterlimit="10"/>
<path d="M707.412 616.229V587.777H716.671V634.094H706.879L691.201 605.642H690.874V634.094H681.615V587.777H691.407L707.085 616.229H707.412Z" fill="#3A415B" stroke="#1D2136" stroke-miterlimit="10"/>
</g>
<g opacity="0.4">
<path d="M436.521 705.039H443.92V735.96H459.511V742.042H436.521V705.039Z" fill="#3A415B" stroke="#1D2136" stroke-miterlimit="10"/>
<path d="M465.332 705.039H489.649V711.121H472.73V720.63H484.1V726.712H472.73V735.96H489.91V742.042H465.332V705.039Z" fill="#3A415B" stroke="#1D2136" stroke-miterlimit="10"/>
<path d="M499.168 742.026H491.509L503.401 705.023H512.649L524.541 742.026H516.881L514.498 734.628H501.551L499.168 742.026ZM508.155 714.805H507.894L503.662 728.285H512.388L508.155 714.805Z" fill="#3A415B" stroke="#1D2136" stroke-miterlimit="10"/>
<path d="M541.188 742.026H529.296V705.023H541.188C550.436 705.023 557.312 711.9 557.312 723.519C557.312 735.139 550.436 742.015 541.188 742.015V742.026ZM536.694 711.105V735.944H541.188C545.942 735.944 549.641 732.245 549.641 723.519C549.641 714.794 545.942 711.094 541.188 711.094H536.694V711.105Z" fill="#3A415B" stroke="#1D2136" stroke-miterlimit="10"/>
<path d="M564.449 705.039H588.766V711.121H571.848V720.63H583.217V726.712H571.848V735.96H589.027V742.042H564.449V705.039Z" fill="#3A415B" stroke="#1D2136" stroke-miterlimit="10"/>
<path d="M608.85 705.034C617.043 705.034 621.798 709.789 621.798 717.187C621.798 725.38 615.988 727.763 615.988 727.763V728.024L624.442 742.026H616.249L608.85 729.34H602.769V742.026H595.37V705.023H608.85V705.034ZM602.769 723.269H608.85C611.755 723.269 614.138 720.886 614.138 717.187C614.138 713.488 611.755 711.105 608.85 711.105H602.769V723.258V723.269Z" fill="#3A415B" stroke="#1D2136" stroke-miterlimit="10"/>
<path d="M652.458 731.191C652.458 737.795 647.17 743.082 638.183 743.082C630.524 743.082 626.553 738.328 626.553 738.328L629.73 733.301C629.73 733.301 632.635 736.739 637.661 736.739C642.416 736.739 644.799 734.357 644.799 731.191C644.799 724.586 628.152 728.024 628.152 715.066C628.152 708.984 633.179 703.969 640.838 703.969C648.498 703.969 651.675 708.201 651.675 708.201L648.77 713.228C648.77 713.228 645.865 710.323 641.371 710.323C637.933 710.323 635.823 712.433 635.823 715.077C635.823 721.953 652.469 718.776 652.469 731.201L652.458 731.191Z" fill="#3A415B" stroke="#1D2136" stroke-miterlimit="10"/>
<path d="M686.816 705.039V742.042H679.418V726.712H666.471V742.042H659.072V705.039H666.471V720.63H679.418V705.039H686.816Z" fill="#3A415B" stroke="#1D2136" stroke-miterlimit="10"/>
<path d="M703.734 742.026H696.336V705.023H703.734V742.026Z" fill="#3A415B" stroke="#1D2136" stroke-miterlimit="10"/>
<path d="M720.652 742.026H713.254V705.023H726.734C735.188 705.023 740.215 710.05 740.215 717.71C740.215 725.369 735.188 730.396 726.734 730.396H720.652V742.026ZM720.652 711.105V724.325H726.734C729.911 724.325 732.544 721.681 732.544 717.72C732.544 713.76 729.9 711.116 726.734 711.116H720.652V711.105Z" fill="#3A415B" stroke="#1D2136" stroke-miterlimit="10"/>
</g>
<g opacity="0.4">
<path d="M851.975 583.934C861.125 583.934 865.879 588.688 865.879 588.688L861.484 595.64C861.484 595.64 858.187 592.714 852.704 592.714C845.022 592.714 839.528 598.197 839.528 611.003C839.528 623.809 845.011 629.292 852.704 629.292C858.927 629.292 862.213 625.637 862.213 625.637L866.597 632.589C866.597 632.589 861.473 638.073 851.964 638.073C838.799 638.073 828.92 628.193 828.92 611.003C828.92 593.813 838.799 583.934 851.964 583.934H851.975Z" fill="#3A415B" stroke="#1D2136" stroke-miterlimit="10"/>
<path d="M884.538 620.153C884.538 626.007 887.834 629.303 893.688 629.303C899.541 629.303 902.838 626.007 902.838 620.153V585.402H913.087V620.153C913.087 630.391 905.406 638.083 893.699 638.083C881.992 638.083 874.311 630.402 874.311 620.153V585.402H884.549V620.153H884.538Z" fill="#3A415B" stroke="#1D2136" stroke-miterlimit="10"/>
<path d="M925.883 585.402H936.132V628.204H957.718V636.615H925.894V585.402H925.883Z" fill="#3A415B" stroke="#1D2136" stroke-miterlimit="10"/>
<path d="M997.223 585.402V593.813H984.058V636.615H973.809V593.813H960.645V585.402H997.223Z" fill="#3A415B" stroke="#1D2136" stroke-miterlimit="10"/>
<path d="M1015.15 620.153C1015.15 626.007 1018.45 629.303 1024.3 629.303C1030.16 629.303 1033.45 626.007 1033.45 620.153V585.402H1043.7V620.153C1043.7 630.391 1036.02 638.083 1024.31 638.083C1012.61 638.083 1004.93 630.402 1004.93 620.153V585.402H1015.16V620.153H1015.15Z" fill="#3A415B" stroke="#1D2136" stroke-miterlimit="10"/>
<path d="M1075.15 585.402C1086.48 585.402 1093.08 591.985 1093.08 602.234C1093.08 613.571 1085.02 616.867 1085.02 616.867V617.237L1096.73 636.625H1085.39L1075.15 619.065H1066.74V636.625H1056.49V585.413H1075.15V585.402ZM1066.74 610.644H1075.15C1079.17 610.644 1082.47 607.347 1082.47 602.234C1082.47 597.12 1079.17 593.823 1075.15 593.823H1066.74V610.655V610.644Z" fill="#3A415B" stroke="#1D2136" stroke-miterlimit="10"/>
<path d="M1104.41 585.401H1138.07V593.812H1114.66V606.977H1130.39V615.387H1114.66V628.193H1138.44V636.603H1104.42V585.391L1104.41 585.401Z" fill="#3A415B" stroke="#1D2136" stroke-miterlimit="10"/>
</g>
<g opacity="0.2">
<path d="M860.634 283.696C849.95 283.696 841.464 275.21 841.464 260.446C841.464 245.682 849.95 237.195 860.634 237.195C871.319 237.195 879.805 245.682 879.805 260.446C879.805 275.21 871.319 283.696 860.634 283.696ZM860.634 244.724C855.292 244.724 850.581 249.435 850.581 260.435C850.581 271.435 855.292 276.146 860.634 276.146C865.977 276.146 870.688 271.435 870.688 260.435C870.688 249.435 865.977 244.724 860.634 244.724Z" fill="#3A415B" stroke="#1D2136" stroke-miterlimit="10"/>
<path d="M904.318 238.445C914.056 238.445 919.713 244.103 919.713 252.905C919.713 262.642 912.805 265.471 912.805 265.471V265.787L922.858 282.444H913.12L904.318 267.364H897.094V282.444H888.292V238.456H904.318V238.445ZM897.094 260.129H904.318C907.778 260.129 910.607 257.3 910.607 252.905C910.607 248.509 907.778 245.681 904.318 245.681H897.094V260.14V260.129Z" fill="#3A415B" stroke="#1D2136" stroke-miterlimit="10"/>
<path d="M946.423 237.184C954.278 237.184 958.358 241.264 958.358 241.264L954.583 247.237C954.583 247.237 951.754 244.723 947.043 244.723C940.439 244.723 935.728 249.434 935.728 260.434C935.728 271.434 940.439 276.145 947.043 276.145C949.241 276.145 951.123 275.514 951.123 275.514V264.199H945.15V256.974H959.914V278.658C959.914 278.658 954.888 283.685 946.401 283.685C935.086 283.685 926.61 275.198 926.61 260.434C926.61 245.67 935.097 237.184 946.401 237.184H946.423Z" fill="#3A415B" stroke="#1D2136" stroke-miterlimit="10"/>
<path d="M973.134 282.433H964.017L978.161 238.445H989.16L1003.3 282.433H994.187L991.358 273.631H975.963L973.134 282.433ZM983.818 250.065H983.503L978.476 266.091H988.845L983.818 250.065Z" fill="#3A415B" stroke="#1D2136" stroke-miterlimit="10"/>
<path d="M1033.46 265.471V238.445H1042.27V282.433H1032.96L1018.07 255.407H1017.75V282.433H1008.95V238.445H1018.25L1033.15 265.471H1033.46Z" fill="#3A415B" stroke="#1D2136" stroke-miterlimit="10"/>
<path d="M1062.38 282.433H1053.58V238.445H1062.38V282.433Z" fill="#3A415B" stroke="#1D2136" stroke-miterlimit="10"/>
<path d="M1100.4 269.552C1100.4 277.407 1094.11 283.696 1083.42 283.696C1074.31 283.696 1069.6 278.038 1069.6 278.038L1073.37 272.065C1073.37 272.065 1076.83 276.145 1082.79 276.145C1088.45 276.145 1091.28 273.316 1091.28 269.552C1091.28 261.696 1071.49 265.776 1071.49 250.381C1071.49 243.157 1077.46 237.184 1086.57 237.184C1095.68 237.184 1099.45 242.21 1099.45 242.21L1095.99 248.183C1095.99 248.183 1092.53 244.723 1087.19 244.723C1083.11 244.723 1080.58 247.237 1080.58 250.381C1080.58 258.552 1100.39 254.777 1100.39 269.552H1100.4Z" fill="#3A415B" stroke="#1D2136" stroke-miterlimit="10"/>
<path d="M1111.71 282.433H1102.59L1116.74 238.445H1127.74L1141.88 282.433H1132.76L1129.94 273.631H1114.54L1111.71 282.433ZM1122.4 250.065H1122.08L1117.05 266.091H1127.42L1122.4 250.065Z" fill="#3A415B" stroke="#1D2136" stroke-miterlimit="10"/>
<path d="M1174.56 238.445V245.67H1163.24V282.433H1154.44V245.67H1143.12V238.445H1174.54H1174.56Z" fill="#3A415B" stroke="#1D2136" stroke-miterlimit="10"/>
<path d="M1190.28 282.433H1181.47V238.445H1190.28V282.433Z" fill="#3A415B" stroke="#1D2136" stroke-miterlimit="10"/>
<path d="M1217.92 283.696C1207.24 283.696 1198.75 275.21 1198.75 260.446C1198.75 245.682 1207.24 237.195 1217.92 237.195C1228.61 237.195 1237.09 245.682 1237.09 260.446C1237.09 275.21 1228.61 283.696 1217.92 283.696ZM1217.92 244.724C1212.58 244.724 1207.87 249.435 1207.87 260.435C1207.87 271.435 1212.58 276.146 1217.92 276.146C1223.26 276.146 1227.98 271.435 1227.98 260.435C1227.98 249.435 1223.26 244.724 1217.92 244.724Z" fill="#3A415B" stroke="#1D2136" stroke-miterlimit="10"/>
<path d="M1270.08 265.471V238.445H1278.88V282.433H1269.58L1254.69 255.407H1254.37V282.433H1245.57V238.445H1254.87L1269.77 265.471H1270.08Z" fill="#3A415B" stroke="#1D2136" stroke-miterlimit="10"/>
</g>
<g opacity="0.4">
<path d="M268.11 227.437C275.139 227.437 278.805 231.092 278.805 231.092L275.433 236.434C275.433 236.434 272.897 234.182 268.676 234.182C262.768 234.182 258.547 238.404 258.547 248.25C258.547 258.097 262.768 262.318 268.676 262.318C273.463 262.318 275.987 259.5 275.987 259.5L279.36 264.842C279.36 264.842 275.422 269.064 268.11 269.064C257.981 269.064 250.387 261.469 250.387 248.25C250.387 235.031 257.981 227.426 268.11 227.426V227.437Z" fill="#3A415B" stroke="#1D2136" stroke-miterlimit="10"/>
<path d="M300.184 269.075C290.621 269.075 283.026 261.481 283.026 248.262C283.026 235.043 290.621 227.438 300.184 227.438C309.748 227.438 317.342 235.032 317.342 248.262C317.342 261.492 309.748 269.075 300.184 269.075ZM300.184 234.183C295.397 234.183 291.186 238.405 291.186 248.251C291.186 258.097 295.408 262.319 300.184 262.319C304.96 262.319 309.182 258.097 309.182 248.251C309.182 238.405 304.96 234.183 300.184 234.183Z" fill="#3A415B" stroke="#1D2136" stroke-miterlimit="10"/>
<path d="M340.702 262.315L333.945 243.743H333.662L331.41 267.94H323.25L326.906 228.555H335.631L343.509 250.217H343.791L351.669 228.555H360.394L364.05 267.94H355.89L353.638 243.743H353.355L346.599 262.315H340.691H340.702Z" fill="#3A415B" stroke="#1D2136" stroke-miterlimit="10"/>
<path d="M388.247 262.315L381.491 243.743H381.208L378.956 267.94H370.796L374.452 228.555H383.177L391.054 250.217H391.337L399.214 228.555H407.94L411.596 267.94H403.436L401.184 243.743H400.901L394.144 262.315H388.237H388.247Z" fill="#3A415B" stroke="#1D2136" stroke-miterlimit="10"/>
<path d="M420.038 228.555H445.922V235.028H427.915V245.158H440.014V251.631H427.915V261.478H446.205V267.951H420.038V228.566V228.555Z" fill="#3A415B" stroke="#1D2136" stroke-miterlimit="10"/>
<path d="M467.312 228.558C476.038 228.558 481.097 233.617 481.097 241.494C481.097 250.22 474.906 252.744 474.906 252.744V253.027L483.904 267.933H475.178L467.301 254.43H460.827V267.933H452.95V228.547H467.301L467.312 228.558ZM460.838 247.968H467.312C470.402 247.968 472.937 245.433 472.937 241.494C472.937 237.556 470.402 235.02 467.312 235.02H460.838V247.957V247.968Z" fill="#3A415B" stroke="#1D2136" stroke-miterlimit="10"/>
<path d="M505.012 227.437C512.04 227.437 515.707 231.092 515.707 231.092L512.334 236.434C512.334 236.434 509.799 234.182 505.577 234.182C499.67 234.182 495.448 238.404 495.448 248.25C495.448 258.097 499.67 262.318 505.577 262.318C510.365 262.318 512.889 259.5 512.889 259.5L516.262 264.842C516.262 264.842 512.323 269.064 505.012 269.064C494.882 269.064 487.288 261.469 487.288 248.25C487.288 235.031 494.882 227.426 505.012 227.426V227.437Z" fill="#3A415B" stroke="#1D2136" stroke-miterlimit="10"/>
<path d="M530.328 267.94H522.451V228.555H530.328V267.94Z" fill="#3A415B" stroke="#1D2136" stroke-miterlimit="10"/>
<path d="M543.559 267.94H535.399L548.064 228.555H557.91L570.575 267.94H562.415L559.879 260.063H546.094L543.559 267.94ZM553.123 238.967H552.84L548.336 253.318H557.616L553.112 238.967H553.123Z" fill="#3A415B" stroke="#1D2136" stroke-miterlimit="10"/>
<path d="M575.634 228.555H583.511V261.467H600.114V267.94H575.634V228.555Z" fill="#3A415B" stroke="#1D2136" stroke-miterlimit="10"/>
</g>
<g opacity="0.2">
<path d="M1102.86 751.795C1092.84 751.795 1084.88 743.841 1084.88 729.991C1084.88 716.141 1092.84 708.188 1102.86 708.188C1112.88 708.188 1120.83 716.141 1120.83 729.991C1120.83 743.841 1112.88 751.795 1102.86 751.795ZM1102.86 715.27C1097.85 715.27 1093.43 719.688 1093.43 730.002C1093.43 740.316 1097.85 744.733 1102.86 744.733C1107.86 744.733 1112.28 740.316 1112.28 730.002C1112.28 719.688 1107.86 715.27 1102.86 715.27Z" fill="#3A415B" stroke="#1D2136" stroke-miterlimit="10"/>
<path d="M1128.78 709.371H1155.88V716.149H1137.03V728.585H1149.69V735.298H1137.03V750.617H1128.78V709.371Z" fill="#3A415B" stroke="#1D2136" stroke-miterlimit="10"/>
<path d="M1162.37 709.371H1189.47V716.149H1170.62V728.585H1183.28V735.298H1170.62V750.617H1162.37V709.371Z" fill="#3A415B" stroke="#1D2136" stroke-miterlimit="10"/>
<path d="M1204.2 750.617H1195.96V709.371H1204.2V750.617Z" fill="#3A415B" stroke="#1D2136" stroke-miterlimit="10"/>
<path d="M1230.72 708.198C1238.08 708.198 1241.91 712.027 1241.91 712.027L1238.38 717.62C1238.38 717.62 1235.72 715.259 1231.3 715.259C1225.11 715.259 1220.7 719.676 1220.7 729.99C1220.7 740.304 1225.11 744.722 1231.3 744.722C1236.31 744.722 1238.96 741.773 1238.96 741.773L1242.5 747.366C1242.5 747.366 1238.38 751.783 1230.72 751.783C1220.11 751.783 1212.16 743.83 1212.16 729.979C1212.16 716.129 1220.11 708.176 1230.72 708.176V708.198Z" fill="#3A415B" stroke="#1D2136" stroke-miterlimit="10"/>
<path d="M1248.99 709.371H1276.09V716.149H1257.23V726.757H1269.9V733.536H1257.23V743.85H1276.38V750.628H1248.99V709.382V709.371Z" fill="#3A415B" stroke="#1D2136" stroke-miterlimit="10"/>
</g>
<path d="M1337.19 433.426C1340.63 433.426 1343.42 430.634 1343.42 427.191C1343.42 423.748 1340.63 420.957 1337.19 420.957C1333.75 420.957 1330.96 423.748 1330.96 427.191C1330.96 430.634 1333.75 433.426 1337.19 433.426Z" fill="#3D4560"/>
<path d="M1287.76 239.395H1337.19V424.137" stroke="#1D2136" stroke-width="3.37" stroke-miterlimit="10" stroke-dasharray="8 8"/>
<path d="M209.575 647.043H740.215V576.008" stroke="#1D2136" stroke-width="3.37" stroke-miterlimit="10" stroke-dasharray="8 8"/>
<g style="mix-blend-mode:screen">
<path d="M1253.4 562.527V646.064H900.597" stroke="#757575" stroke-width="3.37" stroke-linecap="round" stroke-linejoin="round" stroke-dasharray="8 8"/>
</g>
<path d="M1213.82 596.081H1187.42V583.711C1187.42 580.697 1189.87 578.238 1192.89 578.238H1208.35C1211.36 578.238 1213.82 580.697 1213.82 583.711V596.081ZM1190.87 592.622H1210.36V583.711C1210.36 582.601 1209.46 581.698 1208.35 581.698H1192.89C1191.78 581.698 1190.87 582.601 1190.87 583.711V592.622Z" fill="#78502F"/>
<path d="M1233.49 590.121H1218.28V587.543C1218.28 586.15 1219.41 585.018 1220.81 585.018H1230.97C1232.36 585.018 1233.49 586.15 1233.49 587.543V590.121Z" fill="#FFBE63"/>
<path d="M1182.95 590.121H1167.74V587.543C1167.74 586.15 1168.88 585.018 1170.27 585.018H1180.43C1181.82 585.018 1182.95 586.15 1182.95 587.543V590.121Z" fill="#FFBE63"/>
<path d="M1231.2 635.352H1170.05C1167.09 635.352 1164.69 632.947 1164.69 629.988V589.59C1164.69 587.893 1166.07 586.522 1167.75 586.522H1233.48C1235.18 586.522 1236.55 587.904 1236.55 589.59V629.988C1236.55 632.947 1234.14 635.352 1231.18 635.352H1231.2Z" fill="#78502F"/>
<g style="mix-blend-mode:multiply">
<path d="M1234.47 586.52H1231.4C1232.56 586.52 1233.49 587.455 1233.49 588.608V631.715C1233.49 633.728 1231.86 635.36 1229.85 635.36H1232.91C1234.93 635.36 1236.56 633.728 1236.56 631.715V588.608C1236.56 587.455 1235.62 586.52 1234.47 586.52Z" fill="#F5F5F5"/>
</g>
<g style="mix-blend-mode:multiply">
<path d="M1166.78 586.52H1169.84C1168.69 586.52 1167.75 587.455 1167.75 588.608V631.715C1167.75 633.728 1169.39 635.36 1171.4 635.36H1168.33C1166.32 635.36 1164.69 633.728 1164.69 631.715V588.608C1164.69 587.455 1165.62 586.52 1166.78 586.52Z" fill="#F5F5F5"/>
</g>
<path d="M1228.35 613.219H1172.91C1168.37 613.219 1164.7 609.541 1164.7 605.004V589.587C1164.7 587.89 1166.08 586.519 1167.77 586.519H1233.49C1235.19 586.519 1236.56 587.901 1236.56 589.587V605.004C1236.56 609.541 1232.88 613.219 1228.35 613.219Z" fill="#916139"/>
<path d="M1180.63 616.902H1185.97V607.85H1180.63V616.902Z" fill="#78502F"/>
<path d="M1180.63 618.973H1185.97V610.943H1180.63V618.973Z" fill="#F0B35D"/>
<path d="M1182.8 618.191H1183.8V616.407H1182.8V618.191Z" fill="#CC984F"/>
<path d="M1180.2 615.719H1186.39V613.227H1180.2V615.719Z" fill="#FFBE63"/>
<path d="M1215.27 616.902H1220.61V607.85H1215.27V616.902Z" fill="#78502F"/>
<path d="M1215.27 618.973H1220.61V610.943H1215.27V618.973Z" fill="#F0B35D"/>
<path d="M1217.43 618.191H1218.43V616.407H1217.43V618.191Z" fill="#CC984F"/>
<path d="M1214.84 615.719H1221.04V613.227H1214.84V615.719Z" fill="#FFBE63"/>
<path d="M1191.91 582.844H1209.35V577.382H1191.91V582.844Z" fill="#916139"/>
<path d="M214.699 640.24C230.881 640.24 243.999 627.122 243.999 610.94C243.999 594.759 230.881 581.641 214.699 581.641C198.517 581.641 185.399 594.759 185.399 610.94C185.399 627.122 198.517 640.24 214.699 640.24Z" fill="#FFE854"/>
<path d="M213.046 630.994V626.066C210.217 626.022 207.279 625.13 205.571 623.911L206.746 620.647C208.509 621.812 211.044 622.747 213.775 622.747C217.246 622.747 219.585 620.745 219.585 617.96C219.585 615.175 217.681 613.619 214.069 612.15C209.086 610.192 206.006 607.951 206.006 603.696C206.006 599.442 208.89 596.57 213.383 595.83V590.891H216.408V595.634C219.335 595.732 221.336 596.516 222.751 597.342L221.532 600.563C220.51 599.975 218.508 598.898 215.374 598.898C211.61 598.898 210.195 601.14 210.195 603.098C210.195 605.633 212.001 606.906 216.255 608.669C221.282 610.714 223.828 613.26 223.828 617.601C223.828 621.463 221.141 625.076 216.114 625.902V630.983H213.035L213.046 630.994Z" fill="white" stroke="white" stroke-width="4" stroke-linecap="round" stroke-linejoin="round"/>
<path d="M946.121 171.5H952.54C953.269 171.5 953.868 172.098 953.868 172.827V199.059C953.868 199.788 953.269 200.386 952.54 200.386H946.132C945.403 200.386 944.805 199.788 944.805 199.059V172.827C944.805 172.098 945.403 171.5 946.132 171.5H946.121Z" fill="#4C96E0"/>
<path d="M936.219 200.388L928.549 200.421C928.168 200.421 927.853 200.116 927.853 199.735L927.776 187.756C927.776 187.376 928.081 187.06 928.462 187.06L936.132 187.027C936.513 187.027 936.829 187.332 936.829 187.713L936.905 199.692C936.905 200.072 936.6 200.388 936.219 200.388Z" fill="#FF7761"/>
<path d="M971.415 200.406H963.984C963.516 200.406 963.146 199.916 963.146 199.328L963.19 160.824C963.19 160.237 963.571 159.758 964.028 159.758H971.459C971.927 159.758 972.297 160.247 972.297 160.835L972.253 199.339C972.253 199.927 971.872 200.406 971.415 200.406Z" fill="#FFDC00"/>
<path d="M990.946 200.42H984.016C983.417 200.42 982.928 199.789 982.928 199.027L982.982 149.393C982.982 148.62 983.472 148 984.081 148H991.012C991.61 148 992.1 148.631 992.1 149.393L992.045 199.027C992.045 199.8 991.556 200.42 990.946 200.42Z" fill="white"/>
<g opacity="0.2">
<path d="M244.76 165.578C250.026 165.578 252.757 168.32 252.757 168.32L250.232 172.324C250.232 172.324 248.339 170.637 245.184 170.637C240.767 170.637 237.601 173.793 237.601 181.158C237.601 188.524 240.756 191.679 245.184 191.679C248.764 191.679 250.657 189.579 250.657 189.579L253.181 193.583C253.181 193.583 250.232 196.738 244.76 196.738C237.176 196.738 231.497 191.059 231.497 181.158C231.497 171.257 237.176 165.578 244.76 165.578Z" fill="#3A415B" stroke="#1D2136" stroke-miterlimit="10"/>
<path d="M268.761 196.738C261.602 196.738 255.923 191.059 255.923 181.158C255.923 171.257 261.602 165.578 268.761 165.578C275.92 165.578 281.6 171.257 281.6 181.158C281.6 191.059 275.92 196.738 268.761 196.738ZM268.761 170.626C265.182 170.626 262.027 173.782 262.027 181.147C262.027 188.513 265.182 191.668 268.761 191.668C272.341 191.668 275.496 188.513 275.496 181.147C275.496 173.782 272.341 170.626 268.761 170.626Z" fill="#3A415B" stroke="#1D2136" stroke-miterlimit="10"/>
<path d="M287.29 166.414H293.187V191.046H305.612V195.888H287.301V166.414H287.29Z" fill="#3A415B" stroke="#1D2136" stroke-miterlimit="10"/>
<path d="M310.236 166.414H316.133V191.046H328.558V195.888H310.247V166.414H310.236Z" fill="#3A415B" stroke="#1D2136" stroke-miterlimit="10"/>
<path d="M335.5 195.888H329.396L338.873 166.414H346.239L355.715 195.888H349.612L347.718 189.991H337.404L335.511 195.888H335.5ZM342.659 174.204H342.452L339.08 184.943H346.032L342.659 174.204Z" fill="#3A415B" stroke="#1D2136" stroke-miterlimit="10"/>
<path d="M359.501 166.417H370.033C376.343 166.417 379.509 169.572 379.509 174.414C379.509 179.256 375.505 180.18 375.505 180.18V180.431C375.505 180.431 381.185 181.573 381.185 187.459C381.185 192.507 377.812 195.88 371.295 195.88H359.501V166.406V166.417ZM373.395 174.838C373.395 172.521 372.133 171.259 370.022 171.259H365.387V178.418H370.022C372.133 178.418 373.395 177.156 373.395 174.838ZM365.398 183.259V191.049H371.295C373.612 191.049 375.081 189.581 375.081 187.263C375.081 184.739 373.612 183.259 371.295 183.259H365.398Z" fill="#3A415B" stroke="#1D2136" stroke-miterlimit="10"/>
<path d="M397.395 196.738C390.236 196.738 384.557 191.059 384.557 181.158C384.557 171.257 390.236 165.578 397.395 165.578C404.554 165.578 410.233 171.257 410.233 181.158C410.233 191.059 404.554 196.738 397.395 196.738ZM397.395 170.626C393.816 170.626 390.66 173.782 390.66 181.147C390.66 188.513 393.816 191.668 397.395 191.668C400.975 191.668 404.13 188.513 404.13 181.147C404.13 173.782 400.975 170.626 397.395 170.626Z" fill="#3A415B" stroke="#1D2136" stroke-miterlimit="10"/>
<path d="M426.663 166.414C433.191 166.414 436.977 170.2 436.977 176.097C436.977 182.625 432.342 184.518 432.342 184.518V184.725L439.077 195.888H432.549L426.652 185.78H421.81V195.888H415.913V166.414H426.652H426.663ZM421.821 180.939H426.663C428.98 180.939 430.873 179.046 430.873 176.097C430.873 173.149 428.98 171.256 426.663 171.256H421.821V180.939Z" fill="#3A415B" stroke="#1D2136" stroke-miterlimit="10"/>
<path d="M445.822 195.888H439.719L449.195 166.414H456.561L466.037 195.888H459.934L458.041 189.991H447.726L445.833 195.888H445.822ZM452.981 174.204H452.775L449.402 184.943H456.354L452.981 174.204Z" fill="#3A415B" stroke="#1D2136" stroke-miterlimit="10"/>
<path d="M487.928 166.414V171.256H480.345V195.888H474.448V171.256H466.864V166.414H487.917H487.928Z" fill="#3A415B" stroke="#1D2136" stroke-miterlimit="10"/>
<path d="M498.459 195.888H492.562V166.414H498.459V195.888Z" fill="#3A415B" stroke="#1D2136" stroke-miterlimit="10"/>
<path d="M516.988 196.738C509.829 196.738 504.149 191.059 504.149 181.158C504.149 171.257 509.829 165.578 516.988 165.578C524.147 165.578 529.826 171.257 529.826 181.158C529.826 191.059 524.147 196.738 516.988 196.738ZM516.988 170.626C513.408 170.626 510.253 173.782 510.253 181.147C510.253 188.513 513.408 191.668 516.988 191.668C520.567 191.668 523.723 188.513 523.723 181.147C523.723 173.782 520.567 170.626 516.988 170.626Z" fill="#3A415B" stroke="#1D2136" stroke-miterlimit="10"/>
<path d="M551.935 184.518V166.414H557.831V195.888H551.597L541.62 177.784H541.414V195.888H535.517V166.414H541.751L551.728 184.518H551.935Z" fill="#3A415B" stroke="#1D2136" stroke-miterlimit="10"/>
</g>
<g style="mix-blend-mode:screen">
<path d="M822.456 279.158V228.512H1128.5" stroke="#757575" stroke-width="3.37" stroke-linecap="round" stroke-linejoin="round"/>
</g>
</svg>
